G04*
G04 #@! TF.GenerationSoftware,Altium Limited,Altium Designer,22.3.1 (43)*
G04*
G04 Layer_Physical_Order=1*
G04 Layer_Color=255*
%FSLAX25Y25*%
%MOIN*%
G70*
G04*
G04 #@! TF.SameCoordinates,142BF1C5-0EC6-4A49-94C7-97FE39397288*
G04*
G04*
G04 #@! TF.FilePolarity,Positive*
G04*
G01*
G75*
%ADD10C,0.01000*%
%ADD13C,0.00787*%
%ADD31R,0.04134X0.16929*%
%ADD32R,0.41339X0.41732*%
%ADD33R,0.21654X0.12795*%
%ADD34R,0.26772X0.28347*%
%ADD35R,0.03740X0.08661*%
%ADD36O,0.08071X0.05709*%
%ADD37R,0.03740X0.03347*%
%ADD38R,0.03347X0.03740*%
%ADD39R,0.08661X0.03740*%
%ADD40R,0.28347X0.26772*%
%ADD41R,0.03937X0.03543*%
%ADD42R,0.03937X0.02362*%
%ADD43R,0.03543X0.03937*%
%ADD44C,0.02000*%
%ADD45C,0.10000*%
%ADD46C,0.06000*%
%ADD47C,0.08000*%
%ADD48C,0.01500*%
%ADD49C,0.05906*%
%ADD50C,0.20000*%
%ADD51C,0.07874*%
%ADD52C,0.06000*%
%ADD53C,0.02500*%
G36*
X664000Y524000D02*
X664000Y96000D01*
X356000D01*
X356000Y524000D01*
X664000Y524000D01*
D02*
G37*
%LPC*%
G36*
X370866Y521000D02*
X370500D01*
Y510500D01*
X381000D01*
Y510866D01*
X380729Y512576D01*
X380194Y514222D01*
X379408Y515765D01*
X378390Y517166D01*
X377166Y518390D01*
X375765Y519408D01*
X374222Y520194D01*
X372576Y520729D01*
X370866Y521000D01*
D02*
G37*
G36*
X369500D02*
X369134D01*
X367424Y520729D01*
X365777Y520194D01*
X364235Y519408D01*
X362834Y518390D01*
X361610Y517166D01*
X360592Y515765D01*
X359806Y514222D01*
X359271Y512576D01*
X359000Y510866D01*
Y510500D01*
X369500D01*
Y521000D01*
D02*
G37*
G36*
X650850Y520800D02*
X649150D01*
X647471Y520534D01*
X645854Y520009D01*
X644340Y519237D01*
X642964Y518238D01*
X641762Y517036D01*
X640763Y515660D01*
X639991Y514146D01*
X639466Y512529D01*
X639200Y510850D01*
Y509150D01*
X639466Y507471D01*
X639991Y505854D01*
X640763Y504340D01*
X641762Y502964D01*
X642964Y501762D01*
X644340Y500763D01*
X645854Y499991D01*
X647471Y499466D01*
X649150Y499200D01*
X650850D01*
X652529Y499466D01*
X654146Y499991D01*
X655660Y500763D01*
X657036Y501762D01*
X658238Y502964D01*
X659237Y504340D01*
X660009Y505854D01*
X660534Y507471D01*
X660800Y509150D01*
Y510850D01*
X660534Y512529D01*
X660009Y514146D01*
X659237Y515660D01*
X658238Y517036D01*
X657036Y518238D01*
X655660Y519237D01*
X654146Y520009D01*
X652529Y520534D01*
X650850Y520800D01*
D02*
G37*
G36*
X381000Y509500D02*
X370500D01*
Y499000D01*
X370866D01*
X372576Y499271D01*
X374222Y499806D01*
X375765Y500592D01*
X377166Y501610D01*
X378390Y502834D01*
X379408Y504235D01*
X380194Y505778D01*
X380729Y507424D01*
X381000Y509134D01*
Y509500D01*
D02*
G37*
G36*
X369500D02*
X359000D01*
Y509134D01*
X359271Y507424D01*
X359806Y505778D01*
X360592Y504235D01*
X361610Y502834D01*
X362834Y501610D01*
X364235Y500592D01*
X365777Y499806D01*
X367424Y499271D01*
X369134Y499000D01*
X369500D01*
Y509500D01*
D02*
G37*
G36*
X526000Y507828D02*
X394000D01*
X392863Y507716D01*
X391770Y507384D01*
X390762Y506846D01*
X389879Y506121D01*
X371879Y488121D01*
X371154Y487238D01*
X370616Y486230D01*
X370284Y485137D01*
X370172Y484000D01*
Y460000D01*
Y372000D01*
Y336000D01*
Y190000D01*
X370284Y188863D01*
X370616Y187770D01*
X371154Y186762D01*
X371879Y185879D01*
X381879Y175879D01*
X382762Y175154D01*
X383770Y174616D01*
X384863Y174284D01*
X386000Y174172D01*
X400000D01*
X401137Y174284D01*
X402230Y174616D01*
X403238Y175154D01*
X404121Y175879D01*
X404846Y176762D01*
X405384Y177770D01*
X405716Y178863D01*
X405828Y180000D01*
X405716Y181137D01*
X405384Y182230D01*
X404846Y183238D01*
X404121Y184121D01*
X403238Y184846D01*
X402230Y185384D01*
X401137Y185716D01*
X400000Y185828D01*
X388414D01*
X381828Y192414D01*
Y333167D01*
X441815D01*
X442807Y333298D01*
X442846Y333314D01*
X442996D01*
X443950Y333440D01*
X444839Y333808D01*
X445602Y334394D01*
X446188Y335157D01*
X446556Y336046D01*
X446682Y337000D01*
X446556Y337954D01*
X446188Y338843D01*
X445602Y339606D01*
X444839Y340192D01*
X443950Y340560D01*
X442996Y340686D01*
X442846D01*
X442807Y340702D01*
X441815Y340833D01*
X381828D01*
Y366167D01*
X408000D01*
X408992Y366298D01*
X409916Y366681D01*
X410710Y367290D01*
X412588Y369167D01*
X441815D01*
X442807Y369298D01*
X442846Y369314D01*
X442996D01*
X443950Y369440D01*
X444839Y369808D01*
X445602Y370394D01*
X446188Y371157D01*
X446556Y372046D01*
X446682Y373000D01*
X446556Y373954D01*
X446188Y374843D01*
X445602Y375606D01*
X444839Y376192D01*
X443950Y376560D01*
X442996Y376686D01*
X442846D01*
X442807Y376702D01*
X441815Y376833D01*
X411000D01*
X410008Y376702D01*
X409084Y376319D01*
X408290Y375710D01*
X406412Y373833D01*
X381828D01*
Y445214D01*
X381912Y446807D01*
X382193Y448399D01*
X382651Y449775D01*
X383281Y450944D01*
X384080Y451920D01*
X385056Y452719D01*
X386225Y453348D01*
X387601Y453807D01*
X389193Y454088D01*
X390786Y454172D01*
X399706D01*
X400233Y454099D01*
X401055Y453930D01*
X401850Y453709D01*
X402618Y453437D01*
X403361Y453114D01*
X404079Y452740D01*
X404773Y452313D01*
X405444Y451834D01*
X406091Y451302D01*
X406276Y451128D01*
X406702Y450702D01*
X406703Y450702D01*
X420165Y437240D01*
Y414000D01*
X420304Y413298D01*
X420702Y412702D01*
X426702Y406702D01*
X427298Y406304D01*
X428000Y406165D01*
X428598D01*
X428764Y406150D01*
X428996Y406112D01*
X429170Y406065D01*
X429283Y406019D01*
X429330Y405991D01*
Y402869D01*
X434670D01*
Y413131D01*
X429330D01*
Y410009D01*
X429283Y409981D01*
X429170Y409935D01*
X428996Y409888D01*
X428764Y409850D01*
X428747Y409848D01*
X423835Y414760D01*
Y438000D01*
X423696Y438702D01*
X423298Y439298D01*
X409298Y453298D01*
X409297Y453298D01*
X408871Y453724D01*
X408698Y453909D01*
X408166Y454556D01*
X407687Y455227D01*
X407260Y455921D01*
X406885Y456638D01*
X406562Y457381D01*
X406291Y458149D01*
X406070Y458944D01*
X405901Y459766D01*
X405780Y460641D01*
X405759Y460702D01*
X405716Y461137D01*
X405384Y462230D01*
X404846Y463238D01*
X404121Y464121D01*
X403238Y464846D01*
X402230Y465384D01*
X401137Y465716D01*
X400000Y465828D01*
X390786D01*
X389193Y465912D01*
X387601Y466193D01*
X386225Y466652D01*
X385056Y467281D01*
X384080Y468080D01*
X383281Y469056D01*
X382651Y470225D01*
X382193Y471601D01*
X381912Y473193D01*
X381828Y474786D01*
Y481586D01*
X396414Y496172D01*
X425214D01*
X426807Y496088D01*
X428399Y495807D01*
X429775Y495348D01*
X430944Y494719D01*
X431920Y493920D01*
X432719Y492944D01*
X433348Y491775D01*
X433807Y490399D01*
X434088Y488807D01*
X434172Y487214D01*
Y480000D01*
X434284Y478863D01*
X434616Y477770D01*
X435154Y476762D01*
X435879Y475879D01*
X436762Y475154D01*
X437770Y474616D01*
X438863Y474284D01*
X440000Y474172D01*
X441137Y474284D01*
X442230Y474616D01*
X443238Y475154D01*
X444121Y475879D01*
X444846Y476762D01*
X445384Y477770D01*
X445716Y478863D01*
X445828Y480000D01*
Y487214D01*
X445912Y488807D01*
X446193Y490399D01*
X446652Y491775D01*
X447281Y492944D01*
X448080Y493920D01*
X449056Y494719D01*
X450225Y495348D01*
X451601Y495807D01*
X453193Y496088D01*
X454786Y496172D01*
X475214D01*
X476807Y496088D01*
X478399Y495807D01*
X479775Y495348D01*
X480944Y494719D01*
X481920Y493920D01*
X482719Y492944D01*
X483348Y491775D01*
X483807Y490399D01*
X484088Y488807D01*
X484172Y487214D01*
Y480000D01*
X484284Y478863D01*
X484616Y477770D01*
X485154Y476762D01*
X485879Y475879D01*
X486762Y475154D01*
X487770Y474616D01*
X488863Y474284D01*
X490000Y474172D01*
X491137Y474284D01*
X492230Y474616D01*
X493238Y475154D01*
X494121Y475879D01*
X494846Y476762D01*
X495384Y477770D01*
X495716Y478863D01*
X495828Y480000D01*
Y487214D01*
X495912Y488807D01*
X496193Y490399D01*
X496652Y491775D01*
X497281Y492944D01*
X498080Y493920D01*
X499056Y494719D01*
X500225Y495348D01*
X501601Y495807D01*
X503193Y496088D01*
X504786Y496172D01*
X523586D01*
X534172Y485586D01*
Y480000D01*
X534284Y478863D01*
X534616Y477770D01*
X535154Y476762D01*
X535879Y475879D01*
X536762Y475154D01*
X537770Y474616D01*
X538863Y474284D01*
X540000Y474172D01*
X541137Y474284D01*
X542230Y474616D01*
X543238Y475154D01*
X544121Y475879D01*
X544846Y476762D01*
X545384Y477770D01*
X545716Y478863D01*
X545828Y480000D01*
Y488000D01*
X545716Y489137D01*
X545384Y490230D01*
X544846Y491238D01*
X544121Y492121D01*
X530121Y506121D01*
X529238Y506846D01*
X528230Y507384D01*
X527137Y507716D01*
X526000Y507828D01*
D02*
G37*
G36*
X620000Y484841D02*
X618747Y484677D01*
X617579Y484193D01*
X616577Y483423D01*
X606577Y473423D01*
X605807Y472421D01*
X605324Y471253D01*
X605159Y470000D01*
Y400000D01*
X605324Y398747D01*
X605807Y397579D01*
X606577Y396577D01*
X615159Y387995D01*
Y387341D01*
X565768D01*
X565668Y387841D01*
X566274Y388092D01*
X566908Y388725D01*
X567228Y389500D01*
X562772D01*
X563093Y388725D01*
X563726Y388092D01*
X564332Y387841D01*
X564232Y387341D01*
X537816D01*
Y387500D01*
X537754Y387812D01*
X537577Y388077D01*
X537312Y388254D01*
X537000Y388316D01*
X527500D01*
X527500Y388316D01*
X527188Y388254D01*
X526923Y388077D01*
X526923Y388077D01*
X517506Y378660D01*
X516920Y378545D01*
X515912Y378407D01*
X513549Y378243D01*
X513180Y378238D01*
X499157D01*
X498553Y378117D01*
X498040Y377775D01*
X494882Y374618D01*
X494540Y374105D01*
X494420Y373500D01*
Y369291D01*
X494410Y369185D01*
X494384Y369030D01*
X494358Y368934D01*
X493330D01*
Y363987D01*
Y360744D01*
X493063Y360477D01*
X492775Y360047D01*
X492674Y359539D01*
Y357751D01*
X492666Y357701D01*
X492655Y357654D01*
X492642Y357613D01*
X492627Y357579D01*
X492612Y357550D01*
X492595Y357524D01*
X492576Y357500D01*
X492529Y357450D01*
X492494Y357393D01*
X492262Y357161D01*
X491950Y356408D01*
Y355592D01*
X492262Y354839D01*
X492839Y354262D01*
X493592Y353950D01*
X494408D01*
X495161Y354262D01*
X495738Y354839D01*
X496050Y355592D01*
Y356408D01*
X495738Y357161D01*
X495506Y357393D01*
X495471Y357450D01*
X495424Y357500D01*
X495405Y357524D01*
X495388Y357550D01*
X495373Y357579D01*
X495358Y357613D01*
X495345Y357654D01*
X495334Y357701D01*
X495326Y357751D01*
Y358990D01*
X495401Y359066D01*
X497840D01*
X497858Y359063D01*
X497877Y359066D01*
X498670D01*
Y359111D01*
X498999Y359304D01*
X499330Y359105D01*
Y359066D01*
X500124D01*
X500142Y359063D01*
X500160Y359066D01*
X503840D01*
X503858Y359063D01*
X503876Y359066D01*
X504670D01*
Y359111D01*
X504999Y359304D01*
X505330Y359105D01*
Y359066D01*
X506123D01*
X506142Y359063D01*
X506160Y359066D01*
X510670D01*
Y363925D01*
X510931Y364065D01*
X511065Y363998D01*
X511232Y363841D01*
Y358771D01*
X515938D01*
X515956Y358767D01*
X515975Y358771D01*
X516684D01*
Y357838D01*
X515283Y356436D01*
X515106Y356172D01*
X515044Y355860D01*
X515076Y355698D01*
X514784Y355198D01*
X510950D01*
X510927Y355312D01*
X510750Y355577D01*
X510485Y355754D01*
X510173Y355816D01*
X497500D01*
X497188Y355754D01*
X496923Y355577D01*
X496746Y355312D01*
X496684Y355000D01*
Y329531D01*
X486577Y319423D01*
X485807Y318421D01*
X485323Y317253D01*
X485159Y316000D01*
Y254005D01*
X477995Y246841D01*
X442000D01*
X440747Y246676D01*
X439579Y246193D01*
X438577Y245423D01*
X436577Y243423D01*
X435807Y242421D01*
X435323Y241253D01*
X435159Y240000D01*
Y234841D01*
X428000D01*
X426747Y234677D01*
X425579Y234193D01*
X424577Y233423D01*
X418577Y227423D01*
X417807Y226421D01*
X417323Y225253D01*
X417159Y224006D01*
X396577Y203423D01*
X395807Y202421D01*
X395323Y201253D01*
X395159Y200000D01*
X395323Y198747D01*
X395807Y197579D01*
X396577Y196577D01*
X397579Y195807D01*
X398747Y195324D01*
X400000Y195159D01*
X401253Y195324D01*
X402421Y195807D01*
X403423Y196577D01*
X425423Y218577D01*
X426193Y219579D01*
X426677Y220747D01*
X426841Y221994D01*
X430005Y225159D01*
X440000D01*
X441253Y225324D01*
X442421Y225807D01*
X443423Y226577D01*
X444193Y227579D01*
X444676Y228747D01*
X444841Y230000D01*
Y237159D01*
X480000D01*
X481253Y237323D01*
X482421Y237807D01*
X483423Y238577D01*
X493423Y248577D01*
X494193Y249579D01*
X494676Y250747D01*
X494841Y252000D01*
Y313995D01*
X507531Y326684D01*
X530000D01*
X530312Y326746D01*
X530577Y326923D01*
X530577Y326923D01*
X537577Y333923D01*
X537754Y334188D01*
X537816Y334500D01*
X537816Y334500D01*
Y377659D01*
X615495D01*
X616577Y376577D01*
X617579Y375807D01*
X618747Y375324D01*
X620000Y375159D01*
X627995D01*
X630159Y372995D01*
Y297005D01*
X616577Y283423D01*
X615807Y282421D01*
X615323Y281253D01*
X615159Y280000D01*
X615323Y278747D01*
X615807Y277579D01*
X616577Y276577D01*
X617579Y275807D01*
X618747Y275324D01*
X620000Y275159D01*
X621253Y275324D01*
X622421Y275807D01*
X623423Y276577D01*
X638423Y291577D01*
X639193Y292579D01*
X639677Y293747D01*
X639841Y295000D01*
Y375000D01*
X639677Y376253D01*
X639193Y377421D01*
X638423Y378423D01*
X633423Y383423D01*
X632421Y384193D01*
X631253Y384677D01*
X630000Y384841D01*
X624841D01*
Y390000D01*
X624677Y391253D01*
X624193Y392421D01*
X623423Y393423D01*
X614841Y402005D01*
Y418245D01*
X615341Y418311D01*
X615399Y418094D01*
X616049Y416969D01*
X616969Y416049D01*
X618094Y415399D01*
X619350Y415063D01*
X619500D01*
Y420000D01*
Y424937D01*
X619350D01*
X618094Y424601D01*
X616969Y423951D01*
X616049Y423031D01*
X615399Y421906D01*
X615341Y421689D01*
X614841Y421755D01*
Y439018D01*
X615341Y439084D01*
X615586Y438172D01*
X616210Y437091D01*
X617091Y436209D01*
X618172Y435586D01*
X619376Y435263D01*
X620624D01*
X621828Y435586D01*
X622909Y436209D01*
X623791Y437091D01*
X624414Y438172D01*
X624737Y439376D01*
Y440624D01*
X624414Y441828D01*
X623791Y442909D01*
X622909Y443790D01*
X621828Y444414D01*
X620624Y444737D01*
X619376D01*
X618172Y444414D01*
X617091Y443790D01*
X616210Y442909D01*
X615586Y441828D01*
X615341Y440916D01*
X614841Y440982D01*
Y459017D01*
X615341Y459082D01*
X615586Y458172D01*
X616209Y457091D01*
X617091Y456210D01*
X618171Y455586D01*
X619376Y455263D01*
X620623D01*
X621828Y455586D01*
X622908Y456210D01*
X623790Y457091D01*
X624414Y458172D01*
X624737Y459376D01*
Y460624D01*
X624414Y461828D01*
X623790Y462909D01*
X622908Y463791D01*
X621828Y464414D01*
X620623Y464737D01*
X619376D01*
X618171Y464414D01*
X617091Y463791D01*
X616209Y462909D01*
X615586Y461828D01*
X615341Y460918D01*
X614841Y460983D01*
Y467995D01*
X623423Y476577D01*
X624193Y477579D01*
X624677Y478747D01*
X624841Y480000D01*
X624677Y481253D01*
X624193Y482421D01*
X623423Y483423D01*
X622421Y484193D01*
X621253Y484677D01*
X620000Y484841D01*
D02*
G37*
G36*
X400650Y434937D02*
X400500D01*
Y430500D01*
X404937D01*
Y430650D01*
X404601Y431906D01*
X403951Y433031D01*
X403031Y433951D01*
X401906Y434601D01*
X400650Y434937D01*
D02*
G37*
G36*
X399500D02*
X399350D01*
X398094Y434601D01*
X396969Y433951D01*
X396049Y433031D01*
X395399Y431906D01*
X395063Y430650D01*
Y430500D01*
X399500D01*
Y434937D01*
D02*
G37*
G36*
X590500Y427228D02*
Y425500D01*
X592228D01*
X591908Y426274D01*
X591274Y426907D01*
X590500Y427228D01*
D02*
G37*
G36*
X589500D02*
X588726Y426907D01*
X588093Y426274D01*
X587772Y425500D01*
X589500D01*
Y427228D01*
D02*
G37*
G36*
X540500D02*
Y425500D01*
X542228D01*
X541908Y426274D01*
X541274Y426907D01*
X540500Y427228D01*
D02*
G37*
G36*
X539500D02*
X538726Y426907D01*
X538093Y426274D01*
X537772Y425500D01*
X539500D01*
Y427228D01*
D02*
G37*
G36*
X500500D02*
Y425500D01*
X502228D01*
X501907Y426274D01*
X501274Y426907D01*
X500500Y427228D01*
D02*
G37*
G36*
X499500D02*
X498726Y426907D01*
X498093Y426274D01*
X497772Y425500D01*
X499500D01*
Y427228D01*
D02*
G37*
G36*
X404937Y429500D02*
X400500D01*
Y425063D01*
X400650D01*
X401906Y425399D01*
X403031Y426049D01*
X403951Y426969D01*
X404601Y428094D01*
X404937Y429350D01*
Y429500D01*
D02*
G37*
G36*
X399500D02*
X395063D01*
Y429350D01*
X395399Y428094D01*
X396049Y426969D01*
X396969Y426049D01*
X398094Y425399D01*
X399350Y425063D01*
X399500D01*
Y429500D01*
D02*
G37*
G36*
X592228Y424500D02*
X590500D01*
Y422772D01*
X591274Y423093D01*
X591908Y423726D01*
X592228Y424500D01*
D02*
G37*
G36*
X589500D02*
X587772D01*
X588093Y423726D01*
X588726Y423093D01*
X589500Y422772D01*
Y424500D01*
D02*
G37*
G36*
X542228D02*
X540500D01*
Y422772D01*
X541274Y423093D01*
X541908Y423726D01*
X542228Y424500D01*
D02*
G37*
G36*
X539500D02*
X537772D01*
X538093Y423726D01*
X538726Y423093D01*
X539500Y422772D01*
Y424500D01*
D02*
G37*
G36*
X502228D02*
X500500D01*
Y422772D01*
X501274Y423093D01*
X501907Y423726D01*
X502228Y424500D01*
D02*
G37*
G36*
X499500D02*
X497772D01*
X498093Y423726D01*
X498726Y423093D01*
X499500Y422772D01*
Y424500D01*
D02*
G37*
G36*
X620650Y424937D02*
X620500D01*
Y420500D01*
X624937D01*
Y420650D01*
X624601Y421906D01*
X623951Y423031D01*
X623031Y423951D01*
X621906Y424601D01*
X620650Y424937D01*
D02*
G37*
G36*
X560000Y484841D02*
X558747Y484676D01*
X557579Y484193D01*
X556577Y483423D01*
X555807Y482420D01*
X555324Y481253D01*
X555159Y480000D01*
Y454871D01*
X555145Y454365D01*
X555030Y453061D01*
X554842Y451932D01*
X554586Y450980D01*
X554270Y450208D01*
X553907Y449614D01*
X553508Y449184D01*
X553072Y448894D01*
X552579Y448720D01*
X551922Y448650D01*
X545814D01*
Y418704D01*
X574186D01*
Y448650D01*
X568078D01*
X567421Y448720D01*
X566928Y448894D01*
X566492Y449184D01*
X566093Y449614D01*
X565730Y450208D01*
X565414Y450980D01*
X565158Y451932D01*
X564970Y453061D01*
X564855Y454365D01*
X564841Y454871D01*
Y480000D01*
X564677Y481253D01*
X564193Y482420D01*
X563423Y483423D01*
X562421Y484193D01*
X561253Y484676D01*
X560000Y484841D01*
D02*
G37*
G36*
X510000Y484841D02*
X508747Y484677D01*
X507579Y484193D01*
X506577Y483423D01*
X505807Y482421D01*
X505324Y481253D01*
X505159Y480000D01*
Y462772D01*
X505324Y461519D01*
X505807Y460351D01*
X506577Y459348D01*
X506851Y459073D01*
Y443063D01*
X506893Y442748D01*
Y418704D01*
X535265D01*
Y448650D01*
X519771D01*
X519114Y448720D01*
X518620Y448894D01*
X518185Y449184D01*
X517786Y449614D01*
X517423Y450208D01*
X517107Y450980D01*
X516851Y451932D01*
X516663Y453061D01*
X516548Y454365D01*
X516534Y454871D01*
Y461079D01*
X516369Y462332D01*
X515886Y463499D01*
X515116Y464502D01*
X514841Y464777D01*
Y480000D01*
X514677Y481253D01*
X514193Y482421D01*
X513423Y483423D01*
X512421Y484193D01*
X511253Y484677D01*
X510000Y484841D01*
D02*
G37*
G36*
X460000D02*
X458747Y484677D01*
X457579Y484193D01*
X456577Y483423D01*
X455807Y482421D01*
X455324Y481253D01*
X455159Y480000D01*
Y456465D01*
X455324Y455211D01*
X455807Y454044D01*
X456577Y453041D01*
X462855Y446762D01*
X465293Y444138D01*
X466388Y442768D01*
X467257Y441519D01*
X467814Y440544D01*
Y436543D01*
X467810Y436525D01*
X467814Y436506D01*
Y418704D01*
X496186D01*
Y448650D01*
X479958D01*
X479940Y448654D01*
X479921Y448650D01*
X475920D01*
X474945Y449207D01*
X473706Y450070D01*
X470814Y452517D01*
X470254Y453058D01*
X464841Y458470D01*
Y480000D01*
X464677Y481253D01*
X464193Y482421D01*
X463423Y483423D01*
X462421Y484193D01*
X461253Y484677D01*
X460000Y484841D01*
D02*
G37*
G36*
X410000Y485828D02*
X400000D01*
X398863Y485716D01*
X397770Y485384D01*
X396762Y484846D01*
X395879Y484121D01*
X395154Y483238D01*
X394616Y482230D01*
X394284Y481137D01*
X394172Y480000D01*
X394284Y478863D01*
X394616Y477770D01*
X395154Y476762D01*
X395879Y475879D01*
X396762Y475154D01*
X397770Y474616D01*
X398863Y474284D01*
X400000Y474172D01*
X407586D01*
X414172Y467586D01*
Y454961D01*
X414284Y453824D01*
X414616Y452730D01*
X415154Y451723D01*
X415879Y450840D01*
X420172Y446547D01*
X423590Y442865D01*
X424969Y441142D01*
X426064Y439568D01*
X426791Y438296D01*
Y433234D01*
X426787Y433216D01*
X426791Y433197D01*
Y418224D01*
X455162D01*
Y448170D01*
X441763D01*
X441745Y448174D01*
X441726Y448170D01*
X436664D01*
X435393Y448897D01*
X433827Y449986D01*
X430200Y453055D01*
X428682Y454521D01*
X425828Y457375D01*
Y470000D01*
X425716Y471137D01*
X425384Y472230D01*
X424846Y473238D01*
X424121Y474121D01*
X414121Y484121D01*
X413238Y484846D01*
X412230Y485384D01*
X411137Y485716D01*
X410000Y485828D01*
D02*
G37*
G36*
X590500Y417228D02*
Y415500D01*
X592228D01*
X591908Y416274D01*
X591274Y416908D01*
X590500Y417228D01*
D02*
G37*
G36*
X589500D02*
X588726Y416908D01*
X588093Y416274D01*
X587772Y415500D01*
X589500D01*
Y417228D01*
D02*
G37*
G36*
X458000D02*
Y415500D01*
X459728D01*
X459408Y416274D01*
X458775Y416908D01*
X458000Y417228D01*
D02*
G37*
G36*
X457000D02*
X456225Y416908D01*
X455592Y416274D01*
X455272Y415500D01*
X457000D01*
Y417228D01*
D02*
G37*
G36*
X624937Y419500D02*
X620500D01*
Y415063D01*
X620650D01*
X621906Y415399D01*
X623031Y416049D01*
X623951Y416969D01*
X624601Y418094D01*
X624937Y419350D01*
Y419500D01*
D02*
G37*
G36*
X540500Y414728D02*
Y413000D01*
X542228D01*
X541908Y413774D01*
X541274Y414407D01*
X540500Y414728D01*
D02*
G37*
G36*
X539500D02*
X538726Y414407D01*
X538093Y413774D01*
X537772Y413000D01*
X539500D01*
Y414728D01*
D02*
G37*
G36*
X520500D02*
Y413000D01*
X522228D01*
X521908Y413774D01*
X521275Y414407D01*
X520500Y414728D01*
D02*
G37*
G36*
X519500D02*
X518725Y414407D01*
X518092Y413774D01*
X517772Y413000D01*
X519500D01*
Y414728D01*
D02*
G37*
G36*
X500500D02*
Y413000D01*
X502228D01*
X501907Y413774D01*
X501274Y414407D01*
X500500Y414728D01*
D02*
G37*
G36*
X499500D02*
X498726Y414407D01*
X498093Y413774D01*
X497772Y413000D01*
X499500D01*
Y414728D01*
D02*
G37*
G36*
X483000D02*
Y413000D01*
X484728D01*
X484408Y413774D01*
X483775Y414407D01*
X483000Y414728D01*
D02*
G37*
G36*
X482000D02*
X481225Y414407D01*
X480592Y413774D01*
X480272Y413000D01*
X482000D01*
Y414728D01*
D02*
G37*
G36*
X592228Y414500D02*
X590500D01*
Y412772D01*
X591274Y413093D01*
X591908Y413726D01*
X592228Y414500D01*
D02*
G37*
G36*
X589500D02*
X587772D01*
X588093Y413726D01*
X588726Y413093D01*
X589500Y412772D01*
Y414500D01*
D02*
G37*
G36*
X459728D02*
X458000D01*
Y412772D01*
X458775Y413093D01*
X459408Y413726D01*
X459728Y414500D01*
D02*
G37*
G36*
X457000D02*
X455272D01*
X455592Y413726D01*
X456225Y413093D01*
X457000Y412772D01*
Y414500D01*
D02*
G37*
G36*
X542228Y412000D02*
X540500D01*
Y410272D01*
X541274Y410593D01*
X541908Y411226D01*
X542228Y412000D01*
D02*
G37*
G36*
X539500D02*
X537772D01*
X538093Y411226D01*
X538726Y410593D01*
X539500Y410272D01*
Y412000D01*
D02*
G37*
G36*
X522228D02*
X520500D01*
Y410272D01*
X521275Y410593D01*
X521908Y411226D01*
X522228Y412000D01*
D02*
G37*
G36*
X519500D02*
X517772D01*
X518092Y411226D01*
X518725Y410593D01*
X519500Y410272D01*
Y412000D01*
D02*
G37*
G36*
X502228D02*
X500500D01*
Y410272D01*
X501274Y410593D01*
X501907Y411226D01*
X502228Y412000D01*
D02*
G37*
G36*
X499500D02*
X497772D01*
X498093Y411226D01*
X498726Y410593D01*
X499500Y410272D01*
Y412000D01*
D02*
G37*
G36*
X484728D02*
X483000D01*
Y410272D01*
X483775Y410593D01*
X484408Y411226D01*
X484728Y412000D01*
D02*
G37*
G36*
X482000D02*
X480272D01*
X480592Y411226D01*
X481225Y410593D01*
X482000Y410272D01*
Y412000D01*
D02*
G37*
G36*
X571846Y413811D02*
X569476D01*
Y408980D01*
X571846D01*
Y413811D01*
D02*
G37*
G36*
X493847D02*
X491476D01*
Y408980D01*
X493847D01*
Y413811D01*
D02*
G37*
G36*
X532925D02*
X530555D01*
Y408980D01*
X532925D01*
Y413811D01*
D02*
G37*
G36*
X529555D02*
X527185D01*
Y408980D01*
X529555D01*
Y413811D01*
D02*
G37*
G36*
X568476D02*
X566106D01*
Y408980D01*
X568476D01*
Y413811D01*
D02*
G37*
G36*
X490476D02*
X488106D01*
Y408980D01*
X490476D01*
Y413811D01*
D02*
G37*
G36*
X452823Y413331D02*
X450453D01*
Y408500D01*
X452823D01*
Y413331D01*
D02*
G37*
G36*
X449453D02*
X447083D01*
Y408500D01*
X449453D01*
Y413331D01*
D02*
G37*
G36*
X458000Y407228D02*
Y405500D01*
X459728D01*
X459408Y406275D01*
X458775Y406908D01*
X458000Y407228D01*
D02*
G37*
G36*
X457000D02*
X456225Y406908D01*
X455592Y406275D01*
X455272Y405500D01*
X457000D01*
Y407228D01*
D02*
G37*
G36*
X443000D02*
Y405500D01*
X444728D01*
X444408Y406275D01*
X443775Y406908D01*
X443000Y407228D01*
D02*
G37*
G36*
X442000D02*
X441225Y406908D01*
X440592Y406275D01*
X440272Y405500D01*
X442000D01*
Y407228D01*
D02*
G37*
G36*
X565594Y406870D02*
X563421D01*
Y404500D01*
X565594D01*
Y406870D01*
D02*
G37*
G36*
X487595D02*
X485421D01*
Y404500D01*
X487595D01*
Y406870D01*
D02*
G37*
G36*
X526673D02*
X524500D01*
Y404500D01*
X526673D01*
Y406870D01*
D02*
G37*
G36*
X571846Y407980D02*
X569476D01*
Y403150D01*
X571846D01*
Y407980D01*
D02*
G37*
G36*
X568476D02*
X566106D01*
Y403150D01*
X568476D01*
Y407980D01*
D02*
G37*
G36*
X532925D02*
X530555D01*
Y403150D01*
X532925D01*
Y407980D01*
D02*
G37*
G36*
X529555D02*
X527185D01*
Y403150D01*
X529555D01*
Y407980D01*
D02*
G37*
G36*
X493847D02*
X491476D01*
Y403150D01*
X493847D01*
Y407980D01*
D02*
G37*
G36*
X490476D02*
X488106D01*
Y403150D01*
X490476D01*
Y407980D01*
D02*
G37*
G36*
X590500Y404728D02*
Y403000D01*
X592228D01*
X591908Y403774D01*
X591274Y404408D01*
X590500Y404728D01*
D02*
G37*
G36*
X589500D02*
X588726Y404408D01*
X588093Y403774D01*
X587772Y403000D01*
X589500D01*
Y404728D01*
D02*
G37*
G36*
X540500D02*
Y403000D01*
X542228D01*
X541908Y403774D01*
X541274Y404408D01*
X540500Y404728D01*
D02*
G37*
G36*
X539500D02*
X538726Y404408D01*
X538093Y403774D01*
X537772Y403000D01*
X539500D01*
Y404728D01*
D02*
G37*
G36*
X459728Y404500D02*
X458000D01*
Y402772D01*
X458775Y403092D01*
X459408Y403725D01*
X459728Y404500D01*
D02*
G37*
G36*
X457000D02*
X455272D01*
X455592Y403725D01*
X456225Y403092D01*
X457000Y402772D01*
Y404500D01*
D02*
G37*
G36*
X444728D02*
X443000D01*
Y402772D01*
X443775Y403092D01*
X444408Y403725D01*
X444728Y404500D01*
D02*
G37*
G36*
X442000D02*
X440272D01*
X440592Y403725D01*
X441225Y403092D01*
X442000Y402772D01*
Y404500D01*
D02*
G37*
G36*
X452823Y407500D02*
X450453D01*
Y402669D01*
X452823D01*
Y407500D01*
D02*
G37*
G36*
X449453D02*
X447083D01*
Y402669D01*
X449453D01*
Y407500D01*
D02*
G37*
G36*
X565594Y403500D02*
X563421D01*
Y401130D01*
X565594D01*
Y403500D01*
D02*
G37*
G36*
X553694Y413611D02*
X548353D01*
Y403350D01*
X553694D01*
Y406674D01*
X555451D01*
X555501Y406624D01*
Y405173D01*
X555527Y405045D01*
Y401330D01*
X556674D01*
Y397751D01*
X556666Y397701D01*
X556655Y397654D01*
X556642Y397613D01*
X556627Y397580D01*
X556612Y397550D01*
X556595Y397524D01*
X556576Y397500D01*
X556529Y397450D01*
X556494Y397393D01*
X556262Y397161D01*
X555950Y396408D01*
Y395592D01*
X556262Y394839D01*
X556839Y394262D01*
X557592Y393950D01*
X558408D01*
X559161Y394262D01*
X559738Y394839D01*
X560050Y395592D01*
Y396408D01*
X559738Y397161D01*
X559506Y397393D01*
X559471Y397450D01*
X559424Y397500D01*
X559405Y397524D01*
X559388Y397550D01*
X559373Y397580D01*
X559358Y397614D01*
X559345Y397654D01*
X559334Y397701D01*
X559326Y397751D01*
Y401330D01*
X560248D01*
Y401130D01*
X562421D01*
Y404000D01*
Y406870D01*
X560248D01*
Y406670D01*
X558152D01*
Y407173D01*
X558051Y407681D01*
X557764Y408111D01*
X556937Y408937D01*
X556507Y409225D01*
X556000Y409326D01*
X553694D01*
Y413611D01*
D02*
G37*
G36*
X526673Y403500D02*
X524500D01*
Y401130D01*
X526673D01*
Y403500D01*
D02*
G37*
G36*
X514772Y413611D02*
X509432D01*
Y403350D01*
X514772D01*
Y406674D01*
X516107D01*
X516606Y406670D01*
Y403575D01*
X516602Y403556D01*
X516606Y403538D01*
Y403260D01*
X516572Y403212D01*
X516345Y402944D01*
X509748Y396346D01*
X509660Y396263D01*
X509457Y396089D01*
X509291Y395963D01*
X509240Y395929D01*
X509202Y395907D01*
X509152Y395883D01*
X509107Y395849D01*
X508839Y395738D01*
X508262Y395161D01*
X507950Y394408D01*
Y393592D01*
X508262Y392839D01*
X508839Y392262D01*
X509592Y391950D01*
X510408D01*
X511161Y392262D01*
X511738Y392839D01*
X512050Y393592D01*
Y394408D01*
X511908Y394751D01*
X511907Y394757D01*
X518178Y401028D01*
X518347Y401184D01*
X518478Y401290D01*
X518536Y401330D01*
X518813D01*
X518832Y401326D01*
X518850Y401330D01*
X521327D01*
Y401130D01*
X523500D01*
Y404000D01*
Y406870D01*
X521327D01*
Y406670D01*
X520404D01*
Y406921D01*
X520303Y407429D01*
X520016Y407859D01*
X518937Y408937D01*
X518507Y409225D01*
X518000Y409326D01*
X514772D01*
Y413611D01*
D02*
G37*
G36*
X487595Y403500D02*
X485421D01*
Y401130D01*
X487595D01*
Y403500D01*
D02*
G37*
G36*
X475694Y413611D02*
X470354D01*
Y404175D01*
X470350Y404156D01*
X470354Y404139D01*
Y403350D01*
X470675D01*
Y399751D01*
X470666Y399701D01*
X470655Y399654D01*
X470642Y399613D01*
X470627Y399580D01*
X470612Y399550D01*
X470595Y399524D01*
X470576Y399500D01*
X470529Y399450D01*
X470494Y399393D01*
X470262Y399161D01*
X469950Y398408D01*
Y397592D01*
X470262Y396839D01*
X470839Y396262D01*
X471592Y395950D01*
X472408D01*
X473161Y396262D01*
X473738Y396839D01*
X474050Y397592D01*
Y398408D01*
X473738Y399161D01*
X473506Y399393D01*
X473471Y399450D01*
X473424Y399500D01*
X473405Y399524D01*
X473388Y399550D01*
X473373Y399580D01*
X473358Y399613D01*
X473345Y399654D01*
X473334Y399701D01*
X473325Y399751D01*
Y403350D01*
X475694D01*
Y407155D01*
X476971D01*
X477501Y406624D01*
Y405173D01*
X477527Y405045D01*
Y401330D01*
X482248D01*
Y401130D01*
X484421D01*
Y404000D01*
Y406870D01*
X482248D01*
Y406670D01*
X480152D01*
Y407173D01*
X480051Y407681D01*
X479764Y408111D01*
X478457Y409418D01*
X478027Y409705D01*
X477520Y409806D01*
X475694D01*
Y413611D01*
D02*
G37*
G36*
X592228Y402000D02*
X590500D01*
Y400272D01*
X591274Y400593D01*
X591908Y401226D01*
X592228Y402000D01*
D02*
G37*
G36*
X589500D02*
X587772D01*
X588093Y401226D01*
X588726Y400593D01*
X589500Y400272D01*
Y402000D01*
D02*
G37*
G36*
X542228D02*
X540500D01*
Y400272D01*
X541274Y400593D01*
X541908Y401226D01*
X542228Y402000D01*
D02*
G37*
G36*
X539500D02*
X537772D01*
X538093Y401226D01*
X538726Y400593D01*
X539500Y400272D01*
Y402000D01*
D02*
G37*
G36*
X448000Y399728D02*
Y398000D01*
X449728D01*
X449407Y398775D01*
X448774Y399408D01*
X448000Y399728D01*
D02*
G37*
G36*
X447000D02*
X446226Y399408D01*
X445592Y398775D01*
X445272Y398000D01*
X447000D01*
Y399728D01*
D02*
G37*
G36*
X438000D02*
Y398000D01*
X439728D01*
X439407Y398775D01*
X438774Y399408D01*
X438000Y399728D01*
D02*
G37*
G36*
X437000D02*
X436226Y399408D01*
X435593Y398775D01*
X435272Y398000D01*
X437000D01*
Y399728D01*
D02*
G37*
G36*
X428000D02*
Y398000D01*
X429728D01*
X429408Y398775D01*
X428774Y399408D01*
X428000Y399728D01*
D02*
G37*
G36*
X427000D02*
X426226Y399408D01*
X425593Y398775D01*
X425272Y398000D01*
X427000D01*
Y399728D01*
D02*
G37*
G36*
X548000Y397228D02*
Y395500D01*
X549728D01*
X549407Y396274D01*
X548774Y396907D01*
X548000Y397228D01*
D02*
G37*
G36*
X547000D02*
X546226Y396907D01*
X545592Y396274D01*
X545272Y395500D01*
X547000D01*
Y397228D01*
D02*
G37*
G36*
X449728Y397000D02*
X448000D01*
Y395272D01*
X448774Y395592D01*
X449407Y396226D01*
X449728Y397000D01*
D02*
G37*
G36*
X447000D02*
X445272D01*
X445592Y396226D01*
X446226Y395592D01*
X447000Y395272D01*
Y397000D01*
D02*
G37*
G36*
X439728D02*
X438000D01*
Y395272D01*
X438774Y395592D01*
X439407Y396226D01*
X439728Y397000D01*
D02*
G37*
G36*
X437000D02*
X435272D01*
X435593Y396226D01*
X436226Y395592D01*
X437000Y395272D01*
Y397000D01*
D02*
G37*
G36*
X429728D02*
X428000D01*
Y395272D01*
X428774Y395592D01*
X429408Y396226D01*
X429728Y397000D01*
D02*
G37*
G36*
X427000D02*
X425272D01*
X425593Y396226D01*
X426226Y395592D01*
X427000Y395272D01*
Y397000D01*
D02*
G37*
G36*
X590500Y394728D02*
Y393000D01*
X592228D01*
X591908Y393775D01*
X591274Y394408D01*
X590500Y394728D01*
D02*
G37*
G36*
X589500D02*
X588726Y394408D01*
X588093Y393775D01*
X587772Y393000D01*
X589500D01*
Y394728D01*
D02*
G37*
G36*
X549728Y394500D02*
X548000D01*
Y392772D01*
X548774Y393092D01*
X549407Y393725D01*
X549728Y394500D01*
D02*
G37*
G36*
X547000D02*
X545272D01*
X545592Y393725D01*
X546226Y393092D01*
X547000Y392772D01*
Y394500D01*
D02*
G37*
G36*
X565500Y392228D02*
Y390500D01*
X567228D01*
X566908Y391274D01*
X566274Y391908D01*
X565500Y392228D01*
D02*
G37*
G36*
X564500D02*
X563726Y391908D01*
X563093Y391274D01*
X562772Y390500D01*
X564500D01*
Y392228D01*
D02*
G37*
G36*
X503000D02*
Y390500D01*
X504728D01*
X504408Y391274D01*
X503774Y391908D01*
X503000Y392228D01*
D02*
G37*
G36*
X502000D02*
X501226Y391908D01*
X500593Y391274D01*
X500272Y390500D01*
X502000D01*
Y392228D01*
D02*
G37*
G36*
X495500D02*
Y390500D01*
X497228D01*
X496908Y391274D01*
X496275Y391908D01*
X495500Y392228D01*
D02*
G37*
G36*
X494500D02*
X493725Y391908D01*
X493092Y391274D01*
X492772Y390500D01*
X494500D01*
Y392228D01*
D02*
G37*
G36*
X592228Y392000D02*
X590500D01*
Y390272D01*
X591274Y390593D01*
X591908Y391226D01*
X592228Y392000D01*
D02*
G37*
G36*
X589500D02*
X587772D01*
X588093Y391226D01*
X588726Y390593D01*
X589500Y390272D01*
Y392000D01*
D02*
G37*
G36*
X504728Y389500D02*
X503000D01*
Y387772D01*
X503774Y388092D01*
X504408Y388725D01*
X504728Y389500D01*
D02*
G37*
G36*
X502000D02*
X500272D01*
X500593Y388725D01*
X501226Y388092D01*
X502000Y387772D01*
Y389500D01*
D02*
G37*
G36*
X497228D02*
X495500D01*
Y387772D01*
X496275Y388092D01*
X496908Y388725D01*
X497228Y389500D01*
D02*
G37*
G36*
X494500D02*
X492772D01*
X493092Y388725D01*
X493725Y388092D01*
X494500Y387772D01*
Y389500D01*
D02*
G37*
G36*
X477642Y386888D02*
X476961D01*
Y383500D01*
X481463D01*
X481397Y384006D01*
X481008Y384944D01*
X480391Y385749D01*
X479586Y386367D01*
X478648Y386755D01*
X477642Y386888D01*
D02*
G37*
G36*
X475961D02*
X475280D01*
X474273Y386755D01*
X473336Y386367D01*
X472531Y385749D01*
X471913Y384944D01*
X471524Y384006D01*
X471458Y383500D01*
X475961D01*
Y386888D01*
D02*
G37*
G36*
X400650Y384937D02*
X400500D01*
Y380500D01*
X404937D01*
Y380650D01*
X404601Y381906D01*
X403951Y383031D01*
X403031Y383951D01*
X401906Y384601D01*
X400650Y384937D01*
D02*
G37*
G36*
X418000Y382228D02*
Y380500D01*
X419728D01*
X419408Y381275D01*
X418775Y381908D01*
X418000Y382228D01*
D02*
G37*
G36*
X417000D02*
X416225Y381908D01*
X415592Y381275D01*
X415272Y380500D01*
X417000D01*
Y382228D01*
D02*
G37*
G36*
X399500Y384937D02*
X399350D01*
X398094Y384601D01*
X396969Y383951D01*
X396049Y383031D01*
X395399Y381906D01*
X395063Y380650D01*
Y380500D01*
X399500D01*
Y384937D01*
D02*
G37*
G36*
X400623Y414737D02*
X399376D01*
X398171Y414414D01*
X397091Y413791D01*
X396209Y412909D01*
X395585Y411828D01*
X395263Y410624D01*
Y409376D01*
X395585Y408172D01*
X396209Y407091D01*
X397091Y406210D01*
X398171Y405586D01*
X399294Y405285D01*
X424290Y380290D01*
X425083Y379681D01*
X426008Y379298D01*
X427000Y379167D01*
X441815D01*
X442807Y379298D01*
X442846Y379314D01*
X442996D01*
X443950Y379440D01*
X444839Y379808D01*
X445602Y380394D01*
X446188Y381157D01*
X446556Y382046D01*
X446682Y383000D01*
X446556Y383954D01*
X446188Y384843D01*
X445602Y385606D01*
X444839Y386192D01*
X443950Y386560D01*
X442996Y386686D01*
X442846D01*
X442807Y386702D01*
X441815Y386833D01*
X428587D01*
X404715Y410705D01*
X404414Y411828D01*
X403790Y412909D01*
X402908Y413791D01*
X401828Y414414D01*
X400623Y414737D01*
D02*
G37*
G36*
X481463Y382500D02*
X476961D01*
Y379112D01*
X477642D01*
X478648Y379245D01*
X479586Y379633D01*
X480391Y380251D01*
X481008Y381056D01*
X481397Y381994D01*
X481463Y382500D01*
D02*
G37*
G36*
X475961D02*
X471458D01*
X471524Y381994D01*
X471913Y381056D01*
X472531Y380251D01*
X473336Y379633D01*
X474273Y379245D01*
X475280Y379112D01*
X475961D01*
Y382500D01*
D02*
G37*
G36*
X419728Y379500D02*
X418000D01*
Y377772D01*
X418775Y378093D01*
X419408Y378726D01*
X419728Y379500D01*
D02*
G37*
G36*
X417000D02*
X415272D01*
X415592Y378726D01*
X416225Y378093D01*
X417000Y377772D01*
Y379500D01*
D02*
G37*
G36*
X404937D02*
X400500D01*
Y375063D01*
X400650D01*
X401906Y375399D01*
X403031Y376049D01*
X403951Y376969D01*
X404601Y378094D01*
X404937Y379350D01*
Y379500D01*
D02*
G37*
G36*
X399500D02*
X395063D01*
Y379350D01*
X395399Y378094D01*
X396049Y376969D01*
X396969Y376049D01*
X398094Y375399D01*
X399350Y375063D01*
X399500D01*
Y379500D01*
D02*
G37*
G36*
X600500Y374728D02*
Y373000D01*
X602228D01*
X601907Y373775D01*
X601274Y374408D01*
X600500Y374728D01*
D02*
G37*
G36*
X599500D02*
X598726Y374408D01*
X598093Y373775D01*
X597772Y373000D01*
X599500D01*
Y374728D01*
D02*
G37*
G36*
X590500D02*
Y373000D01*
X592228D01*
X591908Y373775D01*
X591274Y374408D01*
X590500Y374728D01*
D02*
G37*
G36*
X589500D02*
X588726Y374408D01*
X588093Y373775D01*
X587772Y373000D01*
X589500D01*
Y374728D01*
D02*
G37*
G36*
X565500D02*
Y373000D01*
X567228D01*
X566908Y373775D01*
X566274Y374408D01*
X565500Y374728D01*
D02*
G37*
G36*
X564500D02*
X563726Y374408D01*
X563093Y373775D01*
X562772Y373000D01*
X564500D01*
Y374728D01*
D02*
G37*
G36*
X555500D02*
Y373000D01*
X557228D01*
X556908Y373775D01*
X556275Y374408D01*
X555500Y374728D01*
D02*
G37*
G36*
X554500D02*
X553725Y374408D01*
X553092Y373775D01*
X552772Y373000D01*
X554500D01*
Y374728D01*
D02*
G37*
G36*
X544369Y376000D02*
X544343D01*
Y372500D01*
X547843D01*
Y372527D01*
X547570Y373544D01*
X547043Y374456D01*
X546299Y375201D01*
X545387Y375727D01*
X544369Y376000D01*
D02*
G37*
G36*
X543342D02*
X543316D01*
X542299Y375727D01*
X541387Y375201D01*
X540642Y374456D01*
X540115Y373544D01*
X539843Y372527D01*
Y372500D01*
X543342D01*
Y376000D01*
D02*
G37*
G36*
X488670Y376934D02*
X483330D01*
Y370865D01*
X481651D01*
X481093Y371423D01*
X481045Y371480D01*
X480995Y371546D01*
X481202Y372046D01*
X481328Y373000D01*
X481202Y373954D01*
X480834Y374843D01*
X480248Y375606D01*
X479485Y376192D01*
X478596Y376560D01*
X477642Y376686D01*
X475280D01*
X474326Y376560D01*
X473437Y376192D01*
X472673Y375606D01*
X472087Y374843D01*
X471719Y373954D01*
X471594Y373000D01*
X471719Y372046D01*
X472087Y371157D01*
X472673Y370394D01*
X473437Y369808D01*
X474326Y369440D01*
X475280Y369314D01*
X477642D01*
X478596Y369440D01*
X479096Y369647D01*
X479162Y369597D01*
X479219Y369549D01*
X480165Y368602D01*
X480595Y368315D01*
X481102Y368214D01*
X483330D01*
Y367066D01*
X488260D01*
Y364135D01*
X485451Y361326D01*
X469751D01*
X469701Y361334D01*
X469654Y361345D01*
X469613Y361358D01*
X469580Y361373D01*
X469550Y361388D01*
X469524Y361405D01*
X469500Y361424D01*
X469450Y361471D01*
X469393Y361506D01*
X469161Y361738D01*
X468408Y362050D01*
X467592D01*
X466839Y361738D01*
X466262Y361161D01*
X465950Y360408D01*
Y359592D01*
X466262Y358839D01*
X466839Y358262D01*
X467592Y357950D01*
X468408D01*
X469161Y358262D01*
X469393Y358494D01*
X469450Y358529D01*
X469500Y358576D01*
X469524Y358595D01*
X469550Y358612D01*
X469580Y358627D01*
X469614Y358642D01*
X469654Y358655D01*
X469701Y358666D01*
X469751Y358675D01*
X486000D01*
X486507Y358775D01*
X486937Y359063D01*
X490523Y362649D01*
X490810Y363078D01*
X490911Y363586D01*
Y371335D01*
X490810Y371843D01*
X490523Y372273D01*
X489346Y373450D01*
X488916Y373737D01*
X488765Y373767D01*
X488670Y373862D01*
Y376934D01*
D02*
G37*
G36*
X602228Y372000D02*
X600500D01*
Y370272D01*
X601274Y370592D01*
X601907Y371226D01*
X602228Y372000D01*
D02*
G37*
G36*
X599500D02*
X597772D01*
X598093Y371226D01*
X598726Y370592D01*
X599500Y370272D01*
Y372000D01*
D02*
G37*
G36*
X592228D02*
X590500D01*
Y370272D01*
X591274Y370592D01*
X591908Y371226D01*
X592228Y372000D01*
D02*
G37*
G36*
X589500D02*
X587772D01*
X588093Y371226D01*
X588726Y370592D01*
X589500Y370272D01*
Y372000D01*
D02*
G37*
G36*
X567228D02*
X565500D01*
Y370272D01*
X566274Y370592D01*
X566908Y371226D01*
X567228Y372000D01*
D02*
G37*
G36*
X564500D02*
X562772D01*
X563093Y371226D01*
X563726Y370592D01*
X564500Y370272D01*
Y372000D01*
D02*
G37*
G36*
X557228D02*
X555500D01*
Y370272D01*
X556275Y370592D01*
X556908Y371226D01*
X557228Y372000D01*
D02*
G37*
G36*
X554500D02*
X552772D01*
X553092Y371226D01*
X553725Y370592D01*
X554500Y370272D01*
Y372000D01*
D02*
G37*
G36*
X547843Y371500D02*
X544343D01*
Y368000D01*
X544369D01*
X545387Y368273D01*
X546299Y368799D01*
X547043Y369544D01*
X547570Y370456D01*
X547843Y371473D01*
Y371500D01*
D02*
G37*
G36*
X543342D02*
X539843D01*
Y371473D01*
X540115Y370456D01*
X540642Y369544D01*
X541387Y368799D01*
X542299Y368273D01*
X543316Y368000D01*
X543342D01*
Y371500D01*
D02*
G37*
G36*
X463000Y362228D02*
Y360500D01*
X464728D01*
X464407Y361275D01*
X463774Y361908D01*
X463000Y362228D01*
D02*
G37*
G36*
X462000D02*
X461226Y361908D01*
X460593Y361275D01*
X460272Y360500D01*
X462000D01*
Y362228D01*
D02*
G37*
G36*
X443000D02*
Y360500D01*
X444728D01*
X444408Y361275D01*
X443775Y361908D01*
X443000Y362228D01*
D02*
G37*
G36*
X442000D02*
X441225Y361908D01*
X440592Y361275D01*
X440272Y360500D01*
X442000D01*
Y362228D01*
D02*
G37*
G36*
X464728Y359500D02*
X463000D01*
Y357772D01*
X463774Y358092D01*
X464407Y358726D01*
X464728Y359500D01*
D02*
G37*
G36*
X462000D02*
X460272D01*
X460593Y358726D01*
X461226Y358092D01*
X462000Y357772D01*
Y359500D01*
D02*
G37*
G36*
X444728D02*
X443000D01*
Y357772D01*
X443775Y358092D01*
X444408Y358726D01*
X444728Y359500D01*
D02*
G37*
G36*
X442000D02*
X440272D01*
X440592Y358726D01*
X441225Y358092D01*
X442000Y357772D01*
Y359500D01*
D02*
G37*
G36*
X543000Y357228D02*
Y355500D01*
X544728D01*
X544408Y356275D01*
X543775Y356908D01*
X543000Y357228D01*
D02*
G37*
G36*
X542000D02*
X541225Y356908D01*
X540592Y356275D01*
X540272Y355500D01*
X542000D01*
Y357228D01*
D02*
G37*
G36*
X620623Y364737D02*
X619376D01*
X618171Y364414D01*
X617091Y363790D01*
X616209Y362909D01*
X615586Y361828D01*
X615263Y360624D01*
Y359376D01*
X615586Y358172D01*
X616209Y357091D01*
X617091Y356209D01*
X618171Y355586D01*
X619376Y355263D01*
X620623D01*
X621828Y355586D01*
X622908Y356209D01*
X623790Y357091D01*
X624414Y358172D01*
X624737Y359376D01*
Y360624D01*
X624414Y361828D01*
X623790Y362909D01*
X622908Y363790D01*
X621828Y364414D01*
X620623Y364737D01*
D02*
G37*
G36*
X544728Y354500D02*
X543000D01*
Y352772D01*
X543775Y353093D01*
X544408Y353726D01*
X544728Y354500D01*
D02*
G37*
G36*
X542000D02*
X540272D01*
X540592Y353726D01*
X541225Y353093D01*
X542000Y352772D01*
Y354500D01*
D02*
G37*
G36*
X423000Y349728D02*
Y348000D01*
X424728D01*
X424407Y348775D01*
X423774Y349408D01*
X423000Y349728D01*
D02*
G37*
G36*
X422000D02*
X421226Y349408D01*
X420592Y348775D01*
X420272Y348000D01*
X422000D01*
Y349728D01*
D02*
G37*
G36*
X477642Y350888D02*
X476961D01*
Y347500D01*
X481463D01*
X481397Y348006D01*
X481008Y348944D01*
X480391Y349749D01*
X479586Y350367D01*
X478648Y350755D01*
X477642Y350888D01*
D02*
G37*
G36*
X475961D02*
X475280D01*
X474273Y350755D01*
X473336Y350367D01*
X472531Y349749D01*
X471913Y348944D01*
X471524Y348006D01*
X471458Y347500D01*
X475961D01*
Y350888D01*
D02*
G37*
G36*
X543000Y347228D02*
Y345500D01*
X544728D01*
X544408Y346274D01*
X543775Y346907D01*
X543000Y347228D01*
D02*
G37*
G36*
X542000D02*
X541225Y346907D01*
X540592Y346274D01*
X540272Y345500D01*
X542000D01*
Y347228D01*
D02*
G37*
G36*
X424728Y347000D02*
X423000D01*
Y345272D01*
X423774Y345592D01*
X424407Y346226D01*
X424728Y347000D01*
D02*
G37*
G36*
X422000D02*
X420272D01*
X420592Y346226D01*
X421226Y345592D01*
X422000Y345272D01*
Y347000D01*
D02*
G37*
G36*
X400623Y364737D02*
X399376D01*
X398171Y364414D01*
X397091Y363790D01*
X396209Y362909D01*
X395585Y361828D01*
X395263Y360624D01*
Y359376D01*
X395585Y358172D01*
X396209Y357091D01*
X397091Y356209D01*
X398171Y355586D01*
X399376Y355263D01*
X400623D01*
X401828Y355586D01*
X402835Y356167D01*
X426338D01*
X437752Y344753D01*
X438028Y344394D01*
X438791Y343808D01*
X438904Y343761D01*
X439009Y343681D01*
X439933Y343298D01*
X440925Y343167D01*
X441815D01*
X442807Y343298D01*
X442846Y343314D01*
X442996D01*
X443950Y343440D01*
X444839Y343808D01*
X445602Y344394D01*
X446188Y345157D01*
X446556Y346046D01*
X446682Y347000D01*
X446556Y347954D01*
X446188Y348843D01*
X445602Y349606D01*
X444839Y350192D01*
X444460Y350349D01*
X444365Y350406D01*
X444035Y350525D01*
X443950Y350560D01*
X443932Y350563D01*
X443513Y350757D01*
X442496Y351363D01*
X441967Y351737D01*
X439426Y353920D01*
X430635Y362710D01*
X429842Y363319D01*
X428917Y363702D01*
X427925Y363833D01*
X402835D01*
X401828Y364414D01*
X400623Y364737D01*
D02*
G37*
G36*
X481463Y346500D02*
X476961D01*
Y343112D01*
X477642D01*
X478648Y343245D01*
X479586Y343633D01*
X480391Y344251D01*
X481008Y345056D01*
X481397Y345994D01*
X481463Y346500D01*
D02*
G37*
G36*
X475961D02*
X471458D01*
X471524Y345994D01*
X471913Y345056D01*
X472531Y344251D01*
X473336Y343633D01*
X474273Y343245D01*
X475280Y343112D01*
X475961D01*
Y346500D01*
D02*
G37*
G36*
X544728Y344500D02*
X543000D01*
Y342772D01*
X543775Y343092D01*
X544408Y343725D01*
X544728Y344500D01*
D02*
G37*
G36*
X542000D02*
X540272D01*
X540592Y343725D01*
X541225Y343092D01*
X542000Y342772D01*
Y344500D01*
D02*
G37*
G36*
X543000Y337228D02*
Y335500D01*
X544728D01*
X544408Y336275D01*
X543775Y336908D01*
X543000Y337228D01*
D02*
G37*
G36*
X542000D02*
X541225Y336908D01*
X540592Y336275D01*
X540272Y335500D01*
X542000D01*
Y337228D01*
D02*
G37*
G36*
X620624Y344737D02*
X619376D01*
X618172Y344414D01*
X617091Y343791D01*
X616210Y342909D01*
X615586Y341828D01*
X615263Y340624D01*
Y339376D01*
X615586Y338172D01*
X616210Y337091D01*
X617091Y336210D01*
X618172Y335586D01*
X619376Y335263D01*
X620624D01*
X621828Y335586D01*
X622909Y336210D01*
X623791Y337091D01*
X624414Y338172D01*
X624737Y339376D01*
Y340624D01*
X624414Y341828D01*
X623791Y342909D01*
X622909Y343791D01*
X621828Y344414D01*
X620624Y344737D01*
D02*
G37*
G36*
X488670Y340934D02*
X483330D01*
Y334865D01*
X481651D01*
X481093Y335423D01*
X481045Y335480D01*
X480995Y335546D01*
X481202Y336046D01*
X481328Y337000D01*
X481202Y337954D01*
X480834Y338843D01*
X480248Y339606D01*
X479485Y340192D01*
X478596Y340560D01*
X477642Y340686D01*
X475280D01*
X474326Y340560D01*
X473437Y340192D01*
X472673Y339606D01*
X472087Y338843D01*
X471719Y337954D01*
X471594Y337000D01*
X471719Y336046D01*
X472087Y335157D01*
X472673Y334394D01*
X473437Y333808D01*
X474326Y333440D01*
X475280Y333314D01*
X477642D01*
X478596Y333440D01*
X479096Y333647D01*
X479162Y333597D01*
X479219Y333549D01*
X480165Y332602D01*
X480595Y332315D01*
X481102Y332214D01*
X483330D01*
Y331066D01*
X488670D01*
Y333723D01*
X489132Y333915D01*
X492260Y330786D01*
Y330135D01*
X489451Y327326D01*
X467751D01*
X467701Y327334D01*
X467654Y327345D01*
X467613Y327358D01*
X467580Y327373D01*
X467550Y327388D01*
X467524Y327405D01*
X467500Y327424D01*
X467450Y327471D01*
X467393Y327506D01*
X467161Y327738D01*
X466408Y328050D01*
X465592D01*
X464839Y327738D01*
X464262Y327161D01*
X463950Y326408D01*
Y325592D01*
X464262Y324839D01*
X464839Y324262D01*
X465592Y323950D01*
X466408D01*
X467161Y324262D01*
X467393Y324494D01*
X467450Y324529D01*
X467500Y324576D01*
X467524Y324595D01*
X467550Y324612D01*
X467580Y324627D01*
X467614Y324642D01*
X467654Y324655D01*
X467701Y324666D01*
X467751Y324675D01*
X490000D01*
X490507Y324775D01*
X490937Y325063D01*
X494523Y328648D01*
X494810Y329079D01*
X494911Y329586D01*
Y331335D01*
X494810Y331843D01*
X494523Y332273D01*
X489346Y337450D01*
X488916Y337737D01*
X488765Y337767D01*
X488670Y337862D01*
Y340934D01*
D02*
G37*
G36*
X544728Y334500D02*
X543000D01*
Y332772D01*
X543775Y333092D01*
X544408Y333726D01*
X544728Y334500D01*
D02*
G37*
G36*
X542000D02*
X540272D01*
X540592Y333726D01*
X541225Y333092D01*
X542000Y332772D01*
Y334500D01*
D02*
G37*
G36*
X460500Y327228D02*
Y325500D01*
X462228D01*
X461907Y326274D01*
X461274Y326907D01*
X460500Y327228D01*
D02*
G37*
G36*
X459500D02*
X458726Y326907D01*
X458092Y326274D01*
X457772Y325500D01*
X459500D01*
Y327228D01*
D02*
G37*
G36*
X443000D02*
Y325500D01*
X444728D01*
X444408Y326274D01*
X443775Y326907D01*
X443000Y327228D01*
D02*
G37*
G36*
X442000D02*
X441225Y326907D01*
X440592Y326274D01*
X440272Y325500D01*
X442000D01*
Y327228D01*
D02*
G37*
G36*
X423000D02*
Y325500D01*
X424728D01*
X424407Y326274D01*
X423774Y326907D01*
X423000Y327228D01*
D02*
G37*
G36*
X422000D02*
X421226Y326907D01*
X420592Y326274D01*
X420272Y325500D01*
X422000D01*
Y327228D01*
D02*
G37*
G36*
X462228Y324500D02*
X460500D01*
Y322772D01*
X461274Y323093D01*
X461907Y323726D01*
X462228Y324500D01*
D02*
G37*
G36*
X459500D02*
X457772D01*
X458092Y323726D01*
X458726Y323093D01*
X459500Y322772D01*
Y324500D01*
D02*
G37*
G36*
X444728D02*
X443000D01*
Y322772D01*
X443775Y323093D01*
X444408Y323726D01*
X444728Y324500D01*
D02*
G37*
G36*
X442000D02*
X440272D01*
X440592Y323726D01*
X441225Y323093D01*
X442000Y322772D01*
Y324500D01*
D02*
G37*
G36*
X424728D02*
X423000D01*
Y322772D01*
X423774Y323093D01*
X424407Y323726D01*
X424728Y324500D01*
D02*
G37*
G36*
X422000D02*
X420272D01*
X420592Y323726D01*
X421226Y323093D01*
X422000Y322772D01*
Y324500D01*
D02*
G37*
G36*
X620650Y324937D02*
X620500D01*
Y320500D01*
X624937D01*
Y320650D01*
X624601Y321906D01*
X623951Y323031D01*
X623031Y323951D01*
X621906Y324601D01*
X620650Y324937D01*
D02*
G37*
G36*
X400650D02*
X400500D01*
Y320500D01*
X404937D01*
Y320650D01*
X404601Y321906D01*
X403951Y323031D01*
X403031Y323951D01*
X401906Y324601D01*
X400650Y324937D01*
D02*
G37*
G36*
X523000Y322228D02*
Y320500D01*
X524728D01*
X524407Y321274D01*
X523774Y321907D01*
X523000Y322228D01*
D02*
G37*
G36*
X522000D02*
X521226Y321907D01*
X520592Y321274D01*
X520272Y320500D01*
X522000D01*
Y322228D01*
D02*
G37*
G36*
X510500D02*
Y320500D01*
X512228D01*
X511907Y321274D01*
X511274Y321907D01*
X510500Y322228D01*
D02*
G37*
G36*
X509500D02*
X508726Y321907D01*
X508092Y321274D01*
X507772Y320500D01*
X509500D01*
Y322228D01*
D02*
G37*
G36*
X399500Y324937D02*
X399350D01*
X398094Y324601D01*
X396969Y323951D01*
X396049Y323031D01*
X395399Y321906D01*
X395063Y320650D01*
Y320500D01*
X399500D01*
Y324937D01*
D02*
G37*
G36*
X619500D02*
X619350D01*
X618094Y324601D01*
X616969Y323951D01*
X616049Y323031D01*
X615399Y321906D01*
X615063Y320650D01*
Y320500D01*
X619500D01*
Y324937D01*
D02*
G37*
G36*
X524728Y319500D02*
X523000D01*
Y317772D01*
X523774Y318092D01*
X524407Y318725D01*
X524728Y319500D01*
D02*
G37*
G36*
X522000D02*
X520272D01*
X520592Y318725D01*
X521226Y318092D01*
X522000Y317772D01*
Y319500D01*
D02*
G37*
G36*
X512228D02*
X510500D01*
Y317772D01*
X511274Y318092D01*
X511907Y318725D01*
X512228Y319500D01*
D02*
G37*
G36*
X509500D02*
X507772D01*
X508092Y318725D01*
X508726Y318092D01*
X509500Y317772D01*
Y319500D01*
D02*
G37*
G36*
X597500Y365816D02*
X550000D01*
X549688Y365754D01*
X549423Y365577D01*
X549246Y365312D01*
X549184Y365000D01*
Y335347D01*
X527832Y314816D01*
X504000D01*
X503688Y314754D01*
X503423Y314577D01*
X503246Y314312D01*
X503184Y314000D01*
Y257500D01*
X503246Y257188D01*
X503423Y256923D01*
X503688Y256746D01*
X504000Y256684D01*
X540000D01*
X540312Y256746D01*
X540577Y256923D01*
X540754Y257188D01*
X540816Y257500D01*
Y290000D01*
Y294662D01*
X542709Y296555D01*
X543092Y296274D01*
X542772Y295500D01*
X544500D01*
Y297228D01*
X543725Y296907D01*
X543445Y297291D01*
X547709Y301555D01*
X548093Y301274D01*
X547772Y300500D01*
X549500D01*
Y302228D01*
X548726Y301907D01*
X548445Y302291D01*
X562841Y316687D01*
X563017Y316952D01*
X563080Y317264D01*
X563040Y317464D01*
X563314Y317964D01*
X594484D01*
X594869Y317608D01*
X594900Y317532D01*
X594916Y317452D01*
X594959Y317386D01*
X594989Y317314D01*
X595047Y317255D01*
X595093Y317187D01*
X595158Y317143D01*
X595213Y317088D01*
X595604Y316824D01*
X595680Y316792D01*
X595748Y316746D01*
X595825Y316731D01*
X595897Y316701D01*
X595979Y316700D01*
X596060Y316684D01*
X597500D01*
X597812Y316746D01*
X598077Y316923D01*
X598254Y317188D01*
X598316Y317500D01*
Y365000D01*
X598254Y365312D01*
X598077Y365577D01*
X597812Y365754D01*
X597500Y365816D01*
D02*
G37*
G36*
X476850Y317846D02*
X472020D01*
Y315476D01*
X476850D01*
Y317846D01*
D02*
G37*
G36*
X471020D02*
X466189D01*
Y315476D01*
X471020D01*
Y317846D01*
D02*
G37*
G36*
X624937Y319500D02*
X620500D01*
Y315063D01*
X620650D01*
X621906Y315399D01*
X623031Y316049D01*
X623951Y316969D01*
X624601Y318094D01*
X624937Y319350D01*
Y319500D01*
D02*
G37*
G36*
X619500D02*
X615063D01*
Y319350D01*
X615399Y318094D01*
X616049Y316969D01*
X616969Y316049D01*
X618094Y315399D01*
X619350Y315063D01*
X619500D01*
Y319500D01*
D02*
G37*
G36*
X404937D02*
X400500D01*
Y315063D01*
X400650D01*
X401906Y315399D01*
X403031Y316049D01*
X403951Y316969D01*
X404601Y318094D01*
X404937Y319350D01*
Y319500D01*
D02*
G37*
G36*
X399500D02*
X395063D01*
Y319350D01*
X395399Y318094D01*
X396049Y316969D01*
X396969Y316049D01*
X398094Y315399D01*
X399350Y315063D01*
X399500D01*
Y319500D01*
D02*
G37*
G36*
X593000Y314728D02*
Y313000D01*
X594728D01*
X594408Y313774D01*
X593775Y314407D01*
X593000Y314728D01*
D02*
G37*
G36*
X592000D02*
X591225Y314407D01*
X590592Y313774D01*
X590272Y313000D01*
X592000D01*
Y314728D01*
D02*
G37*
G36*
X575500D02*
Y313000D01*
X577228D01*
X576907Y313774D01*
X576274Y314407D01*
X575500Y314728D01*
D02*
G37*
G36*
X574500D02*
X573726Y314407D01*
X573093Y313774D01*
X572772Y313000D01*
X574500D01*
Y314728D01*
D02*
G37*
G36*
X476850Y314476D02*
X472020D01*
Y312106D01*
X476850D01*
Y314476D01*
D02*
G37*
G36*
X471020D02*
X466189D01*
Y312106D01*
X471020D01*
Y314476D01*
D02*
G37*
G36*
X594728Y312000D02*
X593000D01*
Y310272D01*
X593775Y310593D01*
X594408Y311226D01*
X594728Y312000D01*
D02*
G37*
G36*
X592000D02*
X590272D01*
X590592Y311226D01*
X591225Y310593D01*
X592000Y310272D01*
Y312000D01*
D02*
G37*
G36*
X577228D02*
X575500D01*
Y310272D01*
X576274Y310593D01*
X576907Y311226D01*
X577228Y312000D01*
D02*
G37*
G36*
X574500D02*
X572772D01*
X573093Y311226D01*
X573726Y310593D01*
X574500Y310272D01*
Y312000D01*
D02*
G37*
G36*
X478870Y311595D02*
X476500D01*
Y309421D01*
X478870D01*
Y311595D01*
D02*
G37*
G36*
X475500D02*
X473130D01*
Y309421D01*
X475500D01*
Y311595D01*
D02*
G37*
G36*
X500500Y309728D02*
Y308000D01*
X502228D01*
X501907Y308774D01*
X501274Y309407D01*
X500500Y309728D01*
D02*
G37*
G36*
X499500D02*
X498726Y309407D01*
X498093Y308774D01*
X497772Y308000D01*
X499500D01*
Y309728D01*
D02*
G37*
G36*
X593000Y307228D02*
Y305500D01*
X594728D01*
X594408Y306275D01*
X593775Y306908D01*
X593000Y307228D01*
D02*
G37*
G36*
X592000D02*
X591225Y306908D01*
X590592Y306275D01*
X590272Y305500D01*
X592000D01*
Y307228D01*
D02*
G37*
G36*
X575500D02*
Y305500D01*
X577228D01*
X576907Y306275D01*
X576274Y306908D01*
X575500Y307228D01*
D02*
G37*
G36*
X574500D02*
X573726Y306908D01*
X573093Y306275D01*
X572772Y305500D01*
X574500D01*
Y307228D01*
D02*
G37*
G36*
X502228Y307000D02*
X500500D01*
Y305272D01*
X501274Y305592D01*
X501907Y306225D01*
X502228Y307000D01*
D02*
G37*
G36*
X499500D02*
X497772D01*
X498093Y306225D01*
X498726Y305592D01*
X499500Y305272D01*
Y307000D01*
D02*
G37*
G36*
X567067Y313465D02*
X564500D01*
Y304500D01*
X567067D01*
Y313465D01*
D02*
G37*
G36*
X587067D02*
X584500D01*
Y304500D01*
X587067D01*
Y313465D01*
D02*
G37*
G36*
X563500D02*
X560933D01*
Y304500D01*
X563500D01*
Y313465D01*
D02*
G37*
G36*
X583500D02*
X580933D01*
Y304500D01*
X583500D01*
Y313465D01*
D02*
G37*
G36*
X594728Y304500D02*
X593000D01*
Y302772D01*
X593775Y303093D01*
X594408Y303726D01*
X594728Y304500D01*
D02*
G37*
G36*
X592000D02*
X590272D01*
X590592Y303726D01*
X591225Y303093D01*
X592000Y302772D01*
Y304500D01*
D02*
G37*
G36*
X577228D02*
X575500D01*
Y302772D01*
X576274Y303093D01*
X576907Y303726D01*
X577228Y304500D01*
D02*
G37*
G36*
X574500D02*
X572772D01*
X573093Y303726D01*
X573726Y303093D01*
X574500Y302772D01*
Y304500D01*
D02*
G37*
G36*
X400650Y304937D02*
X400500D01*
Y300500D01*
X404937D01*
Y300650D01*
X404601Y301906D01*
X403951Y303031D01*
X403031Y303951D01*
X401906Y304601D01*
X400650Y304937D01*
D02*
G37*
G36*
X550500Y302228D02*
Y300500D01*
X552228D01*
X551907Y301274D01*
X551274Y301907D01*
X550500Y302228D01*
D02*
G37*
G36*
X399500Y304937D02*
X399350D01*
X398094Y304601D01*
X396969Y303951D01*
X396049Y303031D01*
X395399Y301906D01*
X395063Y300650D01*
Y300500D01*
X399500D01*
Y304937D01*
D02*
G37*
G36*
X500500Y299728D02*
Y298000D01*
X502228D01*
X501907Y298775D01*
X501274Y299408D01*
X500500Y299728D01*
D02*
G37*
G36*
X499500D02*
X498726Y299408D01*
X498093Y298775D01*
X497772Y298000D01*
X499500D01*
Y299728D01*
D02*
G37*
G36*
X552228Y299500D02*
X550500D01*
Y297772D01*
X551274Y298093D01*
X551907Y298726D01*
X552228Y299500D01*
D02*
G37*
G36*
X549500D02*
X547772D01*
X548093Y298726D01*
X548726Y298093D01*
X549500Y297772D01*
Y299500D01*
D02*
G37*
G36*
X593000Y297228D02*
Y295500D01*
X594728D01*
X594408Y296274D01*
X593775Y296907D01*
X593000Y297228D01*
D02*
G37*
G36*
X592000D02*
X591225Y296907D01*
X590592Y296274D01*
X590272Y295500D01*
X592000D01*
Y297228D01*
D02*
G37*
G36*
X575500D02*
Y295500D01*
X577228D01*
X576907Y296274D01*
X576274Y296907D01*
X575500Y297228D01*
D02*
G37*
G36*
X574500D02*
X573726Y296907D01*
X573093Y296274D01*
X572772Y295500D01*
X574500D01*
Y297228D01*
D02*
G37*
G36*
X545500D02*
Y295500D01*
X547228D01*
X546908Y296274D01*
X546275Y296907D01*
X545500Y297228D01*
D02*
G37*
G36*
X502228Y297000D02*
X500500D01*
Y295272D01*
X501274Y295592D01*
X501907Y296226D01*
X502228Y297000D01*
D02*
G37*
G36*
X499500D02*
X497772D01*
X498093Y296226D01*
X498726Y295592D01*
X499500Y295272D01*
Y297000D01*
D02*
G37*
G36*
X404937Y299500D02*
X400500D01*
Y295063D01*
X400650D01*
X401906Y295399D01*
X403031Y296049D01*
X403951Y296969D01*
X404601Y298094D01*
X404937Y299350D01*
Y299500D01*
D02*
G37*
G36*
X399500D02*
X395063D01*
Y299350D01*
X395399Y298094D01*
X396049Y296969D01*
X396969Y296049D01*
X398094Y295399D01*
X399350Y295063D01*
X399500D01*
Y299500D01*
D02*
G37*
G36*
X587067Y303500D02*
X584500D01*
Y294535D01*
X587067D01*
Y303500D01*
D02*
G37*
G36*
X583500D02*
X580933D01*
Y294535D01*
X583500D01*
Y303500D01*
D02*
G37*
G36*
X567067D02*
X564500D01*
Y294535D01*
X567067D01*
Y303500D01*
D02*
G37*
G36*
X563500D02*
X560933D01*
Y294535D01*
X563500D01*
Y303500D01*
D02*
G37*
G36*
X478870Y308421D02*
X473130D01*
Y306248D01*
X473330D01*
Y304152D01*
X472827D01*
X472320Y304051D01*
X471889Y303764D01*
X471063Y302937D01*
X470775Y302507D01*
X470675Y302000D01*
Y299694D01*
X466389D01*
Y294354D01*
X475825D01*
X475844Y294350D01*
X475862Y294354D01*
X476650D01*
Y294674D01*
X480249D01*
X480299Y294666D01*
X480346Y294655D01*
X480387Y294642D01*
X480420Y294627D01*
X480450Y294612D01*
X480476Y294595D01*
X480500Y294576D01*
X480550Y294529D01*
X480607Y294494D01*
X480839Y294262D01*
X481592Y293950D01*
X482408D01*
X483161Y294262D01*
X483738Y294839D01*
X484050Y295592D01*
Y296408D01*
X483738Y297161D01*
X483161Y297738D01*
X482408Y298050D01*
X481592D01*
X480839Y297738D01*
X480607Y297506D01*
X480550Y297471D01*
X480500Y297424D01*
X480476Y297405D01*
X480450Y297388D01*
X480420Y297373D01*
X480386Y297358D01*
X480346Y297345D01*
X480299Y297334D01*
X480249Y297325D01*
X476650D01*
Y299694D01*
X473325D01*
Y301451D01*
X473376Y301501D01*
X474827D01*
X474955Y301527D01*
X478670D01*
Y306248D01*
X478870D01*
Y308421D01*
D02*
G37*
G36*
X574500Y294500D02*
X572772D01*
X573093Y293725D01*
X573267Y293551D01*
X573213Y293485D01*
X572812Y293254D01*
X572803Y293255D01*
X572500Y293316D01*
X547151D01*
X546945Y293816D01*
X547228Y294500D01*
X542772D01*
X543055Y293816D01*
X542849Y293316D01*
X542500D01*
X542188Y293254D01*
X541923Y293077D01*
X541746Y292812D01*
X541684Y292500D01*
Y272500D01*
X541746Y272188D01*
X541923Y271923D01*
X542188Y271746D01*
X542500Y271684D01*
X544389D01*
Y266354D01*
X545991D01*
X546019Y266307D01*
X546065Y266193D01*
X546112Y266019D01*
X546150Y265787D01*
X546165Y265621D01*
Y263340D01*
X546160Y263198D01*
X546133Y262954D01*
X546098Y262756D01*
X546074Y262670D01*
X545527D01*
Y261877D01*
X545523Y261858D01*
X545527Y261840D01*
Y257330D01*
X554564D01*
X554583Y257326D01*
X554601Y257330D01*
X555395D01*
Y258028D01*
X555409Y258035D01*
X555530Y258078D01*
X555712Y258120D01*
X555951Y258154D01*
X556088Y258165D01*
X557027D01*
X557232Y258155D01*
Y258019D01*
X558025D01*
X558043Y258015D01*
X558062Y258019D01*
X562769D01*
X562951Y257904D01*
X563000Y257328D01*
X561010Y255337D01*
X560652Y255006D01*
X560350Y254764D01*
X560079Y254576D01*
X559947Y254501D01*
X557232D01*
Y250539D01*
X561891D01*
X561896Y250537D01*
X561907Y250539D01*
X562769D01*
Y251285D01*
X562770Y251290D01*
X562780Y251425D01*
X562801Y251524D01*
X562844Y251650D01*
X562912Y251801D01*
X563009Y251976D01*
X563136Y252170D01*
X563287Y252375D01*
X563587Y252724D01*
X566298Y255434D01*
X566696Y256030D01*
X566835Y256732D01*
Y268068D01*
X566932Y268165D01*
X571740D01*
X575244Y264661D01*
Y263340D01*
X575238Y263198D01*
X575211Y262954D01*
X575176Y262756D01*
X575153Y262670D01*
X574606D01*
Y261877D01*
X574602Y261858D01*
X574606Y261840D01*
Y258160D01*
X574602Y258142D01*
X574606Y258123D01*
Y257330D01*
X574606D01*
X574696Y257197D01*
X574648Y257100D01*
X574090Y257024D01*
X573992Y257137D01*
Y258441D01*
X573792D01*
Y261981D01*
X572349D01*
Y263976D01*
X572248Y264484D01*
X572050Y264780D01*
Y265408D01*
X571738Y266161D01*
X571161Y266738D01*
X570408Y267050D01*
X569592D01*
X568839Y266738D01*
X568262Y266161D01*
X567950Y265408D01*
Y264592D01*
X568262Y263839D01*
X568839Y263262D01*
X569592Y262950D01*
X569698D01*
Y261981D01*
X568255D01*
Y258441D01*
X568055D01*
Y256760D01*
X571024D01*
Y255760D01*
X568055D01*
Y254079D01*
X568255D01*
Y250539D01*
X570971D01*
X571103Y250463D01*
X571364Y250282D01*
X571941Y249794D01*
X573189Y248546D01*
X573741Y247906D01*
X573985Y247578D01*
X574190Y247266D01*
X574350Y246980D01*
X574468Y246723D01*
X574545Y246496D01*
X574587Y246303D01*
X574604Y246080D01*
X574606Y246075D01*
Y245330D01*
X575350D01*
X575354Y245329D01*
X575364Y245330D01*
X575468D01*
X575479Y245329D01*
X575484Y245330D01*
X584473D01*
Y246792D01*
X584480Y246859D01*
X584531Y246890D01*
X584643Y246936D01*
X584815Y246982D01*
X585044Y247020D01*
X585208Y247035D01*
X591328D01*
X592031Y247175D01*
X592626Y247572D01*
X593798Y248744D01*
X594196Y249339D01*
X594335Y250042D01*
Y258828D01*
X594196Y259531D01*
X593798Y260126D01*
X592626Y261298D01*
X592031Y261696D01*
X591328Y261835D01*
X585167D01*
X585030Y261846D01*
X584791Y261880D01*
X584609Y261922D01*
X584487Y261965D01*
X584473Y261972D01*
Y262670D01*
X583926D01*
X583903Y262756D01*
X583869Y262943D01*
X583835Y263355D01*
Y265500D01*
X583696Y266202D01*
X583298Y266798D01*
X573028Y277067D01*
X573000Y277194D01*
X573077Y277672D01*
X573254Y277937D01*
X573316Y278249D01*
Y292500D01*
X573255Y292803D01*
X573254Y292812D01*
X573485Y293213D01*
X573551Y293267D01*
X573726Y293092D01*
X574500Y292772D01*
Y294500D01*
D02*
G37*
G36*
X594728D02*
X593000D01*
Y292772D01*
X593775Y293092D01*
X594408Y293725D01*
X594728Y294500D01*
D02*
G37*
G36*
X592000D02*
X590272D01*
X590592Y293725D01*
X591225Y293092D01*
X592000Y292772D01*
Y294500D01*
D02*
G37*
G36*
X577228D02*
X575500D01*
Y292772D01*
X576274Y293092D01*
X576907Y293725D01*
X577228Y294500D01*
D02*
G37*
G36*
X593000Y289728D02*
Y288000D01*
X594728D01*
X594408Y288774D01*
X593775Y289407D01*
X593000Y289728D01*
D02*
G37*
G36*
X592000D02*
X591225Y289407D01*
X590592Y288774D01*
X590272Y288000D01*
X592000D01*
Y289728D01*
D02*
G37*
G36*
X463000Y287228D02*
Y285500D01*
X464728D01*
X464407Y286275D01*
X463774Y286908D01*
X463000Y287228D01*
D02*
G37*
G36*
X462000D02*
X461226Y286908D01*
X460593Y286275D01*
X460272Y285500D01*
X462000D01*
Y287228D01*
D02*
G37*
G36*
X443000D02*
Y285500D01*
X444728D01*
X444408Y286275D01*
X443775Y286908D01*
X443000Y287228D01*
D02*
G37*
G36*
X442000D02*
X441225Y286908D01*
X440592Y286275D01*
X440272Y285500D01*
X442000D01*
Y287228D01*
D02*
G37*
G36*
X594728Y287000D02*
X593000D01*
Y285272D01*
X593775Y285593D01*
X594408Y286226D01*
X594728Y287000D01*
D02*
G37*
G36*
X592000D02*
X590272D01*
X590592Y286226D01*
X591225Y285593D01*
X592000Y285272D01*
Y287000D01*
D02*
G37*
G36*
X464728Y284500D02*
X463000D01*
Y282772D01*
X463774Y283092D01*
X464407Y283726D01*
X464728Y284500D01*
D02*
G37*
G36*
X462000D02*
X460272D01*
X460593Y283726D01*
X461226Y283092D01*
X462000Y282772D01*
Y284500D01*
D02*
G37*
G36*
X444728D02*
X443000D01*
Y282772D01*
X443775Y283092D01*
X444408Y283726D01*
X444728Y284500D01*
D02*
G37*
G36*
X442000D02*
X440272D01*
X440592Y283726D01*
X441225Y283092D01*
X442000Y282772D01*
Y284500D01*
D02*
G37*
G36*
X582369Y282000D02*
X582342D01*
Y278500D01*
X585843D01*
Y278527D01*
X585570Y279544D01*
X585043Y280456D01*
X584299Y281201D01*
X583387Y281727D01*
X582369Y282000D01*
D02*
G37*
G36*
X581343D02*
X581316D01*
X580299Y281727D01*
X579387Y281201D01*
X578642Y280456D01*
X578115Y279544D01*
X577843Y278527D01*
Y278500D01*
X581343D01*
Y282000D01*
D02*
G37*
G36*
X593000Y279728D02*
Y278000D01*
X594728D01*
X594408Y278774D01*
X593775Y279408D01*
X593000Y279728D01*
D02*
G37*
G36*
X592000D02*
X591225Y279408D01*
X590592Y278774D01*
X590272Y278000D01*
X592000D01*
Y279728D01*
D02*
G37*
G36*
X476850Y277847D02*
X472020D01*
Y275476D01*
X476850D01*
Y277847D01*
D02*
G37*
G36*
X471020D02*
X466189D01*
Y275476D01*
X471020D01*
Y277847D01*
D02*
G37*
G36*
X594728Y277000D02*
X593000D01*
Y275272D01*
X593775Y275592D01*
X594408Y276225D01*
X594728Y277000D01*
D02*
G37*
G36*
X592000D02*
X590272D01*
X590592Y276225D01*
X591225Y275592D01*
X592000Y275272D01*
Y277000D01*
D02*
G37*
G36*
X400624Y284737D02*
X399376D01*
X398172Y284414D01*
X397091Y283790D01*
X396210Y282909D01*
X395586Y281828D01*
X395263Y280624D01*
Y279376D01*
X395586Y278172D01*
X396210Y277091D01*
X397091Y276209D01*
X398172Y275586D01*
X399376Y275263D01*
X400624D01*
X401828Y275586D01*
X402909Y276209D01*
X403791Y277091D01*
X404414Y278172D01*
X404737Y279376D01*
Y280624D01*
X404414Y281828D01*
X403791Y282909D01*
X402909Y283790D01*
X401828Y284414D01*
X400624Y284737D01*
D02*
G37*
G36*
X585843Y277500D02*
X582342D01*
Y274000D01*
X582369D01*
X583387Y274273D01*
X584299Y274799D01*
X585043Y275544D01*
X585570Y276456D01*
X585843Y277473D01*
Y277500D01*
D02*
G37*
G36*
X581343D02*
X577843D01*
Y277473D01*
X578115Y276456D01*
X578642Y275544D01*
X579387Y274799D01*
X580299Y274273D01*
X581316Y274000D01*
X581343D01*
Y277500D01*
D02*
G37*
G36*
X423000Y274728D02*
Y273000D01*
X424728D01*
X424407Y273775D01*
X423774Y274408D01*
X423000Y274728D01*
D02*
G37*
G36*
X422000D02*
X421226Y274408D01*
X420592Y273775D01*
X420272Y273000D01*
X422000D01*
Y274728D01*
D02*
G37*
G36*
X476850Y274476D02*
X472020D01*
Y272106D01*
X476850D01*
Y274476D01*
D02*
G37*
G36*
X471020D02*
X466189D01*
Y272106D01*
X471020D01*
Y274476D01*
D02*
G37*
G36*
X424728Y272000D02*
X423000D01*
Y270272D01*
X423774Y270592D01*
X424407Y271226D01*
X424728Y272000D01*
D02*
G37*
G36*
X422000D02*
X420272D01*
X420592Y271226D01*
X421226Y270592D01*
X422000Y270272D01*
Y272000D01*
D02*
G37*
G36*
X478870Y271595D02*
X476500D01*
Y269421D01*
X478870D01*
Y271595D01*
D02*
G37*
G36*
X475500D02*
X473130D01*
Y269421D01*
X475500D01*
Y271595D01*
D02*
G37*
G36*
X468000Y269728D02*
Y268000D01*
X469728D01*
X469408Y268775D01*
X468775Y269408D01*
X468000Y269728D01*
D02*
G37*
G36*
X467000D02*
X466225Y269408D01*
X465592Y268775D01*
X465272Y268000D01*
X467000D01*
Y269728D01*
D02*
G37*
G36*
X469728Y267000D02*
X468000D01*
Y265272D01*
X468775Y265593D01*
X469408Y266226D01*
X469728Y267000D01*
D02*
G37*
G36*
X467000D02*
X465272D01*
X465592Y266226D01*
X466225Y265593D01*
X467000Y265272D01*
Y267000D01*
D02*
G37*
G36*
X468000Y264728D02*
Y263000D01*
X469728D01*
X469408Y263774D01*
X468775Y264407D01*
X468000Y264728D01*
D02*
G37*
G36*
X467000D02*
X466225Y264407D01*
X465592Y263774D01*
X465272Y263000D01*
X467000D01*
Y264728D01*
D02*
G37*
G36*
X469728Y262000D02*
X468000D01*
Y260272D01*
X468775Y260593D01*
X469408Y261226D01*
X469728Y262000D01*
D02*
G37*
G36*
X467000D02*
X465272D01*
X465592Y261226D01*
X466225Y260593D01*
X467000Y260272D01*
Y262000D01*
D02*
G37*
G36*
X478870Y268421D02*
X473130D01*
Y266248D01*
X473330D01*
Y264152D01*
X472827D01*
X472320Y264051D01*
X471889Y263764D01*
X471063Y262937D01*
X470775Y262507D01*
X470675Y262000D01*
Y259694D01*
X466389D01*
Y254353D01*
X476650D01*
Y259694D01*
X473325D01*
Y261451D01*
X473376Y261501D01*
X474827D01*
X474955Y261527D01*
X476425D01*
X476444Y261523D01*
X476462Y261527D01*
X476740D01*
X476788Y261493D01*
X477056Y261266D01*
X477879Y260443D01*
X477904Y260408D01*
X477923Y260374D01*
X477935Y260347D01*
X477943Y260325D01*
X477947Y260307D01*
X477950Y260290D01*
X477950Y260277D01*
Y260270D01*
X477946Y260211D01*
X477950Y260176D01*
Y259592D01*
X478262Y258839D01*
X478839Y258262D01*
X479592Y257950D01*
X480408D01*
X481161Y258262D01*
X481738Y258839D01*
X482050Y259592D01*
Y260408D01*
X481738Y261161D01*
X481161Y261738D01*
X480408Y262050D01*
X480244D01*
X480240Y262051D01*
X480168Y262061D01*
X480128Y262070D01*
X480087Y262083D01*
X480044Y262099D01*
X480000Y262120D01*
X479953Y262146D01*
X479904Y262178D01*
X479860Y262212D01*
X478972Y263099D01*
X478816Y263268D01*
X478710Y263400D01*
X478670Y263457D01*
Y263735D01*
X478674Y263753D01*
X478670Y263771D01*
Y266248D01*
X478870D01*
Y268421D01*
D02*
G37*
G36*
X620623Y264737D02*
X619376D01*
X618171Y264414D01*
X617091Y263790D01*
X616209Y262909D01*
X615586Y261828D01*
X615263Y260624D01*
Y259376D01*
X615586Y258172D01*
X616209Y257091D01*
X617091Y256209D01*
X618171Y255586D01*
X619376Y255263D01*
X620623D01*
X621828Y255586D01*
X622908Y256209D01*
X623790Y257091D01*
X624414Y258172D01*
X624737Y259376D01*
Y260624D01*
X624414Y261828D01*
X623790Y262909D01*
X622908Y263790D01*
X621828Y264414D01*
X620623Y264737D01*
D02*
G37*
G36*
X400624D02*
X399376D01*
X398172Y264414D01*
X397091Y263790D01*
X396210Y262909D01*
X395586Y261828D01*
X395263Y260624D01*
Y259376D01*
X395586Y258172D01*
X396210Y257091D01*
X397091Y256209D01*
X398172Y255586D01*
X399376Y255263D01*
X400624D01*
X401828Y255586D01*
X402909Y256209D01*
X403791Y257091D01*
X404414Y258172D01*
X404737Y259376D01*
Y260624D01*
X404414Y261828D01*
X403791Y262909D01*
X402909Y263790D01*
X401828Y264414D01*
X400624Y264737D01*
D02*
G37*
G36*
X553000Y254728D02*
Y253000D01*
X554728D01*
X554408Y253774D01*
X553774Y254408D01*
X553000Y254728D01*
D02*
G37*
G36*
X552000D02*
X551226Y254408D01*
X550593Y253774D01*
X550272Y253000D01*
X552000D01*
Y254728D01*
D02*
G37*
G36*
X535500D02*
Y253000D01*
X537228D01*
X536907Y253774D01*
X536274Y254408D01*
X535500Y254728D01*
D02*
G37*
G36*
X534500D02*
X533726Y254408D01*
X533092Y253774D01*
X532772Y253000D01*
X534500D01*
Y254728D01*
D02*
G37*
G36*
X461296Y280186D02*
X431350D01*
Y265436D01*
X431348Y265422D01*
X431350Y265415D01*
Y262317D01*
X431233Y262009D01*
X430561Y260751D01*
X429626Y259331D01*
X425124Y253990D01*
X424417Y253263D01*
X396576Y225423D01*
X395807Y224420D01*
X395323Y223253D01*
X395158Y222000D01*
Y220000D01*
X395323Y218747D01*
X395807Y217579D01*
X396576Y216577D01*
X397579Y215807D01*
X398747Y215323D01*
X400000Y215159D01*
X401253Y215323D01*
X402420Y215807D01*
X403423Y216577D01*
X404192Y217579D01*
X404676Y218747D01*
X404840Y219993D01*
X431722Y246876D01*
X434451Y249417D01*
X435860Y250551D01*
X437132Y251443D01*
X437779Y251814D01*
X441944D01*
X441964Y251811D01*
X441978Y251814D01*
X461296D01*
Y280186D01*
D02*
G37*
G36*
X554728Y252000D02*
X553000D01*
Y250272D01*
X553774Y250592D01*
X554408Y251225D01*
X554728Y252000D01*
D02*
G37*
G36*
X552000D02*
X550272D01*
X550593Y251225D01*
X551226Y250592D01*
X552000Y250272D01*
Y252000D01*
D02*
G37*
G36*
X537228D02*
X535500D01*
Y250272D01*
X536274Y250592D01*
X536907Y251225D01*
X537228Y252000D01*
D02*
G37*
G36*
X534500D02*
X532772D01*
X533092Y251225D01*
X533726Y250592D01*
X534500Y250272D01*
Y252000D01*
D02*
G37*
G36*
X515500Y244728D02*
Y243000D01*
X517228D01*
X516908Y243775D01*
X516274Y244408D01*
X515500Y244728D01*
D02*
G37*
G36*
X514500D02*
X513726Y244408D01*
X513093Y243775D01*
X512772Y243000D01*
X514500D01*
Y244728D01*
D02*
G37*
G36*
X500500D02*
Y243000D01*
X502228D01*
X501907Y243775D01*
X501274Y244408D01*
X500500Y244728D01*
D02*
G37*
G36*
X499500D02*
X498726Y244408D01*
X498093Y243775D01*
X497772Y243000D01*
X499500D01*
Y244728D01*
D02*
G37*
G36*
X620650Y244937D02*
X620500D01*
Y240500D01*
X624937D01*
Y240650D01*
X624601Y241906D01*
X623951Y243031D01*
X623031Y243951D01*
X621906Y244601D01*
X620650Y244937D01*
D02*
G37*
G36*
X619500D02*
X619350D01*
X618094Y244601D01*
X616969Y243951D01*
X616049Y243031D01*
X615399Y241906D01*
X615063Y240650D01*
Y240500D01*
X619500D01*
Y244937D01*
D02*
G37*
G36*
X517228Y242000D02*
X515500D01*
Y240272D01*
X516274Y240593D01*
X516908Y241226D01*
X517228Y242000D01*
D02*
G37*
G36*
X514500D02*
X512772D01*
X513093Y241226D01*
X513726Y240593D01*
X514500Y240272D01*
Y242000D01*
D02*
G37*
G36*
X502228D02*
X500500D01*
Y240272D01*
X501274Y240593D01*
X501907Y241226D01*
X502228Y242000D01*
D02*
G37*
G36*
X499500D02*
X497772D01*
X498093Y241226D01*
X498726Y240593D01*
X499500Y240272D01*
Y242000D01*
D02*
G37*
G36*
X461296Y320186D02*
X431350D01*
Y302257D01*
X431333Y302172D01*
X431319Y302148D01*
X431208Y302055D01*
X430953Y301924D01*
X430552Y301787D01*
X430013Y301664D01*
X429354Y301565D01*
X427787Y301456D01*
X426614D01*
X425361Y301291D01*
X424193Y300807D01*
X423191Y300038D01*
X410577Y287423D01*
X409807Y286421D01*
X409324Y285253D01*
X409159Y284000D01*
Y256005D01*
X396577Y243423D01*
X395807Y242421D01*
X395323Y241253D01*
X395159Y240000D01*
X395323Y238747D01*
X395807Y237579D01*
X396577Y236577D01*
X397579Y235807D01*
X398747Y235324D01*
X400000Y235159D01*
X401253Y235324D01*
X402421Y235807D01*
X403423Y236577D01*
X417423Y250577D01*
X418193Y251579D01*
X418677Y252747D01*
X418841Y254000D01*
Y281995D01*
X428619Y291773D01*
X436937D01*
X437252Y291814D01*
X461296D01*
Y320186D01*
D02*
G37*
G36*
X624937Y239500D02*
X620500D01*
Y235063D01*
X620650D01*
X621906Y235399D01*
X623031Y236049D01*
X623951Y236969D01*
X624601Y238094D01*
X624937Y239350D01*
Y239500D01*
D02*
G37*
G36*
X619500D02*
X615063D01*
Y239350D01*
X615399Y238094D01*
X616049Y236969D01*
X616969Y236049D01*
X618094Y235399D01*
X619350Y235063D01*
X619500D01*
Y239500D01*
D02*
G37*
G36*
X450520Y233953D02*
X450500D01*
Y230500D01*
X453953D01*
Y230520D01*
X453683Y231526D01*
X453163Y232427D01*
X452427Y233163D01*
X451526Y233683D01*
X450520Y233953D01*
D02*
G37*
G36*
X449500D02*
X449480D01*
X448474Y233683D01*
X447573Y233163D01*
X446837Y232427D01*
X446317Y231526D01*
X446047Y230520D01*
Y230500D01*
X449500D01*
Y233953D01*
D02*
G37*
G36*
X580494Y233753D02*
X579506D01*
X578551Y233497D01*
X577696Y233003D01*
X576997Y232304D01*
X576503Y231449D01*
X576247Y230494D01*
Y229506D01*
X576503Y228552D01*
X576997Y227696D01*
X577696Y226997D01*
X578551Y226503D01*
X579506Y226247D01*
X580494D01*
X581449Y226503D01*
X582304Y226997D01*
X583003Y227696D01*
X583497Y228552D01*
X583753Y229506D01*
Y230494D01*
X583497Y231449D01*
X583003Y232304D01*
X582304Y233003D01*
X581449Y233497D01*
X580494Y233753D01*
D02*
G37*
G36*
X570494D02*
X569506D01*
X568551Y233497D01*
X567696Y233003D01*
X566997Y232304D01*
X566503Y231449D01*
X566247Y230494D01*
Y229506D01*
X566503Y228552D01*
X566997Y227696D01*
X567696Y226997D01*
X568551Y226503D01*
X569506Y226247D01*
X570494D01*
X571449Y226503D01*
X572304Y226997D01*
X573003Y227696D01*
X573497Y228552D01*
X573753Y229506D01*
Y230494D01*
X573497Y231449D01*
X573003Y232304D01*
X572304Y233003D01*
X571449Y233497D01*
X570494Y233753D01*
D02*
G37*
G36*
X560494D02*
X559506D01*
X558552Y233497D01*
X557696Y233003D01*
X556997Y232304D01*
X556503Y231449D01*
X556247Y230494D01*
Y229506D01*
X556503Y228552D01*
X556997Y227696D01*
X557696Y226997D01*
X558552Y226503D01*
X559506Y226247D01*
X560494D01*
X561448Y226503D01*
X562304Y226997D01*
X563003Y227696D01*
X563497Y228552D01*
X563753Y229506D01*
Y230494D01*
X563497Y231449D01*
X563003Y232304D01*
X562304Y233003D01*
X561448Y233497D01*
X560494Y233753D01*
D02*
G37*
G36*
X550494D02*
X549506D01*
X548552Y233497D01*
X547696Y233003D01*
X546997Y232304D01*
X546503Y231449D01*
X546247Y230494D01*
Y229506D01*
X546503Y228552D01*
X546997Y227696D01*
X547696Y226997D01*
X548552Y226503D01*
X549506Y226247D01*
X550494D01*
X551448Y226503D01*
X552304Y226997D01*
X553003Y227696D01*
X553497Y228552D01*
X553753Y229506D01*
Y230494D01*
X553497Y231449D01*
X553003Y232304D01*
X552304Y233003D01*
X551448Y233497D01*
X550494Y233753D01*
D02*
G37*
G36*
X540494D02*
X539506D01*
X538552Y233497D01*
X537696Y233003D01*
X536997Y232304D01*
X536503Y231449D01*
X536247Y230494D01*
Y229506D01*
X536503Y228552D01*
X536997Y227696D01*
X537696Y226997D01*
X538552Y226503D01*
X539506Y226247D01*
X540494D01*
X541448Y226503D01*
X542304Y226997D01*
X543003Y227696D01*
X543497Y228552D01*
X543753Y229506D01*
Y230494D01*
X543497Y231449D01*
X543003Y232304D01*
X542304Y233003D01*
X541448Y233497D01*
X540494Y233753D01*
D02*
G37*
G36*
X530494D02*
X529506D01*
X528551Y233497D01*
X527696Y233003D01*
X526997Y232304D01*
X526503Y231449D01*
X526247Y230494D01*
Y229506D01*
X526503Y228552D01*
X526997Y227696D01*
X527696Y226997D01*
X528551Y226503D01*
X529506Y226247D01*
X530494D01*
X531449Y226503D01*
X532304Y226997D01*
X533003Y227696D01*
X533497Y228552D01*
X533753Y229506D01*
Y230494D01*
X533497Y231449D01*
X533003Y232304D01*
X532304Y233003D01*
X531449Y233497D01*
X530494Y233753D01*
D02*
G37*
G36*
X520494D02*
X519506D01*
X518551Y233497D01*
X517696Y233003D01*
X516997Y232304D01*
X516503Y231449D01*
X516247Y230494D01*
Y229506D01*
X516503Y228552D01*
X516997Y227696D01*
X517696Y226997D01*
X518551Y226503D01*
X519506Y226247D01*
X520494D01*
X521449Y226503D01*
X522304Y226997D01*
X523003Y227696D01*
X523497Y228552D01*
X523753Y229506D01*
Y230494D01*
X523497Y231449D01*
X523003Y232304D01*
X522304Y233003D01*
X521449Y233497D01*
X520494Y233753D01*
D02*
G37*
G36*
X510494D02*
X509506D01*
X508552Y233497D01*
X507696Y233003D01*
X506997Y232304D01*
X506503Y231449D01*
X506247Y230494D01*
Y229506D01*
X506503Y228552D01*
X506997Y227696D01*
X507696Y226997D01*
X508552Y226503D01*
X509506Y226247D01*
X510494D01*
X511448Y226503D01*
X512304Y226997D01*
X513003Y227696D01*
X513497Y228552D01*
X513753Y229506D01*
Y230494D01*
X513497Y231449D01*
X513003Y232304D01*
X512304Y233003D01*
X511448Y233497D01*
X510494Y233753D01*
D02*
G37*
G36*
X500494D02*
X499506D01*
X498552Y233497D01*
X497696Y233003D01*
X496997Y232304D01*
X496503Y231449D01*
X496247Y230494D01*
Y229506D01*
X496503Y228552D01*
X496997Y227696D01*
X497696Y226997D01*
X498552Y226503D01*
X499506Y226247D01*
X500494D01*
X501448Y226503D01*
X502304Y226997D01*
X503003Y227696D01*
X503497Y228552D01*
X503753Y229506D01*
Y230494D01*
X503497Y231449D01*
X503003Y232304D01*
X502304Y233003D01*
X501448Y233497D01*
X500494Y233753D01*
D02*
G37*
G36*
X490494D02*
X489506D01*
X488552Y233497D01*
X487696Y233003D01*
X486997Y232304D01*
X486503Y231449D01*
X486247Y230494D01*
Y229506D01*
X486503Y228552D01*
X486997Y227696D01*
X487696Y226997D01*
X488552Y226503D01*
X489506Y226247D01*
X490494D01*
X491448Y226503D01*
X492304Y226997D01*
X493003Y227696D01*
X493497Y228552D01*
X493753Y229506D01*
Y230494D01*
X493497Y231449D01*
X493003Y232304D01*
X492304Y233003D01*
X491448Y233497D01*
X490494Y233753D01*
D02*
G37*
G36*
X480494D02*
X479506D01*
X478551Y233497D01*
X477696Y233003D01*
X476997Y232304D01*
X476503Y231449D01*
X476247Y230494D01*
Y229506D01*
X476503Y228552D01*
X476997Y227696D01*
X477696Y226997D01*
X478551Y226503D01*
X479506Y226247D01*
X480494D01*
X481449Y226503D01*
X482304Y226997D01*
X483003Y227696D01*
X483497Y228552D01*
X483753Y229506D01*
Y230494D01*
X483497Y231449D01*
X483003Y232304D01*
X482304Y233003D01*
X481449Y233497D01*
X480494Y233753D01*
D02*
G37*
G36*
X470494D02*
X469506D01*
X468551Y233497D01*
X467696Y233003D01*
X466997Y232304D01*
X466503Y231449D01*
X466247Y230494D01*
Y229506D01*
X466503Y228552D01*
X466997Y227696D01*
X467696Y226997D01*
X468551Y226503D01*
X469506Y226247D01*
X470494D01*
X471449Y226503D01*
X472304Y226997D01*
X473003Y227696D01*
X473497Y228552D01*
X473753Y229506D01*
Y230494D01*
X473497Y231449D01*
X473003Y232304D01*
X472304Y233003D01*
X471449Y233497D01*
X470494Y233753D01*
D02*
G37*
G36*
X460494D02*
X459506D01*
X458552Y233497D01*
X457696Y233003D01*
X456997Y232304D01*
X456503Y231449D01*
X456247Y230494D01*
Y229506D01*
X456503Y228552D01*
X456997Y227696D01*
X457696Y226997D01*
X458552Y226503D01*
X459506Y226247D01*
X460494D01*
X461448Y226503D01*
X462304Y226997D01*
X463003Y227696D01*
X463497Y228552D01*
X463753Y229506D01*
Y230494D01*
X463497Y231449D01*
X463003Y232304D01*
X462304Y233003D01*
X461448Y233497D01*
X460494Y233753D01*
D02*
G37*
G36*
X453953Y229500D02*
X450500D01*
Y226047D01*
X450520D01*
X451526Y226317D01*
X452427Y226837D01*
X453163Y227573D01*
X453683Y228474D01*
X453953Y229480D01*
Y229500D01*
D02*
G37*
G36*
X449500D02*
X446047D01*
Y229480D01*
X446317Y228474D01*
X446837Y227573D01*
X447573Y226837D01*
X448474Y226317D01*
X449480Y226047D01*
X449500D01*
Y229500D01*
D02*
G37*
G36*
X600500Y214728D02*
Y213000D01*
X602228D01*
X601907Y213774D01*
X601274Y214407D01*
X600500Y214728D01*
D02*
G37*
G36*
X599500D02*
X598726Y214407D01*
X598093Y213774D01*
X597772Y213000D01*
X599500D01*
Y214728D01*
D02*
G37*
G36*
X570500D02*
Y213000D01*
X572228D01*
X571908Y213774D01*
X571275Y214407D01*
X570500Y214728D01*
D02*
G37*
G36*
X569500D02*
X568725Y214407D01*
X568092Y213774D01*
X567772Y213000D01*
X569500D01*
Y214728D01*
D02*
G37*
G36*
X475500D02*
Y213000D01*
X477228D01*
X476907Y213774D01*
X476274Y214407D01*
X475500Y214728D01*
D02*
G37*
G36*
X474500D02*
X473726Y214407D01*
X473093Y213774D01*
X472772Y213000D01*
X474500D01*
Y214728D01*
D02*
G37*
G36*
X458000Y212228D02*
Y210500D01*
X459728D01*
X459408Y211275D01*
X458775Y211908D01*
X458000Y212228D01*
D02*
G37*
G36*
X457000D02*
X456225Y211908D01*
X455592Y211275D01*
X455272Y210500D01*
X457000D01*
Y212228D01*
D02*
G37*
G36*
X602228Y212000D02*
X600500D01*
Y210272D01*
X601274Y210593D01*
X601907Y211226D01*
X602228Y212000D01*
D02*
G37*
G36*
X599500D02*
X597772D01*
X598093Y211226D01*
X598726Y210593D01*
X599500Y210272D01*
Y212000D01*
D02*
G37*
G36*
X572228D02*
X570500D01*
Y210272D01*
X571275Y210593D01*
X571908Y211226D01*
X572228Y212000D01*
D02*
G37*
G36*
X569500D02*
X567772D01*
X568092Y211226D01*
X568725Y210593D01*
X569500Y210272D01*
Y212000D01*
D02*
G37*
G36*
X477228D02*
X475500D01*
Y210272D01*
X476274Y210593D01*
X476907Y211226D01*
X477228Y212000D01*
D02*
G37*
G36*
X474500D02*
X472772D01*
X473093Y211226D01*
X473726Y210593D01*
X474500Y210272D01*
Y212000D01*
D02*
G37*
G36*
X459728Y209500D02*
X458000D01*
Y207772D01*
X458775Y208092D01*
X459408Y208726D01*
X459728Y209500D01*
D02*
G37*
G36*
X457000D02*
X455272D01*
X455592Y208726D01*
X456225Y208092D01*
X457000Y207772D01*
Y209500D01*
D02*
G37*
G36*
X580500Y199728D02*
Y198000D01*
X582228D01*
X581908Y198775D01*
X581275Y199407D01*
X580500Y199728D01*
D02*
G37*
G36*
X579500D02*
X578725Y199407D01*
X578092Y198775D01*
X577772Y198000D01*
X579500D01*
Y199728D01*
D02*
G37*
G36*
X475500D02*
Y198000D01*
X477228D01*
X476907Y198775D01*
X476274Y199407D01*
X475500Y199728D01*
D02*
G37*
G36*
X474500D02*
X473726Y199407D01*
X473093Y198775D01*
X472772Y198000D01*
X474500D01*
Y199728D01*
D02*
G37*
G36*
X458000D02*
Y198000D01*
X459728D01*
X459408Y198775D01*
X458775Y199407D01*
X458000Y199728D01*
D02*
G37*
G36*
X457000D02*
X456225Y199407D01*
X455592Y198775D01*
X455272Y198000D01*
X457000D01*
Y199728D01*
D02*
G37*
G36*
X535500Y197228D02*
Y195500D01*
X537228D01*
X536907Y196274D01*
X536274Y196907D01*
X535500Y197228D01*
D02*
G37*
G36*
X534500D02*
X533726Y196907D01*
X533092Y196274D01*
X532772Y195500D01*
X534500D01*
Y197228D01*
D02*
G37*
G36*
X508000D02*
Y195500D01*
X509728D01*
X509408Y196274D01*
X508775Y196907D01*
X508000Y197228D01*
D02*
G37*
G36*
X507000D02*
X506225Y196907D01*
X505592Y196274D01*
X505272Y195500D01*
X507000D01*
Y197228D01*
D02*
G37*
G36*
X582228Y197000D02*
X580500D01*
Y195272D01*
X581275Y195592D01*
X581908Y196226D01*
X582228Y197000D01*
D02*
G37*
G36*
X579500D02*
X577772D01*
X578092Y196226D01*
X578725Y195592D01*
X579500Y195272D01*
Y197000D01*
D02*
G37*
G36*
X477228D02*
X475500D01*
Y195272D01*
X476274Y195592D01*
X476907Y196226D01*
X477228Y197000D01*
D02*
G37*
G36*
X474500D02*
X472772D01*
X473093Y196226D01*
X473726Y195592D01*
X474500Y195272D01*
Y197000D01*
D02*
G37*
G36*
X459728D02*
X458000D01*
Y195272D01*
X458775Y195592D01*
X459408Y196226D01*
X459728Y197000D01*
D02*
G37*
G36*
X457000D02*
X455272D01*
X455592Y196226D01*
X456225Y195592D01*
X457000Y195272D01*
Y197000D01*
D02*
G37*
G36*
X537228Y194500D02*
X535500D01*
Y192772D01*
X536274Y193093D01*
X536907Y193726D01*
X537228Y194500D01*
D02*
G37*
G36*
X534500D02*
X532772D01*
X533092Y193726D01*
X533726Y193093D01*
X534500Y192772D01*
Y194500D01*
D02*
G37*
G36*
X509728D02*
X508000D01*
Y192772D01*
X508775Y193093D01*
X509408Y193726D01*
X509728Y194500D01*
D02*
G37*
G36*
X507000D02*
X505272D01*
X505592Y193726D01*
X506225Y193093D01*
X507000Y192772D01*
Y194500D01*
D02*
G37*
G36*
X580500Y187228D02*
Y185500D01*
X582228D01*
X581908Y186275D01*
X581275Y186907D01*
X580500Y187228D01*
D02*
G37*
G36*
X579500D02*
X578725Y186907D01*
X578092Y186275D01*
X577772Y185500D01*
X579500D01*
Y187228D01*
D02*
G37*
G36*
X582228Y184500D02*
X580500D01*
Y182772D01*
X581275Y183092D01*
X581908Y183726D01*
X582228Y184500D01*
D02*
G37*
G36*
X579500D02*
X577772D01*
X578092Y183726D01*
X578725Y183092D01*
X579500Y182772D01*
Y184500D01*
D02*
G37*
G36*
X535500Y182228D02*
Y180500D01*
X537228D01*
X536907Y181274D01*
X536274Y181907D01*
X535500Y182228D01*
D02*
G37*
G36*
X534500D02*
X533726Y181907D01*
X533092Y181274D01*
X532772Y180500D01*
X534500D01*
Y182228D01*
D02*
G37*
G36*
X508000D02*
Y180500D01*
X509728D01*
X509408Y181274D01*
X508775Y181907D01*
X508000Y182228D01*
D02*
G37*
G36*
X507000D02*
X506225Y181907D01*
X505592Y181274D01*
X505272Y180500D01*
X507000D01*
Y182228D01*
D02*
G37*
G36*
X537228Y179500D02*
X535500D01*
Y177772D01*
X536274Y178093D01*
X536907Y178726D01*
X537228Y179500D01*
D02*
G37*
G36*
X534500D02*
X532772D01*
X533092Y178726D01*
X533726Y178093D01*
X534500Y177772D01*
Y179500D01*
D02*
G37*
G36*
X509728D02*
X508000D01*
Y177772D01*
X508775Y178093D01*
X509408Y178726D01*
X509728Y179500D01*
D02*
G37*
G36*
X507000D02*
X505272D01*
X505592Y178726D01*
X506225Y178093D01*
X507000Y177772D01*
Y179500D01*
D02*
G37*
G36*
X470520Y173953D02*
X470500D01*
Y170500D01*
X473953D01*
Y170520D01*
X473683Y171526D01*
X473163Y172427D01*
X472427Y173163D01*
X471526Y173683D01*
X470520Y173953D01*
D02*
G37*
G36*
X469500D02*
X469480D01*
X468474Y173683D01*
X467573Y173163D01*
X466837Y172427D01*
X466317Y171526D01*
X466047Y170520D01*
Y170500D01*
X469500D01*
Y173953D01*
D02*
G37*
G36*
X580494Y173753D02*
X579506D01*
X578551Y173497D01*
X577696Y173003D01*
X576997Y172304D01*
X576503Y171449D01*
X576247Y170494D01*
Y169506D01*
X576503Y168552D01*
X576997Y167696D01*
X577696Y166997D01*
X578551Y166503D01*
X579506Y166247D01*
X580494D01*
X581449Y166503D01*
X582304Y166997D01*
X583003Y167696D01*
X583497Y168552D01*
X583753Y169506D01*
Y170494D01*
X583497Y171449D01*
X583003Y172304D01*
X582304Y173003D01*
X581449Y173497D01*
X580494Y173753D01*
D02*
G37*
G36*
X570494D02*
X569506D01*
X568551Y173497D01*
X567696Y173003D01*
X566997Y172304D01*
X566503Y171449D01*
X566247Y170494D01*
Y169506D01*
X566503Y168552D01*
X566997Y167696D01*
X567696Y166997D01*
X568551Y166503D01*
X569506Y166247D01*
X570494D01*
X571449Y166503D01*
X572304Y166997D01*
X573003Y167696D01*
X573497Y168552D01*
X573753Y169506D01*
Y170494D01*
X573497Y171449D01*
X573003Y172304D01*
X572304Y173003D01*
X571449Y173497D01*
X570494Y173753D01*
D02*
G37*
G36*
X560494D02*
X559506D01*
X558552Y173497D01*
X557696Y173003D01*
X556997Y172304D01*
X556503Y171449D01*
X556247Y170494D01*
Y169506D01*
X556503Y168552D01*
X556997Y167696D01*
X557696Y166997D01*
X558552Y166503D01*
X559506Y166247D01*
X560494D01*
X561448Y166503D01*
X562304Y166997D01*
X563003Y167696D01*
X563497Y168552D01*
X563753Y169506D01*
Y170494D01*
X563497Y171449D01*
X563003Y172304D01*
X562304Y173003D01*
X561448Y173497D01*
X560494Y173753D01*
D02*
G37*
G36*
X550494D02*
X549506D01*
X548552Y173497D01*
X547696Y173003D01*
X546997Y172304D01*
X546503Y171449D01*
X546247Y170494D01*
Y169506D01*
X546503Y168552D01*
X546997Y167696D01*
X547696Y166997D01*
X548552Y166503D01*
X549506Y166247D01*
X550494D01*
X551448Y166503D01*
X552304Y166997D01*
X553003Y167696D01*
X553497Y168552D01*
X553753Y169506D01*
Y170494D01*
X553497Y171449D01*
X553003Y172304D01*
X552304Y173003D01*
X551448Y173497D01*
X550494Y173753D01*
D02*
G37*
G36*
X540494D02*
X539506D01*
X538552Y173497D01*
X537696Y173003D01*
X536997Y172304D01*
X536503Y171449D01*
X536247Y170494D01*
Y169506D01*
X536503Y168552D01*
X536997Y167696D01*
X537696Y166997D01*
X538552Y166503D01*
X539506Y166247D01*
X540494D01*
X541448Y166503D01*
X542304Y166997D01*
X543003Y167696D01*
X543497Y168552D01*
X543753Y169506D01*
Y170494D01*
X543497Y171449D01*
X543003Y172304D01*
X542304Y173003D01*
X541448Y173497D01*
X540494Y173753D01*
D02*
G37*
G36*
X530494D02*
X529506D01*
X528551Y173497D01*
X527696Y173003D01*
X526997Y172304D01*
X526503Y171449D01*
X526247Y170494D01*
Y169506D01*
X526503Y168552D01*
X526997Y167696D01*
X527696Y166997D01*
X528551Y166503D01*
X529506Y166247D01*
X530494D01*
X531449Y166503D01*
X532304Y166997D01*
X533003Y167696D01*
X533497Y168552D01*
X533753Y169506D01*
Y170494D01*
X533497Y171449D01*
X533003Y172304D01*
X532304Y173003D01*
X531449Y173497D01*
X530494Y173753D01*
D02*
G37*
G36*
X520494D02*
X519506D01*
X518551Y173497D01*
X517696Y173003D01*
X516997Y172304D01*
X516503Y171449D01*
X516247Y170494D01*
Y169506D01*
X516503Y168552D01*
X516997Y167696D01*
X517696Y166997D01*
X518551Y166503D01*
X519506Y166247D01*
X520494D01*
X521449Y166503D01*
X522304Y166997D01*
X523003Y167696D01*
X523497Y168552D01*
X523753Y169506D01*
Y170494D01*
X523497Y171449D01*
X523003Y172304D01*
X522304Y173003D01*
X521449Y173497D01*
X520494Y173753D01*
D02*
G37*
G36*
X510494D02*
X509506D01*
X508552Y173497D01*
X507696Y173003D01*
X506997Y172304D01*
X506503Y171449D01*
X506247Y170494D01*
Y169506D01*
X506503Y168552D01*
X506997Y167696D01*
X507696Y166997D01*
X508552Y166503D01*
X509506Y166247D01*
X510494D01*
X511448Y166503D01*
X512304Y166997D01*
X513003Y167696D01*
X513497Y168552D01*
X513753Y169506D01*
Y170494D01*
X513497Y171449D01*
X513003Y172304D01*
X512304Y173003D01*
X511448Y173497D01*
X510494Y173753D01*
D02*
G37*
G36*
X500494D02*
X499506D01*
X498552Y173497D01*
X497696Y173003D01*
X496997Y172304D01*
X496503Y171449D01*
X496247Y170494D01*
Y169506D01*
X496503Y168552D01*
X496997Y167696D01*
X497696Y166997D01*
X498552Y166503D01*
X499506Y166247D01*
X500494D01*
X501448Y166503D01*
X502304Y166997D01*
X503003Y167696D01*
X503497Y168552D01*
X503753Y169506D01*
Y170494D01*
X503497Y171449D01*
X503003Y172304D01*
X502304Y173003D01*
X501448Y173497D01*
X500494Y173753D01*
D02*
G37*
G36*
X490494D02*
X489506D01*
X488552Y173497D01*
X487696Y173003D01*
X486997Y172304D01*
X486503Y171449D01*
X486247Y170494D01*
Y169506D01*
X486503Y168552D01*
X486997Y167696D01*
X487696Y166997D01*
X488552Y166503D01*
X489506Y166247D01*
X490494D01*
X491448Y166503D01*
X492304Y166997D01*
X493003Y167696D01*
X493497Y168552D01*
X493753Y169506D01*
Y170494D01*
X493497Y171449D01*
X493003Y172304D01*
X492304Y173003D01*
X491448Y173497D01*
X490494Y173753D01*
D02*
G37*
G36*
X480494D02*
X479506D01*
X478551Y173497D01*
X477696Y173003D01*
X476997Y172304D01*
X476503Y171449D01*
X476247Y170494D01*
Y169506D01*
X476503Y168552D01*
X476997Y167696D01*
X477696Y166997D01*
X478551Y166503D01*
X479506Y166247D01*
X480494D01*
X481449Y166503D01*
X482304Y166997D01*
X483003Y167696D01*
X483497Y168552D01*
X483753Y169506D01*
Y170494D01*
X483497Y171449D01*
X483003Y172304D01*
X482304Y173003D01*
X481449Y173497D01*
X480494Y173753D01*
D02*
G37*
G36*
X460494D02*
X459506D01*
X458552Y173497D01*
X457696Y173003D01*
X456997Y172304D01*
X456503Y171449D01*
X456247Y170494D01*
Y169506D01*
X456503Y168552D01*
X456997Y167696D01*
X457696Y166997D01*
X458552Y166503D01*
X459506Y166247D01*
X460494D01*
X461448Y166503D01*
X462304Y166997D01*
X463003Y167696D01*
X463497Y168552D01*
X463753Y169506D01*
Y170494D01*
X463497Y171449D01*
X463003Y172304D01*
X462304Y173003D01*
X461448Y173497D01*
X460494Y173753D01*
D02*
G37*
G36*
X450494D02*
X449506D01*
X448552Y173497D01*
X447696Y173003D01*
X446997Y172304D01*
X446503Y171449D01*
X446247Y170494D01*
Y169506D01*
X446503Y168552D01*
X446997Y167696D01*
X447696Y166997D01*
X448552Y166503D01*
X449506Y166247D01*
X450494D01*
X451448Y166503D01*
X452304Y166997D01*
X453003Y167696D01*
X453497Y168552D01*
X453753Y169506D01*
Y170494D01*
X453497Y171449D01*
X453003Y172304D01*
X452304Y173003D01*
X451448Y173497D01*
X450494Y173753D01*
D02*
G37*
G36*
X440494D02*
X439506D01*
X438552Y173497D01*
X437696Y173003D01*
X436997Y172304D01*
X436503Y171449D01*
X436247Y170494D01*
Y169506D01*
X436503Y168552D01*
X436997Y167696D01*
X437696Y166997D01*
X438552Y166503D01*
X439506Y166247D01*
X440494D01*
X441448Y166503D01*
X442304Y166997D01*
X443003Y167696D01*
X443497Y168552D01*
X443753Y169506D01*
Y170494D01*
X443497Y171449D01*
X443003Y172304D01*
X442304Y173003D01*
X441448Y173497D01*
X440494Y173753D01*
D02*
G37*
G36*
X473953Y169500D02*
X470500D01*
Y166047D01*
X470520D01*
X471526Y166317D01*
X472427Y166837D01*
X473163Y167573D01*
X473683Y168474D01*
X473953Y169480D01*
Y169500D01*
D02*
G37*
G36*
X469500D02*
X466047D01*
Y169480D01*
X466317Y168474D01*
X466837Y167573D01*
X467573Y166837D01*
X468474Y166317D01*
X469480Y166047D01*
X469500D01*
Y169500D01*
D02*
G37*
G36*
X585500Y159728D02*
Y158000D01*
X587228D01*
X586907Y158774D01*
X586274Y159407D01*
X585500Y159728D01*
D02*
G37*
G36*
X584500D02*
X583726Y159407D01*
X583092Y158774D01*
X582772Y158000D01*
X584500D01*
Y159728D01*
D02*
G37*
G36*
X565500D02*
Y158000D01*
X567228D01*
X566908Y158774D01*
X566274Y159407D01*
X565500Y159728D01*
D02*
G37*
G36*
X564500D02*
X563726Y159407D01*
X563093Y158774D01*
X562772Y158000D01*
X564500D01*
Y159728D01*
D02*
G37*
G36*
X538000D02*
Y158000D01*
X539728D01*
X539407Y158774D01*
X538774Y159407D01*
X538000Y159728D01*
D02*
G37*
G36*
X537000D02*
X536226Y159407D01*
X535593Y158774D01*
X535272Y158000D01*
X537000D01*
Y159728D01*
D02*
G37*
G36*
X480500D02*
Y158000D01*
X482228D01*
X481908Y158774D01*
X481275Y159407D01*
X480500Y159728D01*
D02*
G37*
G36*
X479500D02*
X478725Y159407D01*
X478092Y158774D01*
X477772Y158000D01*
X479500D01*
Y159728D01*
D02*
G37*
G36*
X448000D02*
Y158000D01*
X449728D01*
X449407Y158774D01*
X448774Y159407D01*
X448000Y159728D01*
D02*
G37*
G36*
X447000D02*
X446226Y159407D01*
X445592Y158774D01*
X445272Y158000D01*
X447000D01*
Y159728D01*
D02*
G37*
G36*
X587228Y157000D02*
X585500D01*
Y155272D01*
X586274Y155593D01*
X586907Y156226D01*
X587228Y157000D01*
D02*
G37*
G36*
X584500D02*
X582772D01*
X583092Y156226D01*
X583726Y155593D01*
X584500Y155272D01*
Y157000D01*
D02*
G37*
G36*
X567228D02*
X565500D01*
Y155272D01*
X566274Y155593D01*
X566908Y156226D01*
X567228Y157000D01*
D02*
G37*
G36*
X564500D02*
X562772D01*
X563093Y156226D01*
X563726Y155593D01*
X564500Y155272D01*
Y157000D01*
D02*
G37*
G36*
X539728D02*
X538000D01*
Y155272D01*
X538774Y155593D01*
X539407Y156226D01*
X539728Y157000D01*
D02*
G37*
G36*
X537000D02*
X535272D01*
X535593Y156226D01*
X536226Y155593D01*
X537000Y155272D01*
Y157000D01*
D02*
G37*
G36*
X482228D02*
X480500D01*
Y155272D01*
X481275Y155593D01*
X481908Y156226D01*
X482228Y157000D01*
D02*
G37*
G36*
X479500D02*
X477772D01*
X478092Y156226D01*
X478725Y155593D01*
X479500Y155272D01*
Y157000D01*
D02*
G37*
G36*
X449728D02*
X448000D01*
Y155272D01*
X448774Y155593D01*
X449407Y156226D01*
X449728Y157000D01*
D02*
G37*
G36*
X447000D02*
X445272D01*
X445592Y156226D01*
X446226Y155593D01*
X447000Y155272D01*
Y157000D01*
D02*
G37*
G36*
X450650Y144937D02*
X450500D01*
Y140500D01*
X454937D01*
Y140650D01*
X454601Y141906D01*
X453951Y143031D01*
X453031Y143951D01*
X451906Y144601D01*
X450650Y144937D01*
D02*
G37*
G36*
X449500D02*
X449350D01*
X448094Y144601D01*
X446969Y143951D01*
X446049Y143031D01*
X445399Y141906D01*
X445063Y140650D01*
Y140500D01*
X449500D01*
Y144937D01*
D02*
G37*
G36*
X570624Y144737D02*
X569376D01*
X568172Y144414D01*
X567091Y143791D01*
X566210Y142909D01*
X565586Y141828D01*
X565263Y140624D01*
Y139376D01*
X565586Y138172D01*
X566210Y137091D01*
X567091Y136209D01*
X568172Y135586D01*
X569376Y135263D01*
X570624D01*
X571828Y135586D01*
X572909Y136209D01*
X573791Y137091D01*
X574414Y138172D01*
X574737Y139376D01*
Y140624D01*
X574414Y141828D01*
X573791Y142909D01*
X572909Y143791D01*
X571828Y144414D01*
X570624Y144737D01*
D02*
G37*
G36*
X530624D02*
X529376D01*
X528172Y144414D01*
X527091Y143791D01*
X526209Y142909D01*
X525586Y141828D01*
X525263Y140624D01*
Y139376D01*
X525586Y138172D01*
X526209Y137091D01*
X527091Y136209D01*
X528172Y135586D01*
X529376Y135263D01*
X530624D01*
X531828Y135586D01*
X532909Y136209D01*
X533790Y137091D01*
X534414Y138172D01*
X534737Y139376D01*
Y140624D01*
X534414Y141828D01*
X533790Y142909D01*
X532909Y143791D01*
X531828Y144414D01*
X530624Y144737D01*
D02*
G37*
G36*
X510624D02*
X509376D01*
X508172Y144414D01*
X507091Y143791D01*
X506210Y142909D01*
X505586Y141828D01*
X505263Y140624D01*
Y139376D01*
X505586Y138172D01*
X506210Y137091D01*
X507091Y136209D01*
X508172Y135586D01*
X509376Y135263D01*
X510624D01*
X511828Y135586D01*
X512909Y136209D01*
X513791Y137091D01*
X514414Y138172D01*
X514737Y139376D01*
Y140624D01*
X514414Y141828D01*
X513791Y142909D01*
X512909Y143791D01*
X511828Y144414D01*
X510624Y144737D01*
D02*
G37*
G36*
X490624D02*
X489376D01*
X488172Y144414D01*
X487091Y143791D01*
X486209Y142909D01*
X485586Y141828D01*
X485263Y140624D01*
Y139376D01*
X485586Y138172D01*
X486209Y137091D01*
X487091Y136209D01*
X488172Y135586D01*
X489376Y135263D01*
X490624D01*
X491828Y135586D01*
X492909Y136209D01*
X493790Y137091D01*
X494414Y138172D01*
X494737Y139376D01*
Y140624D01*
X494414Y141828D01*
X493790Y142909D01*
X492909Y143791D01*
X491828Y144414D01*
X490624Y144737D01*
D02*
G37*
G36*
X470624D02*
X469376D01*
X468172Y144414D01*
X467091Y143791D01*
X466210Y142909D01*
X465586Y141828D01*
X465263Y140624D01*
Y139376D01*
X465586Y138172D01*
X466210Y137091D01*
X467091Y136209D01*
X468172Y135586D01*
X469376Y135263D01*
X470624D01*
X471828Y135586D01*
X472909Y136209D01*
X473791Y137091D01*
X474414Y138172D01*
X474737Y139376D01*
Y140624D01*
X474414Y141828D01*
X473791Y142909D01*
X472909Y143791D01*
X471828Y144414D01*
X470624Y144737D01*
D02*
G37*
G36*
X590624Y144737D02*
X589376D01*
X588172Y144414D01*
X587091Y143790D01*
X586209Y142908D01*
X585586Y141828D01*
X585263Y140623D01*
Y139376D01*
X585586Y138171D01*
X586209Y137091D01*
X587091Y136209D01*
X588172Y135585D01*
X589376Y135263D01*
X590624D01*
X591828Y135585D01*
X592909Y136209D01*
X593790Y137091D01*
X594414Y138171D01*
X594737Y139376D01*
Y140623D01*
X594414Y141828D01*
X593790Y142908D01*
X592909Y143790D01*
X591828Y144414D01*
X590624Y144737D01*
D02*
G37*
G36*
X550624D02*
X549376D01*
X548172Y144414D01*
X547091Y143790D01*
X546209Y142908D01*
X545586Y141828D01*
X545263Y140623D01*
Y139376D01*
X545586Y138171D01*
X546209Y137091D01*
X547091Y136209D01*
X548172Y135585D01*
X549376Y135263D01*
X550624D01*
X551828Y135585D01*
X552909Y136209D01*
X553791Y137091D01*
X554414Y138171D01*
X554737Y139376D01*
Y140623D01*
X554414Y141828D01*
X553791Y142908D01*
X552909Y143790D01*
X551828Y144414D01*
X550624Y144737D01*
D02*
G37*
G36*
X454937Y139500D02*
X450500D01*
Y135063D01*
X450650D01*
X451906Y135399D01*
X453031Y136049D01*
X453951Y136969D01*
X454601Y138094D01*
X454937Y139350D01*
Y139500D01*
D02*
G37*
G36*
X449500D02*
X445063D01*
Y139350D01*
X445399Y138094D01*
X446049Y136969D01*
X446969Y136049D01*
X448094Y135399D01*
X449350Y135063D01*
X449500D01*
Y139500D01*
D02*
G37*
G36*
X650850Y120800D02*
X649150D01*
X647471Y120534D01*
X645854Y120009D01*
X644340Y119237D01*
X642964Y118238D01*
X641762Y117036D01*
X640763Y115660D01*
X639991Y114146D01*
X639466Y112529D01*
X639200Y110850D01*
Y109150D01*
X639466Y107471D01*
X639991Y105854D01*
X640763Y104340D01*
X641762Y102964D01*
X642964Y101762D01*
X644340Y100763D01*
X645854Y99991D01*
X647471Y99466D01*
X649150Y99200D01*
X650850D01*
X652529Y99466D01*
X654146Y99991D01*
X655660Y100763D01*
X657036Y101762D01*
X658238Y102964D01*
X659237Y104340D01*
X660009Y105854D01*
X660534Y107471D01*
X660800Y109150D01*
Y110850D01*
X660534Y112529D01*
X660009Y114146D01*
X659237Y115660D01*
X658238Y117036D01*
X657036Y118238D01*
X655660Y119237D01*
X654146Y120009D01*
X652529Y120534D01*
X650850Y120800D01*
D02*
G37*
G36*
X370850D02*
X369150D01*
X367471Y120534D01*
X365854Y120009D01*
X364340Y119237D01*
X362964Y118238D01*
X361762Y117036D01*
X360763Y115660D01*
X359991Y114146D01*
X359466Y112529D01*
X359200Y110850D01*
Y109150D01*
X359466Y107471D01*
X359991Y105854D01*
X360763Y104340D01*
X361762Y102964D01*
X362964Y101762D01*
X364340Y100763D01*
X365854Y99991D01*
X367471Y99466D01*
X369150Y99200D01*
X370850D01*
X372529Y99466D01*
X374146Y99991D01*
X375660Y100763D01*
X377036Y101762D01*
X378238Y102964D01*
X379237Y104340D01*
X380009Y105854D01*
X380534Y107471D01*
X380800Y109150D01*
Y110850D01*
X380534Y112529D01*
X380009Y114146D01*
X379237Y115660D01*
X378238Y117036D01*
X377036Y118238D01*
X375660Y119237D01*
X374146Y120009D01*
X372529Y120534D01*
X370850Y120800D01*
D02*
G37*
%LPD*%
G36*
X505000Y497000D02*
X503100Y496900D01*
X501400Y496600D01*
X499900Y496100D01*
X498600Y495400D01*
X497500Y494500D01*
X496600Y493400D01*
X495900Y492100D01*
X495400Y490600D01*
X495100Y488900D01*
X495000Y487000D01*
X485000D01*
X484900Y488900D01*
X484600Y490600D01*
X484100Y492100D01*
X483400Y493400D01*
X482500Y494500D01*
X481400Y495400D01*
X480100Y496100D01*
X478600Y496600D01*
X476900Y496900D01*
X475000Y497000D01*
X490000Y507000D01*
X505000Y497000D01*
D02*
G37*
G36*
X455000D02*
X453100Y496900D01*
X451400Y496600D01*
X449900Y496100D01*
X448600Y495400D01*
X447500Y494500D01*
X446600Y493400D01*
X445900Y492100D01*
X445400Y490600D01*
X445100Y488900D01*
X445000Y487000D01*
X435000D01*
X434900Y488900D01*
X434600Y490600D01*
X434100Y492100D01*
X433400Y493400D01*
X432500Y494500D01*
X431400Y495400D01*
X430100Y496100D01*
X428600Y496600D01*
X426900Y496900D01*
X425000Y497000D01*
X440000Y507000D01*
X455000Y497000D01*
D02*
G37*
G36*
X405097Y459628D02*
X405277Y458753D01*
X405512Y457904D01*
X405803Y457082D01*
X406149Y456287D01*
X406550Y455518D01*
X407006Y454775D01*
X407518Y454059D01*
X408085Y453370D01*
X408707Y452707D01*
X407293Y451293D01*
X406630Y451915D01*
X405940Y452482D01*
X405224Y452993D01*
X404482Y453450D01*
X403713Y453851D01*
X402917Y454197D01*
X402095Y454487D01*
X401247Y454723D01*
X400372Y454903D01*
X399470Y455028D01*
X400499Y456056D01*
X400039Y456063D01*
X403936Y459961D01*
X403943Y459501D01*
X404972Y460529D01*
X405097Y459628D01*
D02*
G37*
G36*
X381100Y473100D02*
X381400Y471400D01*
X381900Y469900D01*
X382600Y468600D01*
X383500Y467500D01*
X384600Y466600D01*
X385900Y465900D01*
X387400Y465400D01*
X389100Y465100D01*
X391000Y465000D01*
Y455000D01*
X389100Y454900D01*
X387400Y454600D01*
X385900Y454100D01*
X384600Y453400D01*
X383500Y452500D01*
X382600Y451400D01*
X381900Y450100D01*
X381400Y448600D01*
X381100Y446900D01*
X381000Y445000D01*
X371000Y460000D01*
X381000Y475000D01*
X381100Y473100D01*
D02*
G37*
G36*
X430154Y406000D02*
X430134Y406190D01*
X430073Y406360D01*
X429973Y406510D01*
X429832Y406640D01*
X429651Y406750D01*
X429430Y406840D01*
X429168Y406910D01*
X428866Y406960D01*
X428524Y406990D01*
X428142Y407000D01*
Y409000D01*
X428524Y409010D01*
X428866Y409040D01*
X429168Y409090D01*
X429430Y409160D01*
X429651Y409250D01*
X429832Y409360D01*
X429973Y409490D01*
X430073Y409640D01*
X430134Y409810D01*
X430154Y410000D01*
Y406000D01*
D02*
G37*
G36*
X513549Y375072D02*
X515912Y374908D01*
X516684Y374802D01*
Y369229D01*
X512062D01*
X512044Y369233D01*
X512025Y369229D01*
X511232D01*
Y369054D01*
X510803Y368844D01*
X510670Y368934D01*
Y368934D01*
X509876D01*
X509858Y368937D01*
X509840Y368934D01*
X505330D01*
Y368934D01*
X504870Y369031D01*
Y369134D01*
X503073D01*
X503077Y369102D01*
X503137Y368842D01*
X503215Y368622D01*
X503309Y368442D01*
X503420Y368302D01*
X503549Y368202D01*
X503695Y368142D01*
X503858Y368122D01*
X502500D01*
Y366461D01*
X501500D01*
Y368122D01*
X500142D01*
X500305Y368142D01*
X500451Y368202D01*
X500580Y368302D01*
X500691Y368442D01*
X500785Y368622D01*
X500863Y368842D01*
X500923Y369102D01*
X500927Y369134D01*
X499130D01*
Y369031D01*
X498670Y368934D01*
Y368934D01*
X497642D01*
X497615Y369030D01*
X497590Y369185D01*
X497580Y369291D01*
Y372845D01*
X499812Y375077D01*
X513180D01*
X513549Y375072D01*
D02*
G37*
G36*
X496758Y369337D02*
X496780Y369082D01*
X496817Y368857D01*
X496870Y368662D01*
X496938Y368497D01*
X497020Y368362D01*
X497118Y368257D01*
X497230Y368182D01*
X497358Y368137D01*
X497500Y368122D01*
X494500D01*
X494642Y368137D01*
X494770Y368182D01*
X494882Y368257D01*
X494980Y368362D01*
X495062Y368497D01*
X495130Y368662D01*
X495183Y368857D01*
X495220Y369082D01*
X495243Y369337D01*
X495250Y369622D01*
X496750D01*
X496758Y369337D01*
D02*
G37*
G36*
X512044Y364898D02*
X512023Y365023D01*
X511964Y365136D01*
X511864Y365235D01*
X511724Y365321D01*
X511544Y365394D01*
X511323Y365453D01*
X511063Y365499D01*
X511002Y365506D01*
X510838Y365491D01*
X510578Y365438D01*
X510358Y365369D01*
X510178Y365286D01*
X510038Y365187D01*
X509938Y365073D01*
X509878Y364944D01*
X509858Y364799D01*
Y368122D01*
X509878Y368015D01*
X509938Y367919D01*
X510038Y367835D01*
X510178Y367762D01*
X510358Y367700D01*
X510578Y367649D01*
X510838Y367610D01*
X510862Y367607D01*
X511063Y367636D01*
X511323Y367696D01*
X511544Y367774D01*
X511724Y367868D01*
X511864Y367980D01*
X511964Y368108D01*
X512023Y368254D01*
X512044Y368417D01*
Y364898D01*
D02*
G37*
G36*
X506142Y359878D02*
X506122Y360004D01*
X506062Y360116D01*
X505962Y360215D01*
X505822Y360301D01*
X505642Y360374D01*
X505422Y360434D01*
X505162Y360480D01*
X505023Y360495D01*
X504838Y360480D01*
X504578Y360434D01*
X504358Y360374D01*
X504178Y360301D01*
X504038Y360215D01*
X503938Y360116D01*
X503878Y360004D01*
X503858Y359878D01*
Y363201D01*
X503878Y363075D01*
X503938Y362963D01*
X504038Y362863D01*
X504178Y362777D01*
X504358Y362705D01*
X504578Y362645D01*
X504838Y362599D01*
X504977Y362584D01*
X505162Y362599D01*
X505422Y362645D01*
X505642Y362705D01*
X505822Y362777D01*
X505962Y362863D01*
X506062Y362963D01*
X506122Y363075D01*
X506142Y363201D01*
Y359878D01*
D02*
G37*
G36*
X500142D02*
X500122Y360004D01*
X500062Y360116D01*
X499962Y360215D01*
X499822Y360301D01*
X499642Y360374D01*
X499422Y360434D01*
X499162Y360480D01*
X499023Y360495D01*
X498838Y360480D01*
X498578Y360434D01*
X498358Y360374D01*
X498178Y360301D01*
X498038Y360215D01*
X497938Y360116D01*
X497878Y360004D01*
X497858Y359878D01*
Y363201D01*
X497878Y363075D01*
X497938Y362963D01*
X498038Y362863D01*
X498178Y362777D01*
X498358Y362705D01*
X498578Y362645D01*
X498838Y362599D01*
X498977Y362584D01*
X499162Y362599D01*
X499422Y362645D01*
X499642Y362705D01*
X499822Y362777D01*
X499962Y362863D01*
X500062Y362963D01*
X500122Y363075D01*
X500142Y363201D01*
Y359878D01*
D02*
G37*
G36*
X537000Y334500D02*
X530000Y327500D01*
X497500D01*
Y355000D01*
X510173D01*
Y348500D01*
X521500D01*
Y355398D01*
X516051D01*
X515860Y355860D01*
X517500Y357500D01*
Y360328D01*
X516936Y360274D01*
X516677Y360221D01*
X516457Y360153D01*
X516277Y360069D01*
X516137Y359970D01*
X516037Y359856D01*
X515976Y359727D01*
X515956Y359583D01*
Y363102D01*
X515976Y362958D01*
X516037Y362829D01*
X516137Y362715D01*
X516277Y362616D01*
X516457Y362532D01*
X516677Y362464D01*
X516936Y362411D01*
X517237Y362373D01*
X517500Y362355D01*
Y375488D01*
X517054Y375575D01*
X515996Y375720D01*
X513583Y375887D01*
X512228Y375907D01*
Y377408D01*
X513583Y377428D01*
X515996Y377595D01*
X517054Y377740D01*
X517907Y377907D01*
X527500Y387500D01*
X537000D01*
Y334500D01*
D02*
G37*
G36*
X494504Y357771D02*
X494515Y357652D01*
X494534Y357539D01*
X494560Y357430D01*
X494594Y357327D01*
X494635Y357230D01*
X494684Y357137D01*
X494740Y357050D01*
X494804Y356969D01*
X494875Y356893D01*
X493125D01*
X493196Y356969D01*
X493260Y357050D01*
X493316Y357137D01*
X493365Y357230D01*
X493406Y357327D01*
X493440Y357430D01*
X493466Y357539D01*
X493485Y357652D01*
X493496Y357771D01*
X493500Y357896D01*
X494500D01*
X494504Y357771D01*
D02*
G37*
%LPC*%
G36*
X502500Y374228D02*
Y372500D01*
X504228D01*
X503907Y373274D01*
X503274Y373907D01*
X502500Y374228D01*
D02*
G37*
G36*
X501500D02*
X500726Y373907D01*
X500093Y373274D01*
X499772Y372500D01*
X501500D01*
Y374228D01*
D02*
G37*
G36*
X504228Y371500D02*
X502500D01*
Y370122D01*
X503000D01*
X503003Y369980D01*
X503274Y370093D01*
X503907Y370725D01*
X504228Y371500D01*
D02*
G37*
G36*
X501500D02*
X499772D01*
X500093Y370725D01*
X500726Y370093D01*
X500997Y369980D01*
X501000Y370122D01*
X501500D01*
Y371500D01*
D02*
G37*
G36*
X523658Y376000D02*
X523631D01*
X522613Y375727D01*
X521701Y375201D01*
X521331Y374830D01*
Y373827D01*
X520865Y374222D01*
X520833Y374242D01*
X520430Y373544D01*
X520157Y372527D01*
Y372500D01*
X523658D01*
Y376000D01*
D02*
G37*
G36*
X524684D02*
X524657D01*
Y372500D01*
X528158D01*
Y372527D01*
X527885Y373544D01*
X527358Y374456D01*
X526614Y375201D01*
X525701Y375727D01*
X524684Y376000D01*
D02*
G37*
G36*
X523658Y371500D02*
X520157D01*
Y371473D01*
X520430Y370456D01*
X520957Y369544D01*
X521094Y369407D01*
X520982Y369568D01*
X522325D01*
X522266Y369639D01*
X522057Y369858D01*
X523658D01*
Y371500D01*
D02*
G37*
G36*
X528158D02*
X524657D01*
Y369858D01*
X526258D01*
X526049Y369639D01*
X525990Y369568D01*
X527333D01*
X527200Y369386D01*
X527358Y369544D01*
X527885Y370456D01*
X528158Y371473D01*
Y371500D01*
D02*
G37*
G36*
X533827Y355398D02*
X522500D01*
Y348500D01*
X533827D01*
Y355398D01*
D02*
G37*
G36*
Y347500D02*
X522500D01*
Y340602D01*
X533827D01*
Y347500D01*
D02*
G37*
G36*
X521500D02*
X510173D01*
Y340602D01*
X521500D01*
Y347500D01*
D02*
G37*
%LPD*%
G36*
X564040Y454318D02*
X564160Y452958D01*
X564360Y451758D01*
X564640Y450718D01*
X565000Y449838D01*
X565440Y449118D01*
X565960Y448558D01*
X566560Y448158D01*
X567240Y447918D01*
X568000Y447838D01*
X552000D01*
X552760Y447918D01*
X553440Y448158D01*
X554040Y448558D01*
X554560Y449118D01*
X555000Y449838D01*
X555360Y450718D01*
X555640Y451758D01*
X555840Y452958D01*
X555960Y454318D01*
X556000Y455838D01*
X564000D01*
X564040Y454318D01*
D02*
G37*
G36*
X515733D02*
X515853Y452958D01*
X516053Y451758D01*
X516333Y450718D01*
X516693Y449838D01*
X517133Y449118D01*
X517653Y448558D01*
X518253Y448158D01*
X518933Y447918D01*
X519693Y447838D01*
X507705D01*
X507693Y455838D01*
X515693D01*
X515733Y454318D01*
D02*
G37*
G36*
X470267Y451911D02*
X473208Y449422D01*
X474509Y448517D01*
X475697Y447838D01*
X476772Y447386D01*
X477734Y447160D01*
X478582D01*
X479318Y447386D01*
X479940Y447838D01*
X468626Y436525D01*
X469079Y437147D01*
X469305Y437882D01*
Y438731D01*
X469079Y439692D01*
X468626Y440767D01*
X467947Y441955D01*
X467042Y443256D01*
X465911Y444671D01*
X462969Y447838D01*
X468626Y453495D01*
X470267Y451911D01*
D02*
G37*
G36*
X429653Y452449D02*
X433330Y449338D01*
X434957Y448207D01*
X436441Y447358D01*
X437785Y446792D01*
X438987Y446510D01*
X440048D01*
X440967Y446792D01*
X441745Y447358D01*
X427603Y433216D01*
X428168Y433994D01*
X428451Y434913D01*
Y435974D01*
X428168Y437176D01*
X427603Y438519D01*
X426754Y440004D01*
X425623Y441631D01*
X424208Y443398D01*
X420532Y447358D01*
X427603Y454429D01*
X429653Y452449D01*
D02*
G37*
G36*
X552880Y408905D02*
X552910Y408820D01*
X552961Y408745D01*
X553032Y408680D01*
X553123Y408625D01*
X553234Y408580D01*
X553366Y408545D01*
X553517Y408520D01*
X553689Y408505D01*
X553882Y408500D01*
Y407500D01*
X553689Y407495D01*
X553517Y407480D01*
X553366Y407455D01*
X553234Y407420D01*
X553123Y407375D01*
X553032Y407320D01*
X552961Y407255D01*
X552910Y407180D01*
X552880Y407095D01*
X552870Y407000D01*
Y409000D01*
X552880Y408905D01*
D02*
G37*
G36*
X557332Y406667D02*
X557347Y406495D01*
X557372Y406344D01*
X557407Y406212D01*
X557452Y406101D01*
X557507Y406010D01*
X557572Y405939D01*
X557647Y405888D01*
X557732Y405857D01*
X557827Y405846D01*
X556339Y405858D01*
X556327Y406858D01*
X557327D01*
X557332Y406667D01*
D02*
G37*
G36*
X558905Y402144D02*
X558820Y402113D01*
X558745Y402063D01*
X558680Y401992D01*
X558625Y401901D01*
X558580Y401790D01*
X558545Y401658D01*
X558520Y401506D01*
X558505Y401334D01*
X558500Y401142D01*
X557500D01*
X557495Y401334D01*
X557480Y401506D01*
X557455Y401658D01*
X557420Y401790D01*
X557375Y401901D01*
X557320Y401992D01*
X557255Y402063D01*
X557180Y402113D01*
X557095Y402144D01*
X557000Y402154D01*
X559000D01*
X558905Y402144D01*
D02*
G37*
G36*
X558504Y397771D02*
X558515Y397652D01*
X558534Y397538D01*
X558560Y397430D01*
X558594Y397327D01*
X558635Y397230D01*
X558684Y397137D01*
X558740Y397050D01*
X558804Y396969D01*
X558875Y396893D01*
X557125D01*
X557196Y396969D01*
X557260Y397050D01*
X557316Y397137D01*
X557365Y397230D01*
X557406Y397327D01*
X557440Y397430D01*
X557466Y397538D01*
X557485Y397652D01*
X557496Y397771D01*
X557500Y397896D01*
X558500D01*
X558504Y397771D01*
D02*
G37*
G36*
X513959Y408905D02*
X513989Y408820D01*
X514040Y408745D01*
X514110Y408680D01*
X514201Y408625D01*
X514313Y408580D01*
X514444Y408545D01*
X514596Y408520D01*
X514768Y408505D01*
X514960Y408500D01*
Y407500D01*
X514768Y407495D01*
X514596Y407480D01*
X514444Y407455D01*
X514313Y407420D01*
X514201Y407375D01*
X514110Y407320D01*
X514040Y407255D01*
X513989Y407180D01*
X513959Y407095D01*
X513948Y407000D01*
Y409000D01*
X513959Y408905D01*
D02*
G37*
G36*
X519584Y406666D02*
X519599Y406494D01*
X519624Y406342D01*
X519659Y406210D01*
X519704Y406099D01*
X519759Y406008D01*
X519824Y405937D01*
X519899Y405887D01*
X519984Y405856D01*
X520079Y405846D01*
X518079D01*
X518174Y405856D01*
X518259Y405887D01*
X518334Y405937D01*
X518399Y406008D01*
X518454Y406099D01*
X518499Y406210D01*
X518534Y406342D01*
X518559Y406494D01*
X518574Y406666D01*
X518579Y406858D01*
X519579D01*
X519584Y406666D01*
D02*
G37*
G36*
X518832Y402142D02*
X518754Y402199D01*
X518662Y402227D01*
X518556D01*
X518436Y402199D01*
X518301Y402142D01*
X518153Y402057D01*
X517990Y401944D01*
X517813Y401802D01*
X517417Y401435D01*
X516710Y402142D01*
X516908Y402347D01*
X517219Y402715D01*
X517333Y402877D01*
X517417Y403026D01*
X517474Y403160D01*
X517502Y403280D01*
Y403386D01*
X517474Y403478D01*
X517417Y403556D01*
X518832Y402142D01*
D02*
G37*
G36*
X511406Y395423D02*
X511318Y395329D01*
X511245Y395237D01*
X511184Y395145D01*
X511137Y395054D01*
X511103Y394964D01*
X511083Y394874D01*
X511076Y394785D01*
X511082Y394697D01*
X511102Y394610D01*
X511135Y394524D01*
X509507Y395149D01*
X509585Y395186D01*
X509669Y395235D01*
X509762Y395296D01*
X509970Y395454D01*
X510207Y395658D01*
X510621Y396052D01*
X511406Y395423D01*
D02*
G37*
G36*
X474880Y409385D02*
X474910Y409300D01*
X474961Y409225D01*
X475032Y409160D01*
X475123Y409105D01*
X475234Y409060D01*
X475366Y409025D01*
X475517Y409000D01*
X475689Y408985D01*
X475882Y408980D01*
Y407980D01*
X475689Y407975D01*
X475517Y407960D01*
X475366Y407935D01*
X475234Y407900D01*
X475123Y407855D01*
X475032Y407800D01*
X474961Y407735D01*
X474910Y407660D01*
X474880Y407575D01*
X474870Y407480D01*
Y409480D01*
X474880Y409385D01*
D02*
G37*
G36*
X479332Y406667D02*
X479347Y406495D01*
X479372Y406344D01*
X479407Y406212D01*
X479452Y406101D01*
X479507Y406010D01*
X479572Y405939D01*
X479647Y405888D01*
X479732Y405857D01*
X479827Y405846D01*
X478339Y405858D01*
X478327Y406858D01*
X479327D01*
X479332Y406667D01*
D02*
G37*
G36*
X472905Y404163D02*
X472820Y404132D01*
X472745Y404081D01*
X472680Y404010D01*
X472625Y403919D01*
X472580Y403808D01*
X472545Y403676D01*
X472520Y403525D01*
X472505Y403353D01*
X472500Y403162D01*
X471500D01*
X471497Y403352D01*
X471470Y403672D01*
X471447Y403802D01*
X471416Y403912D01*
X471380Y404002D01*
X471336Y404072D01*
X471286Y404122D01*
X471229Y404152D01*
X471166Y404162D01*
X473000Y404174D01*
X472905Y404163D01*
D02*
G37*
G36*
X472504Y399771D02*
X472515Y399652D01*
X472534Y399538D01*
X472560Y399430D01*
X472594Y399327D01*
X472635Y399230D01*
X472684Y399137D01*
X472740Y399050D01*
X472804Y398969D01*
X472875Y398893D01*
X471125D01*
X471196Y398969D01*
X471260Y399050D01*
X471316Y399137D01*
X471365Y399230D01*
X471406Y399327D01*
X471440Y399430D01*
X471466Y399538D01*
X471485Y399652D01*
X471496Y399771D01*
X471500Y399896D01*
X472500D01*
X472504Y399771D01*
D02*
G37*
G36*
X480165Y371752D02*
X480130Y371668D01*
X480118Y371575D01*
X480130Y371472D01*
X480164Y371360D01*
X480222Y371239D01*
X480303Y371109D01*
X480408Y370969D01*
X480536Y370820D01*
X480687Y370662D01*
X479980Y369955D01*
X479822Y370106D01*
X479673Y370234D01*
X479533Y370338D01*
X479403Y370420D01*
X479282Y370478D01*
X479170Y370512D01*
X479067Y370524D01*
X478974Y370512D01*
X478890Y370476D01*
X478815Y370418D01*
X480224Y371827D01*
X480165Y371752D01*
D02*
G37*
G36*
X484154Y368539D02*
X484144Y368634D01*
X484113Y368719D01*
X484063Y368794D01*
X483992Y368859D01*
X483901Y368914D01*
X483790Y368959D01*
X483658Y368994D01*
X483506Y369019D01*
X483334Y369034D01*
X483142Y369039D01*
Y370039D01*
X483334Y370044D01*
X483506Y370059D01*
X483658Y370084D01*
X483790Y370119D01*
X483901Y370164D01*
X483992Y370219D01*
X484063Y370284D01*
X484113Y370359D01*
X484144Y370444D01*
X484154Y370539D01*
Y368539D01*
D02*
G37*
G36*
X468969Y360804D02*
X469050Y360740D01*
X469137Y360684D01*
X469230Y360635D01*
X469327Y360594D01*
X469430Y360560D01*
X469538Y360534D01*
X469652Y360515D01*
X469771Y360504D01*
X469896Y360500D01*
Y359500D01*
X469771Y359496D01*
X469652Y359485D01*
X469538Y359466D01*
X469430Y359440D01*
X469327Y359406D01*
X469230Y359365D01*
X469137Y359316D01*
X469050Y359260D01*
X468969Y359196D01*
X468893Y359125D01*
Y360875D01*
X468969Y360804D01*
D02*
G37*
G36*
X438810Y353374D02*
X441465Y351093D01*
X442051Y350678D01*
X443132Y350034D01*
X443626Y349805D01*
X444089Y349639D01*
X437995Y345907D01*
X437972Y345888D01*
X437866Y345957D01*
X437676Y346114D01*
X436605Y347113D01*
X434005Y349678D01*
X438069Y354099D01*
X438810Y353374D01*
D02*
G37*
G36*
X480165Y335752D02*
X480130Y335668D01*
X480118Y335575D01*
X480130Y335472D01*
X480164Y335360D01*
X480222Y335239D01*
X480303Y335109D01*
X480408Y334969D01*
X480536Y334820D01*
X480687Y334662D01*
X479980Y333955D01*
X479822Y334106D01*
X479673Y334234D01*
X479533Y334338D01*
X479403Y334419D01*
X479282Y334477D01*
X479170Y334512D01*
X479067Y334524D01*
X478974Y334511D01*
X478890Y334476D01*
X478815Y334418D01*
X480224Y335827D01*
X480165Y335752D01*
D02*
G37*
G36*
X484154Y332539D02*
X484144Y332634D01*
X484113Y332719D01*
X484063Y332794D01*
X483992Y332859D01*
X483901Y332914D01*
X483790Y332959D01*
X483658Y332994D01*
X483506Y333019D01*
X483334Y333034D01*
X483142Y333039D01*
Y334039D01*
X483334Y334044D01*
X483506Y334059D01*
X483658Y334084D01*
X483790Y334119D01*
X483901Y334164D01*
X483992Y334219D01*
X484063Y334284D01*
X484113Y334359D01*
X484144Y334444D01*
X484154Y334539D01*
Y332539D01*
D02*
G37*
G36*
X466969Y326804D02*
X467050Y326740D01*
X467137Y326684D01*
X467230Y326635D01*
X467327Y326594D01*
X467430Y326560D01*
X467538Y326534D01*
X467652Y326515D01*
X467771Y326504D01*
X467896Y326500D01*
Y325500D01*
X467771Y325496D01*
X467652Y325485D01*
X467538Y325466D01*
X467430Y325440D01*
X467327Y325406D01*
X467230Y325365D01*
X467137Y325316D01*
X467050Y325260D01*
X466969Y325196D01*
X466893Y325125D01*
Y326875D01*
X466969Y326804D01*
D02*
G37*
G36*
X597500Y317500D02*
X596060D01*
X595669Y317764D01*
X595669Y318000D01*
Y339130D01*
X574000D01*
X552331D01*
Y317764D01*
X562057D01*
X562264Y317264D01*
X540000Y295000D01*
Y290000D01*
Y257500D01*
X504000D01*
Y314000D01*
X528160D01*
X550000Y335000D01*
Y365000D01*
X597500D01*
Y317500D01*
D02*
G37*
%LPC*%
G36*
X595669Y361496D02*
X574500D01*
Y340130D01*
X595669D01*
Y361496D01*
D02*
G37*
G36*
X573500D02*
X552331D01*
Y340130D01*
X573500D01*
Y361496D01*
D02*
G37*
G36*
X533827Y311106D02*
X522500D01*
Y304209D01*
X533827D01*
Y311106D01*
D02*
G37*
G36*
X521500D02*
X510173D01*
Y304209D01*
X521500D01*
Y311106D01*
D02*
G37*
G36*
X533827Y303209D02*
X522500D01*
Y296311D01*
X533827D01*
Y303209D01*
D02*
G37*
G36*
X521500D02*
X510173D01*
Y296311D01*
X521500D01*
Y303209D01*
D02*
G37*
G36*
X539496Y292386D02*
X524823D01*
Y278500D01*
X539496D01*
Y292386D01*
D02*
G37*
G36*
X523823D02*
X509150D01*
Y278500D01*
X523823D01*
Y292386D01*
D02*
G37*
G36*
X539496Y277500D02*
X524823D01*
Y263614D01*
X539496D01*
Y277500D01*
D02*
G37*
G36*
X523823D02*
X509150D01*
Y263614D01*
X523823D01*
Y277500D01*
D02*
G37*
%LPD*%
G36*
X474142Y302339D02*
X473142Y302327D01*
Y303327D01*
X473334Y303332D01*
X473505Y303347D01*
X473656Y303372D01*
X473788Y303407D01*
X473899Y303452D01*
X473990Y303507D01*
X474061Y303572D01*
X474112Y303647D01*
X474143Y303732D01*
X474154Y303827D01*
X474142Y302339D01*
D02*
G37*
G36*
X472505Y299689D02*
X472520Y299517D01*
X472545Y299366D01*
X472580Y299234D01*
X472625Y299123D01*
X472680Y299032D01*
X472745Y298961D01*
X472820Y298910D01*
X472905Y298880D01*
X473000Y298870D01*
X471000D01*
X471095Y298880D01*
X471180Y298910D01*
X471255Y298961D01*
X471320Y299032D01*
X471375Y299123D01*
X471420Y299234D01*
X471455Y299366D01*
X471480Y299517D01*
X471495Y299689D01*
X471500Y299882D01*
X472500D01*
X472505Y299689D01*
D02*
G37*
G36*
X475837Y296905D02*
X475868Y296820D01*
X475919Y296745D01*
X475990Y296680D01*
X476081Y296625D01*
X476192Y296580D01*
X476324Y296545D01*
X476475Y296520D01*
X476647Y296505D01*
X476838Y296500D01*
Y295500D01*
X476648Y295497D01*
X476328Y295470D01*
X476198Y295446D01*
X476088Y295416D01*
X475998Y295380D01*
X475928Y295336D01*
X475878Y295286D01*
X475848Y295229D01*
X475838Y295165D01*
X475826Y297000D01*
X475837Y296905D01*
D02*
G37*
G36*
X481107Y295125D02*
X481031Y295196D01*
X480950Y295260D01*
X480863Y295316D01*
X480770Y295365D01*
X480673Y295406D01*
X480570Y295440D01*
X480462Y295466D01*
X480348Y295485D01*
X480229Y295496D01*
X480104Y295500D01*
Y296500D01*
X480229Y296504D01*
X480348Y296515D01*
X480462Y296534D01*
X480570Y296560D01*
X480673Y296594D01*
X480770Y296635D01*
X480863Y296684D01*
X480950Y296740D01*
X481031Y296804D01*
X481107Y296875D01*
Y295125D01*
D02*
G37*
G36*
X572500Y278249D02*
X572038Y278057D01*
X570798Y279298D01*
X570202Y279696D01*
X569500Y279835D01*
X566486D01*
X566368Y279850D01*
X566171Y279891D01*
X565978Y279948D01*
X565791Y280022D01*
X565606Y280113D01*
X565530Y280158D01*
X565358Y280456D01*
X564613Y281201D01*
X563701Y281727D01*
X562684Y282000D01*
X562657D01*
Y278000D01*
Y274000D01*
X562684D01*
X563701Y274273D01*
X564613Y274799D01*
X565358Y275544D01*
X565530Y275842D01*
X565606Y275887D01*
X565791Y275978D01*
X565978Y276052D01*
X566171Y276109D01*
X566368Y276150D01*
X566486Y276165D01*
X568740D01*
X571943Y272962D01*
X571751Y272500D01*
X542500D01*
Y292500D01*
X572500D01*
Y278249D01*
D02*
G37*
G36*
X564519Y279891D02*
X564744Y279704D01*
X564977Y279539D01*
X565215Y279396D01*
X565460Y279275D01*
X565712Y279176D01*
X565971Y279099D01*
X566236Y279044D01*
X566508Y279011D01*
X566786Y279000D01*
Y277000D01*
X566508Y276989D01*
X566236Y276956D01*
X565971Y276901D01*
X565712Y276824D01*
X565460Y276725D01*
X565215Y276604D01*
X564977Y276461D01*
X564744Y276296D01*
X564519Y276109D01*
X564300Y275900D01*
Y280100D01*
X564519Y279891D01*
D02*
G37*
G36*
X549810Y267157D02*
X549640Y267097D01*
X549490Y266997D01*
X549360Y266856D01*
X549250Y266674D01*
X549160Y266453D01*
X549090Y266192D01*
X549040Y265890D01*
X549010Y265548D01*
X549000Y265165D01*
X547000D01*
X546990Y265548D01*
X546960Y265890D01*
X546910Y266192D01*
X546840Y266453D01*
X546750Y266674D01*
X546640Y266856D01*
X546510Y266997D01*
X546360Y267097D01*
X546190Y267157D01*
X546000Y267178D01*
X550000D01*
X549810Y267157D01*
D02*
G37*
G36*
X583007Y263478D02*
X583060Y262838D01*
X583106Y262578D01*
X583165Y262358D01*
X583238Y262178D01*
X583324Y262038D01*
X583423Y261938D01*
X583536Y261878D01*
X583661Y261858D01*
X580339D01*
X580464Y261878D01*
X580577Y261938D01*
X580676Y262038D01*
X580762Y262178D01*
X580835Y262358D01*
X580894Y262578D01*
X580940Y262838D01*
X580973Y263138D01*
X581000Y263858D01*
X583000D01*
X583007Y263478D01*
D02*
G37*
G36*
X578085D02*
X578138Y262838D01*
X578185Y262578D01*
X578244Y262358D01*
X578317Y262178D01*
X578403Y262038D01*
X578502Y261938D01*
X578614Y261878D01*
X578740Y261858D01*
X575418D01*
X575543Y261878D01*
X575656Y261938D01*
X575755Y262038D01*
X575841Y262178D01*
X575913Y262358D01*
X575973Y262578D01*
X576019Y262838D01*
X576052Y263138D01*
X576079Y263858D01*
X578079D01*
X578085Y263478D01*
D02*
G37*
G36*
X549007D02*
X549059Y262838D01*
X549106Y262578D01*
X549165Y262358D01*
X549238Y262178D01*
X549324Y262038D01*
X549423Y261938D01*
X549536Y261878D01*
X549661Y261858D01*
X546339D01*
X546464Y261878D01*
X546577Y261938D01*
X546676Y262038D01*
X546762Y262178D01*
X546835Y262358D01*
X546894Y262578D01*
X546941Y262838D01*
X546974Y263138D01*
X547000Y263858D01*
X549000D01*
X549007Y263478D01*
D02*
G37*
G36*
X571529Y261977D02*
X571544Y261805D01*
X571569Y261653D01*
X571604Y261521D01*
X571649Y261410D01*
X571704Y261319D01*
X571769Y261248D01*
X571844Y261198D01*
X571929Y261167D01*
X572024Y261157D01*
X570024D01*
X570119Y261167D01*
X570204Y261198D01*
X570279Y261248D01*
X570344Y261319D01*
X570399Y261410D01*
X570444Y261521D01*
X570479Y261653D01*
X570504Y261805D01*
X570519Y261977D01*
X570524Y262169D01*
X571524D01*
X571529Y261977D01*
D02*
G37*
G36*
X554602Y261695D02*
X554663Y261549D01*
X554763Y261420D01*
X554903Y261309D01*
X555083Y261214D01*
X555302Y261137D01*
X555562Y261077D01*
X555863Y261034D01*
X556203Y261009D01*
X556444Y261003D01*
X557964Y261108D01*
X558024Y261137D01*
X558043Y261169D01*
Y258831D01*
X558024Y258863D01*
X557964Y258892D01*
X557864Y258917D01*
X557724Y258939D01*
X557544Y258958D01*
X556764Y258993D01*
X556424Y258996D01*
X556203Y258991D01*
X555863Y258966D01*
X555562Y258923D01*
X555302Y258863D01*
X555083Y258786D01*
X554903Y258691D01*
X554763Y258579D01*
X554663Y258451D01*
X554602Y258305D01*
X554583Y258142D01*
Y261858D01*
X554602Y261695D01*
D02*
G37*
G36*
X583681D02*
X583741Y261549D01*
X583841Y261420D01*
X583981Y261309D01*
X584161Y261214D01*
X584381Y261137D01*
X584641Y261077D01*
X584941Y261034D01*
X585281Y261009D01*
X585661Y261000D01*
Y259000D01*
X585281Y258991D01*
X584941Y258966D01*
X584641Y258923D01*
X584381Y258863D01*
X584161Y258786D01*
X583981Y258691D01*
X583841Y258579D01*
X583741Y258451D01*
X583681Y258305D01*
X583661Y258142D01*
Y261858D01*
X583681Y261695D01*
D02*
G37*
G36*
X578596Y258122D02*
X578467Y258062D01*
X578352Y257962D01*
X578254Y257822D01*
X578170Y257642D01*
X578102Y257422D01*
X578049Y257162D01*
X578032Y257031D01*
X578040Y256937D01*
X578086Y256677D01*
X578146Y256456D01*
X578218Y256276D01*
X578304Y256136D01*
X578404Y256036D01*
X578516Y255977D01*
X578642Y255957D01*
X575122D01*
X575285Y255977D01*
X575431Y256036D01*
X575560Y256136D01*
X575671Y256276D01*
X575766Y256456D01*
X575843Y256677D01*
X575903Y256937D01*
X575932Y257135D01*
X575930Y257162D01*
X575890Y257422D01*
X575840Y257642D01*
X575778Y257822D01*
X575704Y257962D01*
X575620Y258062D01*
X575524Y258122D01*
X575418Y258142D01*
X578740D01*
X578596Y258122D01*
D02*
G37*
G36*
X563371Y253689D02*
X563102Y253411D01*
X562649Y252884D01*
X562466Y252636D01*
X562310Y252397D01*
X562183Y252168D01*
X562084Y251949D01*
X562013Y251740D01*
X561971Y251540D01*
X561957Y251351D01*
X559128Y253677D01*
X559295Y253577D01*
X559487Y253531D01*
X559706Y253539D01*
X559950Y253601D01*
X560220Y253717D01*
X560516Y253887D01*
X560837Y254110D01*
X561185Y254387D01*
X561957Y255103D01*
X563371Y253689D01*
D02*
G37*
G36*
X590665Y258068D02*
Y250802D01*
X590568Y250705D01*
X585333D01*
X584969Y251031D01*
Y253820D01*
X584937Y253814D01*
X584677Y253744D01*
X584456Y253654D01*
X584276Y253544D01*
X584136Y253414D01*
X584036Y253264D01*
X583977Y253094D01*
X583956Y252904D01*
Y255957D01*
X583977Y255947D01*
X584036Y255938D01*
X584136Y255930D01*
X585237Y255906D01*
X585956Y255904D01*
Y253904D01*
X585576Y253894D01*
X585525Y253890D01*
X585593Y253726D01*
X586226Y253093D01*
X587000Y252772D01*
Y255000D01*
Y257228D01*
X586226Y256908D01*
X585593Y256275D01*
X585468Y255975D01*
X584969Y256075D01*
Y256968D01*
X584808D01*
X584473Y257330D01*
Y258028D01*
X584487Y258035D01*
X584609Y258078D01*
X584791Y258120D01*
X585030Y258154D01*
X585167Y258165D01*
X590568D01*
X590665Y258068D01*
D02*
G37*
G36*
X572994Y253499D02*
X573037Y253300D01*
X573107Y253090D01*
X573206Y252871D01*
X573334Y252642D01*
X573489Y252403D01*
X573673Y252155D01*
X574126Y251628D01*
X574394Y251351D01*
X572980Y249936D01*
X572581Y250321D01*
X571861Y250929D01*
X571539Y251153D01*
X571243Y251322D01*
X570974Y251438D01*
X570729Y251500D01*
X570511Y251508D01*
X570319Y251462D01*
X570152Y251363D01*
X572980Y253689D01*
X572994Y253499D01*
D02*
G37*
G36*
X585661Y247870D02*
X585281Y247860D01*
X584941Y247830D01*
X584641Y247780D01*
X584381Y247710D01*
X584161Y247620D01*
X583981Y247510D01*
X583841Y247380D01*
X583741Y247230D01*
X583681Y247060D01*
X583661Y246870D01*
Y249858D01*
X583681Y249860D01*
X583741Y249862D01*
X585661Y249870D01*
Y247870D01*
D02*
G37*
G36*
X574925Y250834D02*
X575717Y250154D01*
X576056Y249913D01*
X576358Y249738D01*
X576622Y249628D01*
X576848Y249584D01*
X577037Y249606D01*
X577188Y249693D01*
X577301Y249846D01*
X575418Y246142D01*
X575396Y246421D01*
X575333Y246715D01*
X575227Y247025D01*
X575078Y247350D01*
X574887Y247690D01*
X574654Y248045D01*
X574378Y248416D01*
X573699Y249204D01*
X573296Y249620D01*
X574473Y251272D01*
X574925Y250834D01*
D02*
G37*
%LPC*%
G36*
X554850Y289846D02*
X550020D01*
Y287476D01*
X554850D01*
Y289846D01*
D02*
G37*
G36*
X549020D02*
X544189D01*
Y287476D01*
X549020D01*
Y289846D01*
D02*
G37*
G36*
X554850Y286476D02*
X550020D01*
Y284106D01*
X554850D01*
Y286476D01*
D02*
G37*
G36*
X549020D02*
X544189D01*
Y284106D01*
X549020D01*
Y286476D01*
D02*
G37*
G36*
X561657Y282000D02*
X561631D01*
X560613Y281727D01*
X559701Y281201D01*
X558957Y280456D01*
X558430Y279544D01*
X558157Y278527D01*
Y278500D01*
X561657D01*
Y282000D01*
D02*
G37*
G36*
Y277500D02*
X558157D01*
Y277473D01*
X558430Y276456D01*
X558957Y275544D01*
X559701Y274799D01*
X560613Y274273D01*
X561631Y274000D01*
X561657D01*
Y277500D01*
D02*
G37*
G36*
X588000Y257228D02*
Y255500D01*
X589728D01*
X589407Y256275D01*
X588774Y256908D01*
X588000Y257228D01*
D02*
G37*
G36*
X589728Y254500D02*
X588000D01*
Y252772D01*
X588774Y253093D01*
X589407Y253726D01*
X589728Y254500D01*
D02*
G37*
%LPD*%
G36*
X474142Y262339D02*
X473142Y262327D01*
Y263327D01*
X473334Y263332D01*
X473505Y263347D01*
X473656Y263372D01*
X473788Y263407D01*
X473899Y263452D01*
X473990Y263507D01*
X474061Y263572D01*
X474112Y263647D01*
X474143Y263732D01*
X474154Y263827D01*
X474142Y262339D01*
D02*
G37*
G36*
X477802Y263675D02*
X477773Y263583D01*
Y263477D01*
X477802Y263357D01*
X477858Y263223D01*
X477943Y263074D01*
X478056Y262912D01*
X478197Y262735D01*
X478565Y262339D01*
X477858Y261632D01*
X477653Y261830D01*
X477285Y262141D01*
X477123Y262254D01*
X476974Y262339D01*
X476840Y262395D01*
X476720Y262424D01*
X476614D01*
X476522Y262395D01*
X476444Y262339D01*
X477858Y263753D01*
X477802Y263675D01*
D02*
G37*
G36*
X479252Y261657D02*
X479343Y261579D01*
X479436Y261510D01*
X479530Y261448D01*
X479626Y261395D01*
X479723Y261349D01*
X479822Y261311D01*
X479922Y261280D01*
X480024Y261258D01*
X480127Y261244D01*
X478759Y260152D01*
X478767Y260254D01*
X478764Y260355D01*
X478751Y260456D01*
X478727Y260554D01*
X478693Y260652D01*
X478649Y260748D01*
X478594Y260843D01*
X478529Y260937D01*
X478454Y261030D01*
X478368Y261122D01*
X479162Y261742D01*
X479252Y261657D01*
D02*
G37*
G36*
X472505Y259689D02*
X472520Y259517D01*
X472545Y259366D01*
X472580Y259234D01*
X472625Y259123D01*
X472680Y259032D01*
X472745Y258961D01*
X472820Y258910D01*
X472905Y258880D01*
X473000Y258870D01*
X471000D01*
X471095Y258880D01*
X471180Y258910D01*
X471255Y258961D01*
X471320Y259032D01*
X471375Y259123D01*
X471420Y259234D01*
X471455Y259366D01*
X471480Y259517D01*
X471495Y259689D01*
X471500Y259882D01*
X472500D01*
X472505Y259689D01*
D02*
G37*
G36*
X441940Y252626D02*
X441387Y253148D01*
X440705Y253428D01*
X439895Y253466D01*
X438956Y253263D01*
X437889Y252818D01*
X436694Y252132D01*
X435369Y251203D01*
X433917Y250034D01*
X430626Y246969D01*
X423676Y251333D01*
X425729Y253442D01*
X430280Y258842D01*
X431263Y260334D01*
X431977Y261671D01*
X432425Y262853D01*
X432604Y263882D01*
X432517Y264756D01*
X432162Y265475D01*
X441940Y252626D01*
D02*
G37*
G36*
X432162Y292626D02*
X426614Y292614D01*
Y300614D01*
X427668Y300630D01*
X429443Y300753D01*
X430164Y300862D01*
X430775Y301001D01*
X431274Y301171D01*
X431662Y301372D01*
X431940Y301605D01*
X432106Y301868D01*
X432162Y302162D01*
Y292626D01*
D02*
G37*
D10*
X558000Y396000D02*
Y404000D01*
X495803Y361539D02*
X496000D01*
X494630Y360366D02*
X495803Y361539D01*
X494630Y360169D02*
Y360366D01*
X494000Y359539D02*
X494630Y360169D01*
X494000Y356000D02*
Y359539D01*
X570000Y265000D02*
X571024Y263976D01*
Y260000D02*
Y263976D01*
X490000Y326000D02*
X493586Y329586D01*
X466000Y326000D02*
X490000D01*
X493586Y329586D02*
Y331335D01*
X488409Y336513D02*
X493586Y331335D01*
X476197Y264000D02*
X480000Y260197D01*
Y260000D02*
Y260197D01*
X476000Y264000D02*
X476197D01*
X472000Y398000D02*
Y407457D01*
X510287Y395011D02*
X519079Y403803D01*
X510287Y394287D02*
Y395011D01*
X510000Y394000D02*
X510287Y394287D01*
X519079Y403803D02*
Y404000D01*
X486000Y338461D02*
X486197D01*
X488145Y336513D01*
X488409D01*
X471520Y297024D02*
X472543Y296000D01*
X482000D01*
X489586Y363586D02*
Y371335D01*
X488409Y372513D02*
X489586Y371335D01*
X488145Y372513D02*
X488409D01*
X486197Y374461D02*
X488145Y372513D01*
X486000Y360000D02*
X489586Y363586D01*
X486000Y374461D02*
X486197D01*
X468000Y360000D02*
X486000D01*
X551024Y408480D02*
X551504Y408000D01*
X556000D01*
X556827Y405173D02*
X558000Y404000D01*
X556827Y405173D02*
Y407173D01*
X556000Y408000D02*
X556827Y407173D01*
X512583Y408000D02*
X518000D01*
X512102Y408480D02*
X512583Y408000D01*
X519079Y404000D02*
Y406921D01*
X518000Y408000D02*
X519079Y406921D01*
X473024Y408480D02*
X477520D01*
X478827Y405173D02*
Y407173D01*
X477520Y408480D02*
X478827Y407173D01*
Y405173D02*
X480000Y404000D01*
X472000Y407457D02*
X473024Y408480D01*
X472000Y257504D02*
Y262000D01*
X471520Y257024D02*
X472000Y257504D01*
X472827Y262827D02*
X474827D01*
X476000Y264000D01*
X472000Y262000D02*
X472827Y262827D01*
X471520Y297024D02*
X472000Y297504D01*
Y302000D01*
X474827Y302827D02*
X476000Y304000D01*
X472827Y302827D02*
X474827D01*
X472000Y302000D02*
X472827Y302827D01*
X476461Y337000D02*
X477642D01*
X481102Y333539D02*
X486000D01*
X477642Y337000D02*
X481102Y333539D01*
X477642Y373000D02*
X481102Y369539D01*
X486000D01*
X476461Y373000D02*
X477642D01*
D13*
X353000Y526000D02*
X667000D01*
X667000Y93000D01*
X353000D02*
X667000D01*
X353000Y526000D02*
X353000Y93000D01*
D31*
X564000Y304000D02*
D03*
X584000D02*
D03*
D32*
X574000Y339630D02*
D03*
D33*
X522000Y303709D02*
D03*
Y348000D02*
D03*
D34*
X440976Y433197D02*
D03*
X521079Y433677D02*
D03*
X482000D02*
D03*
X560000D02*
D03*
D35*
X449953Y408000D02*
D03*
X432000D02*
D03*
X512102Y408480D02*
D03*
X530055D02*
D03*
X473024D02*
D03*
X490976D02*
D03*
X551024D02*
D03*
X568976D02*
D03*
D36*
X441815Y383000D02*
D03*
Y373000D02*
D03*
X476461Y383000D02*
D03*
Y373000D02*
D03*
X441815Y347000D02*
D03*
Y337000D02*
D03*
X476461Y347000D02*
D03*
Y337000D02*
D03*
D37*
X486000Y369539D02*
D03*
Y374461D02*
D03*
Y333539D02*
D03*
Y338461D02*
D03*
X476000Y304000D02*
D03*
Y308921D02*
D03*
Y264000D02*
D03*
Y268921D02*
D03*
X508000Y361539D02*
D03*
Y366461D02*
D03*
X502000Y361539D02*
D03*
Y366461D02*
D03*
X496000D02*
D03*
Y361539D02*
D03*
D38*
X480000Y404000D02*
D03*
X484921D02*
D03*
X558000D02*
D03*
X562921D02*
D03*
X519079D02*
D03*
X524000D02*
D03*
X582000Y248000D02*
D03*
X577079D02*
D03*
X548000Y260000D02*
D03*
X552921D02*
D03*
X582000D02*
D03*
X577079D02*
D03*
D39*
X471520Y297024D02*
D03*
Y314976D02*
D03*
Y257024D02*
D03*
Y274976D02*
D03*
X549520Y269024D02*
D03*
Y286976D02*
D03*
D40*
X446323Y306000D02*
D03*
Y266000D02*
D03*
X524323Y278000D02*
D03*
D41*
X514000Y366657D02*
D03*
Y361343D02*
D03*
D42*
X571024Y252520D02*
D03*
Y256260D02*
D03*
Y260000D02*
D03*
X560000D02*
D03*
Y252520D02*
D03*
D43*
X576882Y254000D02*
D03*
X582197D02*
D03*
D44*
X502000Y366461D02*
Y372000D01*
X582969Y254904D02*
X587404D01*
X587500Y255000D01*
X582197Y254000D02*
Y254133D01*
X582969Y254904D01*
X582000Y248000D02*
Y248197D01*
X591328Y248870D02*
X592500Y250042D01*
X582673Y248870D02*
X591328D01*
X582000Y248197D02*
X582673Y248870D01*
X592500Y250042D02*
Y258828D01*
X524157Y364158D02*
Y372000D01*
X521343Y361343D02*
X524157Y364158D01*
X514000Y361343D02*
X521343D01*
X400000Y460000D02*
X408000Y452000D01*
X408000D01*
X422000Y414000D02*
Y438000D01*
X408000Y452000D02*
X422000Y438000D01*
Y414000D02*
X428000Y408000D01*
X432000D01*
X502000Y361539D02*
X508000D01*
X496000D02*
X502000D01*
X508000Y366461D02*
X508098Y366559D01*
X513902D02*
X514000Y366657D01*
X508098Y366559D02*
X513902D01*
X548870Y269024D02*
X549520D01*
X548000Y260000D02*
Y268154D01*
X548870Y269024D01*
X552921Y260000D02*
X560000D01*
X560787Y252520D02*
X565000Y256732D01*
X560000Y252520D02*
X560787D01*
X566172Y270000D02*
X572500D01*
X565000Y268828D02*
X566172Y270000D01*
X565000Y256732D02*
Y268828D01*
X572500Y270000D02*
X577079Y265421D01*
Y260000D02*
Y265421D01*
X576882Y254000D02*
X576980Y254098D01*
Y259902D01*
X577079Y260000D01*
X562157Y278000D02*
X569500D01*
X582000Y260000D02*
Y265500D01*
X569500Y278000D02*
X582000Y265500D01*
X576405Y248870D02*
X577079Y248197D01*
X571024Y252520D02*
X571811D01*
X577079Y248000D02*
Y248197D01*
X575461Y248870D02*
X576405D01*
X571811Y252520D02*
X575461Y248870D01*
X582000Y260000D02*
X591328D01*
X592500Y258828D01*
D45*
X440976Y433197D02*
Y433984D01*
X420000Y454961D02*
X440976Y433984D01*
X420000Y454961D02*
Y470000D01*
X376000Y372000D02*
Y460000D01*
Y336000D02*
Y372000D01*
Y190000D02*
Y336000D01*
Y460000D02*
Y484000D01*
Y460000D02*
X400000D01*
X440000Y502000D02*
X490000D01*
X394000D02*
X440000D01*
Y480000D02*
Y502000D01*
X490000D02*
X526000D01*
X490000Y480000D02*
Y502000D01*
X526000D02*
X540000Y488000D01*
Y480000D02*
Y488000D01*
X376000Y484000D02*
X394000Y502000D01*
X386000Y180000D02*
X400000D01*
X376000Y190000D02*
X386000Y180000D01*
X400000Y480000D02*
X410000D01*
X420000Y470000D01*
D46*
X377000Y337000D02*
X441815D01*
X376000Y336000D02*
X377000Y337000D01*
X378000Y370000D02*
X408000D01*
X376000Y372000D02*
X378000Y370000D01*
X408000D02*
X411000Y373000D01*
X441815D01*
X400000Y360000D02*
X427925D01*
X440925Y347000D01*
X441815D01*
X427000Y383000D02*
X441815D01*
X400000Y410000D02*
X427000Y383000D01*
D47*
X517571Y348000D02*
X522000D01*
X515173Y345602D02*
X517571Y348000D01*
X515173Y341173D02*
Y345602D01*
X490000Y316000D02*
X515173Y341173D01*
X490000Y252000D02*
Y316000D01*
X480000Y242000D02*
X490000Y252000D01*
X442000Y242000D02*
X480000D01*
X440000Y230000D02*
Y240000D01*
X442000Y242000D01*
X428000Y230000D02*
X440000D01*
X422000Y224000D02*
X428000Y230000D01*
X422000Y222000D02*
Y224000D01*
X400000Y200000D02*
X422000Y222000D01*
X400000Y222000D02*
X434614Y256614D01*
X436937D02*
X446323Y266000D01*
X400000Y220000D02*
Y222000D01*
X434614Y256614D02*
X436937D01*
X400000Y240000D02*
X414000Y254000D01*
Y284000D02*
X426614Y296614D01*
X414000Y254000D02*
Y284000D01*
X620000Y280000D02*
X635000Y295000D01*
Y375000D01*
X620000Y380000D02*
X630000D01*
X635000Y375000D01*
X524157Y376658D02*
X530000Y382500D01*
X617500D01*
X620000Y380000D01*
Y390000D01*
X610000Y470000D02*
X620000Y480000D01*
X610000Y400000D02*
X620000Y390000D01*
X610000Y400000D02*
Y470000D01*
X524157Y372000D02*
Y376658D01*
X560000Y433677D02*
Y480000D01*
X510000Y462772D02*
X511693Y461079D01*
Y443063D02*
Y461079D01*
Y443063D02*
X521079Y433677D01*
X510000Y462772D02*
Y480000D01*
X460000Y456465D02*
Y480000D01*
Y456465D02*
X482000Y434465D01*
Y433677D02*
Y434465D01*
X436937Y296614D02*
X446323Y306000D01*
X426614Y296614D02*
X436937D01*
D48*
X496000Y366461D02*
Y373500D01*
X499157Y376658D02*
X524157D01*
X496000Y373500D02*
X499157Y376658D01*
D49*
X450000Y170000D02*
D03*
X460000D02*
D03*
X470000D02*
D03*
X480000D02*
D03*
X490000D02*
D03*
X500000D02*
D03*
X510000D02*
D03*
X520000D02*
D03*
X530000D02*
D03*
X540000D02*
D03*
X550000D02*
D03*
X560000D02*
D03*
X570000D02*
D03*
X580000D02*
D03*
X440000Y230000D02*
D03*
X450000D02*
D03*
X460000D02*
D03*
X470000D02*
D03*
X480000D02*
D03*
X490000D02*
D03*
X500000D02*
D03*
X510000D02*
D03*
X520000D02*
D03*
X530000D02*
D03*
X540000D02*
D03*
X550000D02*
D03*
X560000D02*
D03*
X570000D02*
D03*
X580000D02*
D03*
X440000Y170000D02*
D03*
D50*
X650000Y510000D02*
D03*
Y110000D02*
D03*
X370000D02*
D03*
Y510000D02*
D03*
D51*
X560000Y480000D02*
D03*
X540000Y480000D02*
D03*
X510000D02*
D03*
X490000Y480000D02*
D03*
X460000Y480000D02*
D03*
X440000Y480000D02*
D03*
X450000Y140000D02*
D03*
X470000D02*
D03*
X490000D02*
D03*
X510000D02*
D03*
X530000D02*
D03*
X570000D02*
D03*
X590000Y140000D02*
D03*
X550000D02*
D03*
X400000Y320000D02*
D03*
Y300000D02*
D03*
Y280000D02*
D03*
Y260000D02*
D03*
Y240000D02*
D03*
Y200000D02*
D03*
X400000Y180000D02*
D03*
Y220000D02*
D03*
X620000Y260000D02*
D03*
X620000Y280000D02*
D03*
Y240000D02*
D03*
Y420000D02*
D03*
X620000Y460000D02*
D03*
X620000Y480000D02*
D03*
Y440000D02*
D03*
Y320000D02*
D03*
X620000Y360000D02*
D03*
X620000Y380000D02*
D03*
Y340000D02*
D03*
X400000Y460000D02*
D03*
X400000Y480000D02*
D03*
X400000Y410000D02*
D03*
X400000Y430000D02*
D03*
X400000Y360000D02*
D03*
X400000Y380000D02*
D03*
D52*
X524157Y372000D02*
D03*
X543843D02*
D03*
X562157Y278000D02*
D03*
X581843D02*
D03*
D53*
X502000Y372000D02*
D03*
X467500Y262500D02*
D03*
Y267500D02*
D03*
X462500Y285000D02*
D03*
X442500D02*
D03*
X422500Y272500D02*
D03*
X417500Y380000D02*
D03*
X422500Y325000D02*
D03*
Y347500D02*
D03*
X460000Y325000D02*
D03*
X442500D02*
D03*
X462500Y360000D02*
D03*
X442500D02*
D03*
X522500Y320000D02*
D03*
X510000D02*
D03*
X500000Y297500D02*
D03*
Y307500D02*
D03*
X542500Y335000D02*
D03*
Y345000D02*
D03*
Y355000D02*
D03*
X600000Y372500D02*
D03*
X590000D02*
D03*
X565000D02*
D03*
X555000D02*
D03*
X590000Y392500D02*
D03*
X547500Y395000D02*
D03*
X565000Y390000D02*
D03*
X590000Y402500D02*
D03*
Y415000D02*
D03*
Y425000D02*
D03*
X540000D02*
D03*
Y402500D02*
D03*
Y412500D02*
D03*
X520000D02*
D03*
X500000Y425000D02*
D03*
X502500Y390000D02*
D03*
X495000D02*
D03*
X500000Y412500D02*
D03*
X482500D02*
D03*
X457500Y415000D02*
D03*
Y405000D02*
D03*
X442500D02*
D03*
X447500Y397500D02*
D03*
X437500D02*
D03*
X427500D02*
D03*
X585000Y157500D02*
D03*
X565000D02*
D03*
X537500D02*
D03*
X480000D02*
D03*
X447500D02*
D03*
X457500Y197500D02*
D03*
Y210000D02*
D03*
X475000Y212500D02*
D03*
Y197500D02*
D03*
X507500Y180000D02*
D03*
Y195000D02*
D03*
X500000Y242500D02*
D03*
X515000D02*
D03*
X535000Y195000D02*
D03*
Y180000D02*
D03*
X600000Y212500D02*
D03*
X580000Y197500D02*
D03*
Y185000D02*
D03*
X570000Y212500D02*
D03*
X545000Y295000D02*
D03*
X550000Y300000D02*
D03*
X587500Y255000D02*
D03*
X552500Y252500D02*
D03*
X535000D02*
D03*
X592500Y277500D02*
D03*
Y287500D02*
D03*
Y295000D02*
D03*
Y305000D02*
D03*
Y312500D02*
D03*
X575000Y295000D02*
D03*
Y305000D02*
D03*
Y312500D02*
D03*
X558000Y396000D02*
D03*
X494000Y356000D02*
D03*
X570000Y265000D02*
D03*
X480000Y260000D02*
D03*
X472000Y398000D02*
D03*
X510000Y394000D02*
D03*
X466000Y326000D02*
D03*
X482000Y296000D02*
D03*
X468000Y360000D02*
D03*
M02*
