M48
;Layer_Color=9474304
;FILE_FORMAT=2:5
INCH,LZ
;TYPE=PLATED
T1F00S00C0.01500
T2F00S00C0.03000
T3F00S00C0.04016
T4F00S00C0.06299
T5F00S00C0.10650
%
T01
X048Y01575
X0475Y01975
Y02125
X05075Y0195
Y018
X0535
Y0195
X05375Y01575
X0565
X0585
X058Y0185
Y01975
X057Y02125
X06
X05875Y0255
X05925Y02775
Y02875
Y0295
Y0305
X0575
Y0295
X0545
X055Y03
X05525Y02525
X0535
X0515Y02425
X05
X048Y026
X0482Y0296
X05Y02975
Y03075
X057Y0265
X04675Y02625
Y02675
X04625Y0285
X04425
X04225Y02725
X04575Y021
Y01975
X04475Y01575
X04425Y0325
X046
X0466Y0326
X0468Y036
X04625
X04425
X04225Y03475
Y0325
X04175Y038
X04275Y03975
X04375
X04475
X04425Y0405
X04575
Y0415
X04825Y04125
X05
Y0425
X052Y04125
X054
Y04025
X05475Y0395
X0558Y0396
X0565Y039
Y03725
X0555
X05425Y0355
Y0345
Y0335
X05225Y032
X051
X0494Y0356
X0502Y0372
X05025Y039
X0495
X051Y0394
X0472Y0398
X054Y0425
X059
Y0415
Y04025
Y03925
Y03725
X06
X05925Y03125
X0575
T02
X0562157Y0278
X0581843
X0543843Y0372
X0524157
T03
X047Y017
X048
X049
X05
X051
X052
X053
X054
X055
X056
X057
X058
Y023
X057
X056
X055
X054
X053
X052
X051
X05
X049
X048
X047
X046
X045
X044
Y017
X045
X046
T04
X045Y014
X047
X049
X051
X053
X055Y014
X057Y014
X059Y014
X062Y024
X062Y026
X062Y028
X04
Y03
Y026
Y024
X04Y022
X04Y02
X04Y018
X04Y032
X04Y036
X04Y038
X04Y041
X04Y043
X04Y046
X062
X062Y044
Y042
Y038
X062Y036
X062Y034
Y032
Y048
X056Y048
X054Y048
X051
X049Y048
X046Y048
X044Y048
X04Y048
T05
X037Y011
X065
Y051
X037
M30
