G04*
G04 #@! TF.GenerationSoftware,Altium Limited,Altium Designer,22.3.1 (43)*
G04*
G04 Layer_Color=8388736*
%FSLAX25Y25*%
%MOIN*%
G70*
G04*
G04 #@! TF.SameCoordinates,142BF1C5-0EC6-4A49-94C7-97FE39397288*
G04*
G04*
G04 #@! TF.FilePolarity,Negative*
G04*
G01*
G75*
%ADD13C,0.00787*%
%ADD14R,0.04934X0.17729*%
%ADD15R,0.42139X0.42532*%
%ADD16R,0.22453X0.13595*%
%ADD17R,0.27572X0.29147*%
%ADD18R,0.04540X0.09461*%
%ADD19O,0.08871X0.06509*%
%ADD20R,0.04540X0.04147*%
%ADD21R,0.04147X0.04540*%
%ADD22R,0.09461X0.04540*%
%ADD23R,0.29147X0.27572*%
%ADD24R,0.04737X0.04343*%
%ADD25R,0.04737X0.03162*%
%ADD26R,0.04343X0.04737*%
%ADD27C,0.06706*%
%ADD28C,0.20800*%
%ADD29C,0.08674*%
%ADD30C,0.06800*%
D13*
X353000Y526000D02*
X667000D01*
X667000Y93000D01*
X353000D02*
X667000D01*
X353000Y526000D02*
X353000Y93000D01*
D14*
X564000Y304000D02*
D03*
X584000D02*
D03*
D15*
X574000Y339630D02*
D03*
D16*
X522000Y303709D02*
D03*
Y348000D02*
D03*
D17*
X440976Y433197D02*
D03*
X521079Y433677D02*
D03*
X482000D02*
D03*
X560000D02*
D03*
D18*
X449953Y408000D02*
D03*
X432000D02*
D03*
X512102Y408480D02*
D03*
X530055D02*
D03*
X473024D02*
D03*
X490976D02*
D03*
X551024D02*
D03*
X568976D02*
D03*
D19*
X441815Y383000D02*
D03*
Y373000D02*
D03*
X476461Y383000D02*
D03*
Y373000D02*
D03*
X441815Y347000D02*
D03*
Y337000D02*
D03*
X476461Y347000D02*
D03*
Y337000D02*
D03*
D20*
X486000Y369539D02*
D03*
Y374461D02*
D03*
Y333539D02*
D03*
Y338461D02*
D03*
X476000Y304000D02*
D03*
Y308921D02*
D03*
Y264000D02*
D03*
Y268921D02*
D03*
X508000Y361539D02*
D03*
Y366461D02*
D03*
X502000Y361539D02*
D03*
Y366461D02*
D03*
X496000D02*
D03*
Y361539D02*
D03*
D21*
X480000Y404000D02*
D03*
X484921D02*
D03*
X558000D02*
D03*
X562921D02*
D03*
X519079D02*
D03*
X524000D02*
D03*
X582000Y248000D02*
D03*
X577079D02*
D03*
X548000Y260000D02*
D03*
X552921D02*
D03*
X582000D02*
D03*
X577079D02*
D03*
D22*
X471520Y297024D02*
D03*
Y314976D02*
D03*
Y257024D02*
D03*
Y274976D02*
D03*
X549520Y269024D02*
D03*
Y286976D02*
D03*
D23*
X446323Y306000D02*
D03*
Y266000D02*
D03*
X524323Y278000D02*
D03*
D24*
X514000Y366657D02*
D03*
Y361343D02*
D03*
D25*
X571024Y252520D02*
D03*
Y256260D02*
D03*
Y260000D02*
D03*
X560000D02*
D03*
Y252520D02*
D03*
D26*
X576882Y254000D02*
D03*
X582197D02*
D03*
D27*
X450000Y170000D02*
D03*
X460000D02*
D03*
X470000D02*
D03*
X480000D02*
D03*
X490000D02*
D03*
X500000D02*
D03*
X510000D02*
D03*
X520000D02*
D03*
X530000D02*
D03*
X540000D02*
D03*
X550000D02*
D03*
X560000D02*
D03*
X570000D02*
D03*
X580000D02*
D03*
X440000Y230000D02*
D03*
X450000D02*
D03*
X460000D02*
D03*
X470000D02*
D03*
X480000D02*
D03*
X490000D02*
D03*
X500000D02*
D03*
X510000D02*
D03*
X520000D02*
D03*
X530000D02*
D03*
X540000D02*
D03*
X550000D02*
D03*
X560000D02*
D03*
X570000D02*
D03*
X580000D02*
D03*
X440000Y170000D02*
D03*
D28*
X650000Y510000D02*
D03*
Y110000D02*
D03*
X370000D02*
D03*
Y510000D02*
D03*
D29*
X560000Y480000D02*
D03*
X540000Y480000D02*
D03*
X510000D02*
D03*
X490000Y480000D02*
D03*
X460000Y480000D02*
D03*
X440000Y480000D02*
D03*
X450000Y140000D02*
D03*
X470000D02*
D03*
X490000D02*
D03*
X510000D02*
D03*
X530000D02*
D03*
X570000D02*
D03*
X590000Y140000D02*
D03*
X550000D02*
D03*
X400000Y320000D02*
D03*
Y300000D02*
D03*
Y280000D02*
D03*
Y260000D02*
D03*
Y240000D02*
D03*
Y200000D02*
D03*
X400000Y180000D02*
D03*
Y220000D02*
D03*
X620000Y260000D02*
D03*
X620000Y280000D02*
D03*
Y240000D02*
D03*
Y420000D02*
D03*
X620000Y460000D02*
D03*
X620000Y480000D02*
D03*
Y440000D02*
D03*
Y320000D02*
D03*
X620000Y360000D02*
D03*
X620000Y380000D02*
D03*
Y340000D02*
D03*
X400000Y460000D02*
D03*
X400000Y480000D02*
D03*
X400000Y410000D02*
D03*
X400000Y430000D02*
D03*
X400000Y360000D02*
D03*
X400000Y380000D02*
D03*
D30*
X524157Y372000D02*
D03*
X543843D02*
D03*
X562157Y278000D02*
D03*
X581843D02*
D03*
M02*
